<?xml version="1.0" standalone="no"?>
<!DOCTYPE svg PUBLIC "-//W3C//DTD SVG 1.1//EN" "http://www.w3.org/Graphics/SVG/1.1/DTD/svg11.dtd" >
<svg xmlns="http://www.w3.org/2000/svg" xmlns:xlink="http://www.w3.org/1999/xlink" version="1.1">
<metadata>
Created by FontForge 20150318 at Thu Jun 18 21:40:46 2015
 By uniteet7
Copyright (c) 2015 by Fabien Despinoy. fabiendespinoy.fr. All rights reserved.
</metadata>
<defs>
<font id="FabfeltScript-Bold" horiz-adv-x="631" >
  <font-face 
    font-family="FabfeltScript Bold"
    font-weight="400"
    font-stretch="normal"
    units-per-em="1000"
    panose-1="0 0 5 0 0 0 0 0 0 0"
    ascent="800"
    descent="-200"
    x-height="311"
    cap-height="710"
    bbox="-220 -340 1045.28 983"
    underline-thickness="50"
    underline-position="-25"
    unicode-range="U+000D-FB02"
  />
<missing-glyph horiz-adv-x="278" 
 />
    <glyph glyph-name=".notdef" horiz-adv-x="278" 
 />
    <glyph glyph-name="A" unicode="A" 
d="M632 195c19 -5 31 -24 26 -43c-1 -2 -13 -49 -41 -97c-41 -68 -94 -104 -155 -104c-34 0 -62 16 -79 44c-20 32 -28 81 -24 148c2 25 5 52 10 82c-28 5 -86 14 -148 23c-80 -128 -144 -251 -163 -316c-5 -16 -19 -26 -34 -26c-4 0 -7 0 -10 1c-19 6 -30 26 -25 44
c20 68 79 183 155 307c-40 5 -36 8 -62 8c-20 0 -36 16 -36 36c0 19 16 35 36 35c36 0 49 -5 104 -12c9 13 18 27 27 41c57 85 115 161 168 222c62 71 116 120 162 146c14 8 31 6 42 -5c11 -10 14 -27 7 -41c-48 -98 -100 -243 -131 -368c-17 -71 -28 -132 -31 -182
c-4 -67 6 -95 13 -105c5 -8 10 -11 19 -11c35 0 66 23 94 70c23 38 33 77 33 77c5 19 24 31 43 26zM264 314c51 -8 95 -16 118 -20c3 14 7 28 10 43c20 78 47 164 77 243c-11 -12 -23 -25 -35 -39c-51 -58 -107 -133 -162 -215c-3 -4 -6 -8 -8 -12z" />
    <glyph glyph-name="Aacute" unicode="&#xc1;" 
d="M555 831c0 -9 9 -26 24 -33c16 21 52 58 109 113c-3 23 -13 35 -30 35c-37 0 -103 -88 -103 -115zM632 195c19 -5 31 -24 26 -43c-1 -2 -13 -49 -41 -97c-41 -68 -94 -104 -155 -104c-34 0 -62 16 -79 44c-20 32 -28 81 -24 148c2 25 5 52 10 82c-28 5 -86 14 -148 23
c-80 -128 -144 -251 -163 -316c-5 -16 -19 -26 -34 -26c-4 0 -7 0 -10 1c-19 6 -30 26 -25 44c20 68 79 183 155 307c-40 5 -36 8 -62 8c-20 0 -36 16 -36 36c0 19 16 35 36 35c36 0 49 -5 104 -12c9 13 18 27 27 41c57 85 115 161 168 222c62 71 116 120 162 146
c14 8 31 6 42 -5c11 -10 14 -27 7 -41c-48 -98 -100 -243 -131 -368c-17 -71 -28 -132 -31 -182c-4 -67 6 -95 13 -105c5 -8 10 -11 19 -11c35 0 66 23 94 70c23 38 33 77 33 77c5 19 24 31 43 26zM264 314c51 -8 95 -16 118 -20c3 14 7 28 10 43c20 78 47 164 77 243
c-11 -12 -23 -25 -35 -39c-51 -58 -107 -133 -162 -215c-3 -4 -6 -8 -8 -12z" />
    <glyph glyph-name="Acircumflex" unicode="&#xc2;" 
d="M465 852c0 -13 4 -23 13 -28c37 25 71 42 102 52c33 -29 57 -57 72 -83c17 9 25 22 25 39c0 40 -63 106 -96 106c-35 0 -116 -50 -116 -86zM632 195c19 -5 31 -24 26 -43c-1 -2 -13 -49 -41 -97c-41 -68 -94 -104 -155 -104c-34 0 -62 16 -79 44c-20 32 -28 81 -24 148
c2 25 5 52 10 82c-28 5 -86 14 -148 23c-80 -128 -144 -251 -163 -316c-5 -16 -19 -26 -34 -26c-4 0 -7 0 -10 1c-19 6 -30 26 -25 44c20 68 79 183 155 307c-40 5 -36 8 -62 8c-20 0 -36 16 -36 36c0 19 16 35 36 35c36 0 49 -5 104 -12c9 13 18 27 27 41
c57 85 115 161 168 222c62 71 116 120 162 146c14 8 31 6 42 -5c11 -10 14 -27 7 -41c-48 -98 -100 -243 -131 -368c-17 -71 -28 -132 -31 -182c-4 -67 6 -95 13 -105c5 -8 10 -11 19 -11c35 0 66 23 94 70c23 38 33 77 33 77c5 19 24 31 43 26zM264 314
c51 -8 95 -16 118 -20c3 14 7 28 10 43c20 78 47 164 77 243c-11 -12 -23 -25 -35 -39c-51 -58 -107 -133 -162 -215c-3 -4 -6 -8 -8 -12z" />
    <glyph glyph-name="Adieresis" unicode="&#xc4;" 
d="M436 857c0 -23 19 -34 43 -34c29 0 60 26 60 50c0 21 -12 32 -36 32c-31 0 -67 -24 -67 -48zM581 837c0 -21 19 -34 42 -34c31 0 62 25 62 49c0 22 -12 33 -37 33c-32 0 -67 -23 -67 -48zM632 195c19 -5 31 -24 26 -43c-1 -2 -13 -49 -41 -97c-41 -68 -94 -104 -155 -104
c-34 0 -62 16 -79 44c-20 32 -28 81 -24 148c2 25 5 52 10 82c-28 5 -86 14 -148 23c-80 -128 -144 -251 -163 -316c-5 -16 -19 -26 -34 -26c-4 0 -7 0 -10 1c-19 6 -30 26 -25 44c20 68 79 183 155 307c-40 5 -36 8 -62 8c-20 0 -36 16 -36 36c0 19 16 35 36 35
c36 0 49 -5 104 -12c9 13 18 27 27 41c57 85 115 161 168 222c62 71 116 120 162 146c14 8 31 6 42 -5c11 -10 14 -27 7 -41c-48 -98 -100 -243 -131 -368c-17 -71 -28 -132 -31 -182c-4 -67 6 -95 13 -105c5 -8 10 -11 19 -11c35 0 66 23 94 70c23 38 33 77 33 77
c5 19 24 31 43 26zM264 314c51 -8 95 -16 118 -20c3 14 7 28 10 43c20 78 47 164 77 243c-11 -12 -23 -25 -35 -39c-51 -58 -107 -133 -162 -215c-3 -4 -6 -8 -8 -12z" />
    <glyph glyph-name="Agrave" unicode="&#xc0;" 
d="M420 907c45 -35 84 -71 117 -110c15 7 25 24 25 36c0 28 -73 113 -110 113c-16 0 -31 -14 -32 -39zM632 195c19 -5 31 -24 26 -43c-1 -2 -13 -49 -41 -97c-41 -68 -94 -104 -155 -104c-34 0 -62 16 -79 44c-20 32 -28 81 -24 148c2 25 5 52 10 82c-28 5 -86 14 -148 23
c-80 -128 -144 -251 -163 -316c-5 -16 -19 -26 -34 -26c-4 0 -7 0 -10 1c-19 6 -30 26 -25 44c20 68 79 183 155 307c-40 5 -36 8 -62 8c-20 0 -36 16 -36 36c0 19 16 35 36 35c36 0 49 -5 104 -12c9 13 18 27 27 41c57 85 115 161 168 222c62 71 116 120 162 146
c14 8 31 6 42 -5c11 -10 14 -27 7 -41c-48 -98 -100 -243 -131 -368c-17 -71 -28 -132 -31 -182c-4 -67 6 -95 13 -105c5 -8 10 -11 19 -11c35 0 66 23 94 70c23 38 33 77 33 77c5 19 24 31 43 26zM264 314c51 -8 95 -16 118 -20c3 14 7 28 10 43c20 78 47 164 77 243
c-11 -12 -23 -25 -35 -39c-51 -58 -107 -133 -162 -215c-3 -4 -6 -8 -8 -12z" />
    <glyph glyph-name="Aring" unicode="&#xc5;" 
d="M635 780c21 10 37 23 47 38l2 3c17 26 44 65 36 105c-3 18 -14 33 -30 43c-13 9 -29 14 -47 14c-44 0 -91 -28 -96 -31l-3 -2c-33 -25 -52 -57 -55 -91c-2 -28 8 -54 27 -73c15 -15 34 -22 57 -22zM566 836c-4 5 -6 11 -6 18c1 13 10 26 25 38c12 7 39 20 58 20
c4 0 6 -1 7 -2c0 -2 -1 -7 -5 -17c-6 -11 -14 -23 -20 -33l-2 -3c-5 -7 -30 -22 -50 -22c-4 0 -6 1 -7 1zM632 195c19 -5 31 -24 26 -43c-1 -2 -13 -49 -41 -97c-41 -68 -94 -104 -155 -104c-34 0 -62 16 -79 44c-20 32 -28 81 -24 148c2 25 5 52 10 82
c-28 5 -86 14 -148 23c-80 -128 -144 -251 -163 -316c-5 -16 -19 -26 -34 -26c-4 0 -7 0 -10 1c-19 6 -30 26 -25 44c20 68 79 183 155 307c-40 5 -36 8 -62 8c-20 0 -36 16 -36 36c0 19 16 35 36 35c36 0 49 -5 104 -12c9 13 18 27 27 41c57 85 115 161 168 222
c62 71 116 120 162 146c14 8 31 6 42 -5c11 -10 14 -27 7 -41c-48 -98 -100 -243 -131 -368c-17 -71 -28 -132 -31 -182c-4 -67 6 -95 13 -105c5 -8 10 -11 19 -11c35 0 66 23 94 70c23 38 33 77 33 77c5 19 24 31 43 26zM264 314c51 -8 95 -16 118 -20c3 14 7 28 10 43
c20 78 47 164 77 243c-11 -12 -23 -25 -35 -39c-51 -58 -107 -133 -162 -215c-3 -4 -6 -8 -8 -12z" />
    <glyph glyph-name="Atilde" unicode="&#xc3;" 
d="M601 770c25 0 53 4 86 17c19 6 28 27 21 45c-6 19 -27 28 -45 21c-61 -22 -93 -10 -129 4c-39 14 -83 30 -150 8c-18 -7 -28 -27 -22 -45c6 -19 26 -29 45 -23c43 15 68 6 102 -7c25 -9 54 -20 92 -20zM632 195c19 -5 31 -24 26 -43c-1 -2 -13 -49 -41 -97
c-41 -68 -94 -104 -155 -104c-34 0 -62 16 -79 44c-20 32 -28 81 -24 148c2 25 5 52 10 82c-28 5 -86 14 -148 23c-80 -128 -144 -251 -163 -316c-5 -16 -19 -26 -34 -26c-4 0 -7 0 -10 1c-19 6 -30 26 -25 44c20 68 79 183 155 307c-40 5 -36 8 -62 8c-20 0 -36 16 -36 36
c0 19 16 35 36 35c36 0 49 -5 104 -12c9 13 18 27 27 41c57 85 115 161 168 222c62 71 116 120 162 146c14 8 31 6 42 -5c11 -10 14 -27 7 -41c-48 -98 -100 -243 -131 -368c-17 -71 -28 -132 -31 -182c-4 -67 6 -95 13 -105c5 -8 10 -11 19 -11c35 0 66 23 94 70
c23 38 33 77 33 77c5 19 24 31 43 26zM264 314c51 -8 95 -16 118 -20c3 14 7 28 10 43c20 78 47 164 77 243c-11 -12 -23 -25 -35 -39c-51 -58 -107 -133 -162 -215c-3 -4 -6 -8 -8 -12z" />
    <glyph glyph-name="AE" unicode="&#xc6;" horiz-adv-x="790" 
d="M874 687c5 -18 -5 -38 -24 -44c-21 -6 -53 -9 -98 -10c-33 0 -73 1 -120 4l-83 6c-26 -48 -52 -129 -73 -231c50 -4 92 -7 127 -7c53 -1 72 6 78 9c17 11 39 5 49 -12s5 -38 -12 -48c-25 -15 -61 -21 -109 -21c-40 0 -88 4 -146 9l-3 -17c-19 -117 -27 -223 -25 -273
c49 -19 146 -18 257 5c20 4 38 -9 42 -28s-8 -38 -27 -42c-45 -9 -111 -19 -177 -19c-65 0 -115 10 -148 32c-9 6 -14 15 -16 25c-5 36 -2 110 8 196c-33 8 -98 22 -170 31c-64 -117 -114 -231 -146 -328c-5 -15 -19 -24 -34 -24c-4 0 -7 1 -11 2c-19 6 -29 26 -22 45
c33 100 81 208 136 311c-42 1 -83 -1 -118 -8c-20 -4 -38 8 -42 27c-4 20 8 38 27 42c52 11 113 12 171 8c89 151 188 281 296 383c8 8 18 11 28 10c105 -11 290 -24 341 -9c18 6 38 -5 44 -24zM243 318c58 -8 109 -19 140 -27c3 15 5 30 7 45c11 68 32 178 64 267
c-80 -87 -151 -185 -211 -285z" />
    <glyph glyph-name="B" unicode="B" horiz-adv-x="650" 
d="M614 231c3 -26 -1 -54 -11 -84c-16 -49 -46 -91 -88 -125c-36 -30 -82 -53 -137 -69c-62 -19 -135 -28 -214 -28c-35 0 -71 2 -107 6c-20 2 -34 19 -32 39c2 19 20 33 39 31c194 -20 420 13 472 168c12 37 10 66 -7 87c-21 27 -67 47 -133 57c-64 10 -134 8 -186 5
c-34 -105 -64 -211 -75 -280c-3 -17 -18 -30 -35 -30c-2 0 -4 1 -6 1c-20 3 -33 21 -30 41c25 151 133 458 178 581c-34 -7 -70 -16 -109 -27c-19 -5 -38 6 -44 24c-5 19 6 39 25 44c106 30 196 47 266 50c80 3 137 -11 175 -42c19 -16 33 -35 41 -59c8 -22 11 -47 9 -76
c-4 -51 -30 -95 -78 -131c-20 -15 -44 -28 -72 -40c60 -16 104 -40 131 -74c15 -21 25 -44 28 -69zM370 419c72 21 159 61 164 132c3 34 -5 59 -24 74c-23 19 -67 28 -127 26c-18 -1 -38 -3 -60 -6c-13 -35 -51 -138 -89 -253c33 4 85 11 136 27z" />
    <glyph glyph-name="C" unicode="C" horiz-adv-x="570" 
d="M250 -111c13 0 26 1 39 3c54 9 107 35 158 77c49 40 95 94 135 159c11 17 6 39 -11 49s-39 5 -49 -12c-71 -115 -160 -189 -244 -203c-49 -8 -95 5 -135 38c-45 37 -53 104 -52 153c4 161 104 358 227 448c58 43 98 58 121 62c12 3 35 5 45 -6c11 -11 13 -38 4 -69
c-11 -43 -40 -94 -80 -143c-13 -15 -11 -37 5 -50c15 -12 37 -10 50 5c47 58 80 117 94 170c15 57 8 106 -21 136c-13 14 -30 23 -50 28c-18 4 -39 3 -62 -1c-43 -9 -93 -34 -148 -75c-69 -51 -134 -131 -181 -227c-46 -92 -73 -190 -75 -276c-2 -94 25 -166 78 -210
c45 -37 97 -56 152 -56z" />
    <glyph glyph-name="Ccedilla" unicode="&#xc7;" horiz-adv-x="569" 
d="M591 195c17 -10 22 -32 11 -48c-40 -65 -86 -119 -135 -159c-51 -42 -104 -68 -158 -77c-13 -2 -26 -3 -39 -3h-4c-2 -6 -6 -11 -10 -15c-11 -9 -20 -17 -28 -25h4c38 -2 67 -17 81 -41c12 -22 9 -49 -9 -73c-13 -19 -37 -39 -70 -57s-72 -37 -106 -37
c-15 0 -29 4 -41 14c-25 20 -24 55 -16 78l60 -21c7 1 27 5 68 28c29 16 42 28 47 35c-5 2 -12 3 -23 3c-19 -1 -39 -6 -57 -16c-12 -7 -27 -6 -38 2s-17 22 -14 36c1 8 11 48 70 105c-23 9 -45 23 -66 40c-53 43 -80 116 -78 210c2 85 29 183 75 276c47 95 112 176 181 227
c55 40 105 65 148 74c23 5 44 5 62 1c20 -4 37 -14 50 -28c29 -30 36 -78 21 -135c-14 -54 -47 -113 -94 -170c-13 -15 -35 -18 -50 -5c-16 12 -18 35 -5 50c40 49 69 100 80 143c9 31 7 57 -4 69c-10 11 -33 8 -45 6c-23 -5 -63 -20 -121 -62c-123 -91 -223 -287 -227 -448
c-1 -50 7 -117 52 -153c40 -33 86 -46 135 -38c84 14 173 88 244 203c10 17 32 22 49 11z" />
    <glyph glyph-name="D" unicode="D" horiz-adv-x="687" 
d="M201 -108c6 0 13 0 19 1c43 3 90 15 135 37c74 34 142 88 197 157c30 37 56 78 77 122c22 46 39 96 49 148c14 68 16 128 5 179c-10 47 -30 87 -60 119c-37 39 -87 64 -149 75c-60 11 -111 5 -130 2c-39 -6 -87 -24 -128 -49c-35 -21 -82 -56 -106 -104
c-21 -42 -20 -86 1 -126c9 -18 31 -24 48 -15s24 30 15 48c-11 20 -11 40 0 61c12 26 40 53 78 75c34 20 73 35 103 40c52 8 157 6 216 -56c47 -49 60 -128 38 -235c-41 -200 -174 -326 -284 -377c-61 -29 -121 -38 -166 -26l197 632c6 18 -4 38 -23 44s-39 -5 -44 -23
l-207 -663c-5 -17 2 -34 17 -42c29 -16 64 -24 102 -24z" />
    <glyph glyph-name="Eth" unicode="&#xd0;" horiz-adv-x="688" 
d="M674 534c10 -51 9 -111 -5 -179c-11 -52 -27 -102 -50 -148c-20 -44 -46 -85 -76 -122c-55 -69 -123 -123 -197 -157c-46 -22 -93 -34 -136 -37c-6 -1 -12 -1 -18 -1c-39 0 -74 8 -103 24c-15 8 -22 25 -17 42l92 294c-39 -4 -73 -10 -92 -20c-5 -3 -11 -4 -16 -4
c-13 0 -26 7 -32 19c-9 17 -2 39 15 48c34 18 89 26 148 30l92 296c6 18 26 29 45 23c18 -6 29 -26 23 -44l-85 -272c11 0 21 1 31 1c47 1 95 3 113 7c19 5 39 -6 44 -25s-7 -38 -26 -43c-27 -7 -72 -8 -129 -10c-17 0 -36 -1 -55 -2l-90 -288c45 -12 104 -3 166 26
c110 51 242 177 283 377c22 107 10 186 -37 235c-60 62 -164 64 -216 56c-30 -5 -70 -20 -103 -40c-38 -22 -66 -49 -79 -75c-11 -21 -10 -41 0 -61c10 -18 3 -39 -14 -48c-18 -9 -39 -3 -48 15c-22 40 -22 84 -1 126c24 48 71 83 106 104c41 25 88 43 127 49
c19 3 70 9 130 -2c62 -11 112 -36 149 -75c30 -32 51 -72 61 -119z" />
    <glyph glyph-name="E" unicode="E" horiz-adv-x="533" 
d="M210 -110c53 0 103 13 150 39c37 20 72 47 103 82c53 59 79 117 80 119c8 18 -1 39 -19 47c-17 8 -38 0 -46 -18c-1 -2 -89 -198 -268 -198c-101 0 -142 63 -147 121c-4 47 13 97 48 137c42 48 105 81 183 95c12 2 23 10 27 22c5 11 3 24 -5 34c-64 84 -83 159 -54 217
c27 55 88 80 134 80c30 0 48 -9 56 -26c6 -14 6 -34 -1 -57c-8 -26 -25 -54 -48 -80c-13 -14 -12 -37 2 -50c15 -13 37 -12 50 3c64 70 88 153 62 213c-9 21 -26 39 -46 51c-21 11 -46 17 -75 17c-37 0 -77 -11 -112 -30c-38 -22 -68 -53 -86 -90c-20 -40 -25 -84 -16 -132
c7 -37 23 -75 47 -115c-71 -20 -129 -56 -172 -106c-24 -27 -42 -58 -53 -91s-15 -65 -12 -98c4 -51 27 -98 63 -131c39 -36 93 -55 155 -55z" />
    <glyph glyph-name="Eacute" unicode="&#xc9;" horiz-adv-x="533" 
d="M466 831c0 -9 9 -26 24 -33c16 21 52 58 109 113c-3 23 -13 35 -30 35c-37 0 -103 -88 -103 -115zM210 -110c53 0 103 13 150 39c37 20 72 47 103 82c53 59 79 117 80 119c8 18 -1 39 -19 47c-17 8 -38 0 -46 -18c-1 -2 -89 -198 -268 -198c-101 0 -142 63 -147 121
c-4 47 13 97 48 137c42 48 105 81 183 95c12 2 23 10 27 22c5 11 3 24 -5 34c-64 84 -83 159 -54 217c27 55 88 80 134 80c30 0 48 -9 56 -26c6 -14 6 -34 -1 -57c-8 -26 -25 -54 -48 -80c-13 -14 -12 -37 2 -50c15 -13 37 -12 50 3c64 70 88 153 62 213
c-9 21 -26 39 -46 51c-21 11 -46 17 -75 17c-37 0 -77 -11 -112 -30c-38 -22 -68 -53 -86 -90c-20 -40 -25 -84 -16 -132c7 -37 23 -75 47 -115c-71 -20 -129 -56 -172 -106c-24 -27 -42 -58 -53 -91s-15 -65 -12 -98c4 -51 27 -98 63 -131c39 -36 93 -55 155 -55z" />
    <glyph glyph-name="Ecircumflex" unicode="&#xca;" horiz-adv-x="533" 
d="M382 852c0 -13 4 -23 13 -28c37 25 71 42 102 52c33 -29 57 -57 72 -83c17 9 25 22 25 39c0 40 -63 106 -96 106c-35 0 -116 -50 -116 -86zM210 -110c53 0 103 13 150 39c37 20 72 47 103 82c53 59 79 117 80 119c8 18 -1 39 -19 47c-17 8 -38 0 -46 -18
c-1 -2 -89 -198 -268 -198c-101 0 -142 63 -147 121c-4 47 13 97 48 137c42 48 105 81 183 95c12 2 23 10 27 22c5 11 3 24 -5 34c-64 84 -83 159 -54 217c27 55 88 80 134 80c30 0 48 -9 56 -26c6 -14 6 -34 -1 -57c-8 -26 -25 -54 -48 -80c-13 -14 -12 -37 2 -50
c15 -13 37 -12 50 3c64 70 88 153 62 213c-9 21 -26 39 -46 51c-21 11 -46 17 -75 17c-37 0 -77 -11 -112 -30c-38 -22 -68 -53 -86 -90c-20 -40 -25 -84 -16 -132c7 -37 23 -75 47 -115c-71 -20 -129 -56 -172 -106c-24 -27 -42 -58 -53 -91s-15 -65 -12 -98
c4 -51 27 -98 63 -131c39 -36 93 -55 155 -55z" />
    <glyph glyph-name="Edieresis" unicode="&#xcb;" horiz-adv-x="533" 
d="M357 857c0 -23 19 -34 43 -34c29 0 60 26 60 50c0 21 -12 32 -36 32c-31 0 -67 -24 -67 -48zM502 837c0 -21 19 -34 42 -34c31 0 62 25 62 49c0 22 -12 33 -37 33c-32 0 -67 -23 -67 -48zM210 -110c53 0 103 13 150 39c37 20 72 47 103 82c53 59 79 117 80 119
c8 18 -1 39 -19 47c-17 8 -38 0 -46 -18c-1 -2 -89 -198 -268 -198c-101 0 -142 63 -147 121c-4 47 13 97 48 137c42 48 105 81 183 95c12 2 23 10 27 22c5 11 3 24 -5 34c-64 84 -83 159 -54 217c27 55 88 80 134 80c30 0 48 -9 56 -26c6 -14 6 -34 -1 -57
c-8 -26 -25 -54 -48 -80c-13 -14 -12 -37 2 -50c15 -13 37 -12 50 3c64 70 88 153 62 213c-9 21 -26 39 -46 51c-21 11 -46 17 -75 17c-37 0 -77 -11 -112 -30c-38 -22 -68 -53 -86 -90c-20 -40 -25 -84 -16 -132c7 -37 23 -75 47 -115c-71 -20 -129 -56 -172 -106
c-24 -27 -42 -58 -53 -91s-15 -65 -12 -98c4 -51 27 -98 63 -131c39 -36 93 -55 155 -55z" />
    <glyph glyph-name="Egrave" unicode="&#xc8;" horiz-adv-x="533" 
d="M407 907c45 -35 84 -71 117 -110c15 7 25 24 25 36c0 28 -73 113 -110 113c-16 0 -31 -14 -32 -39zM210 -110c53 0 103 13 150 39c37 20 72 47 103 82c53 59 79 117 80 119c8 18 -1 39 -19 47c-17 8 -38 0 -46 -18c-1 -2 -89 -198 -268 -198c-101 0 -142 63 -147 121
c-4 47 13 97 48 137c42 48 105 81 183 95c12 2 23 10 27 22c5 11 3 24 -5 34c-64 84 -83 159 -54 217c27 55 88 80 134 80c30 0 48 -9 56 -26c6 -14 6 -34 -1 -57c-8 -26 -25 -54 -48 -80c-13 -14 -12 -37 2 -50c15 -13 37 -12 50 3c64 70 88 153 62 213
c-9 21 -26 39 -46 51c-21 11 -46 17 -75 17c-37 0 -77 -11 -112 -30c-38 -22 -68 -53 -86 -90c-20 -40 -25 -84 -16 -132c7 -37 23 -75 47 -115c-71 -20 -129 -56 -172 -106c-24 -27 -42 -58 -53 -91s-15 -65 -12 -98c4 -51 27 -98 63 -131c39 -36 93 -55 155 -55z" />
    <glyph glyph-name="F" unicode="F" horiz-adv-x="522" 
d="M687 708c5 -19 -5 -39 -24 -44c-101 -31 -183 -27 -268 -20c-36 -92 -73 -185 -105 -273c57 3 113 6 150 16c19 5 38 -7 43 -26s-7 -38 -26 -43c-49 -13 -121 -16 -192 -19c-11 -32 -22 -63 -31 -92c-41 -131 -56 -219 -45 -263c5 -19 -7 -38 -26 -43c-3 -1 -6 -1 -9 -1
c-16 0 -30 11 -34 27c-14 58 1 154 46 301c7 22 14 44 22 67c-37 -2 -70 -6 -93 -13c-3 -1 -6 -1 -10 -1c-15 0 -29 10 -34 26c-5 19 6 38 25 44c35 10 84 14 138 17c32 90 69 186 107 281c-7 0 -14 1 -21 1c-62 3 -111 -13 -133 -44c-26 -36 -14 -87 0 -124
c7 -18 -2 -39 -21 -46c-4 -1 -8 -2 -12 -2c-15 0 -28 9 -34 23c-37 96 -15 156 9 190c20 27 48 48 85 60c32 11 69 16 109 14c28 -1 54 -3 80 -5c88 -7 165 -13 259 16c19 5 39 -5 45 -24z" />
    <glyph glyph-name="G" unicode="G" horiz-adv-x="585" 
d="M442 428c-14 14 -15 36 -2 51c66 71 77 125 66 150c-10 23 -41 26 -58 26c-90 0 -226 -135 -298 -296c-23 -52 -37 -119 -39 -184c-2 -67 11 -125 35 -162c21 -33 50 -49 89 -49c76 0 136 77 172 141c20 34 35 69 45 96c3 8 5 16 8 24c-43 14 -110 28 -146 7
c-17 -9 -38 -3 -48 14s-4 38 13 48c38 22 91 26 157 11c46 -10 82 -26 83 -26c17 -7 25 -25 20 -42v-3c-1 -2 -1 -5 -2 -7c-1 -1 -1 -2 -1 -2c-3 -11 -9 -27 -17 -48c-20 -64 -26 -120 -27 -158c-1 -60 8 -94 10 -99c8 -18 0 -39 -18 -47c-5 -2 -10 -3 -15 -3
c-13 0 -26 8 -32 21c-7 17 -15 54 -16 107c-14 -17 -29 -33 -44 -46c-44 -39 -92 -59 -142 -59c-63 0 -114 28 -148 81c-69 106 -55 294 -1 414c37 84 94 167 156 229c50 50 126 109 206 109c59 0 104 -25 123 -69c13 -30 13 -68 -1 -108c-14 -38 -40 -78 -78 -119
c-13 -14 -35 -15 -50 -2z" />
    <glyph glyph-name="H" unicode="H" horiz-adv-x="663" 
d="M665 735c17 -9 25 -30 17 -48c-32 -67 -74 -187 -110 -312c28 2 50 4 61 6c19 4 37 -8 41 -28c4 -19 -8 -37 -28 -41c-17 -4 -48 -6 -94 -9c-2 -9 -5 -18 -7 -27c-21 -83 -37 -158 -45 -216c-12 -88 -2 -109 -1 -111c9 -17 3 -39 -15 -48c-5 -3 -11 -4 -16 -4
c-13 0 -25 7 -32 19c-9 17 -20 52 -6 154c8 60 24 138 46 224l2 5c-13 -1 -25 -1 -39 -2c-64 -3 -130 -6 -186 -10c-27 -84 -53 -167 -75 -233c-42 -129 -49 -137 -55 -144c-7 -9 -17 -13 -28 -13c-8 0 -16 3 -22 8c-15 13 -17 34 -6 49c3 5 13 29 46 130
c19 57 41 126 63 196c-33 -4 -43 -8 -46 -9c-5 -3 -11 -4 -16 -4c-13 0 -25 7 -32 19c-9 17 -3 38 15 48c13 7 37 13 102 19c36 114 69 219 91 280c5 15 4 22 4 24c-6 2 -29 1 -50 -14c-41 -28 -86 -78 -91 -119c-1 -15 2 -27 13 -39c12 -15 11 -37 -4 -50s-37 -11 -50 4
c-23 27 -33 59 -29 94c4 33 20 67 48 101c20 25 47 50 73 68c39 26 97 39 133 11c17 -12 41 -42 20 -103c-20 -56 -49 -149 -81 -251c50 4 106 6 160 9l61 3c39 137 85 272 120 347c9 17 30 25 48 17z" />
    <glyph glyph-name="I" unicode="I" horiz-adv-x="503" 
d="M598 684c5 -19 -7 -38 -26 -43c-40 -9 -110 -9 -191 -8h-2c-12 -53 -23 -106 -33 -159c-23 -112 -45 -217 -71 -309c-21 -75 -43 -132 -67 -176h28c63 -1 127 -2 159 5c19 4 38 -8 42 -27s-8 -38 -27 -42c-40 -9 -102 -8 -175 -7c-87 1 -185 2 -232 -16
c-4 -1 -8 -2 -12 -2c-15 0 -28 9 -34 23c-7 18 3 39 21 46c36 14 88 18 145 20c69 88 110 288 153 499l30 146c-76 -1 -152 -4 -185 -19c-5 -3 -10 -4 -15 -4c-13 0 -26 8 -32 20c-8 18 -1 39 17 48c58 28 176 26 291 25c69 -1 141 -1 173 6c19 5 38 -7 43 -26z" />
    <glyph glyph-name="Iacute" unicode="&#xcd;" horiz-adv-x="503" 
d="M371 831c0 -9 9 -26 24 -33c16 21 52 58 109 113c-3 23 -13 35 -30 35c-37 0 -103 -88 -103 -115zM598 684c5 -19 -7 -38 -26 -43c-40 -9 -110 -9 -191 -8h-2c-12 -53 -23 -106 -33 -159c-23 -112 -45 -217 -71 -309c-21 -75 -43 -132 -67 -176h28c63 -1 127 -2 159 5
c19 4 38 -8 42 -27s-8 -38 -27 -42c-40 -9 -102 -8 -175 -7c-87 1 -185 2 -232 -16c-4 -1 -8 -2 -12 -2c-15 0 -28 9 -34 23c-7 18 3 39 21 46c36 14 88 18 145 20c69 88 110 288 153 499l30 146c-76 -1 -152 -4 -185 -19c-5 -3 -10 -4 -15 -4c-13 0 -26 8 -32 20
c-8 18 -1 39 17 48c58 28 176 26 291 25c69 -1 141 -1 173 6c19 5 38 -7 43 -26z" />
    <glyph glyph-name="Icircumflex" unicode="&#xce;" horiz-adv-x="503" 
d="M294 852c0 -13 4 -23 13 -28c37 25 71 42 102 52c33 -29 57 -57 72 -83c17 9 25 22 25 39c0 40 -63 106 -96 106c-35 0 -116 -50 -116 -86zM598 684c5 -19 -7 -38 -26 -43c-40 -9 -110 -9 -191 -8h-2c-12 -53 -23 -106 -33 -159c-23 -112 -45 -217 -71 -309
c-21 -75 -43 -132 -67 -176h28c63 -1 127 -2 159 5c19 4 38 -8 42 -27s-8 -38 -27 -42c-40 -9 -102 -8 -175 -7c-87 1 -185 2 -232 -16c-4 -1 -8 -2 -12 -2c-15 0 -28 9 -34 23c-7 18 3 39 21 46c36 14 88 18 145 20c69 88 110 288 153 499l30 146c-76 -1 -152 -4 -185 -19
c-5 -3 -10 -4 -15 -4c-13 0 -26 8 -32 20c-8 18 -1 39 17 48c58 28 176 26 291 25c69 -1 141 -1 173 6c19 5 38 -7 43 -26z" />
    <glyph glyph-name="Idieresis" unicode="&#xcf;" horiz-adv-x="503" 
d="M293 857c0 -23 19 -34 43 -34c29 0 60 26 60 50c0 21 -12 32 -36 32c-31 0 -67 -24 -67 -48zM438 837c0 -21 19 -34 42 -34c31 0 62 25 62 49c0 22 -12 33 -37 33c-32 0 -67 -23 -67 -48zM598 684c5 -19 -7 -38 -26 -43c-40 -9 -110 -9 -191 -8h-2
c-12 -53 -23 -106 -33 -159c-23 -112 -45 -217 -71 -309c-21 -75 -43 -132 -67 -176h28c63 -1 127 -2 159 5c19 4 38 -8 42 -27s-8 -38 -27 -42c-40 -9 -102 -8 -175 -7c-87 1 -185 2 -232 -16c-4 -1 -8 -2 -12 -2c-15 0 -28 9 -34 23c-7 18 3 39 21 46c36 14 88 18 145 20
c69 88 110 288 153 499l30 146c-76 -1 -152 -4 -185 -19c-5 -3 -10 -4 -15 -4c-13 0 -26 8 -32 20c-8 18 -1 39 17 48c58 28 176 26 291 25c69 -1 141 -1 173 6c19 5 38 -7 43 -26z" />
    <glyph glyph-name="Igrave" unicode="&#xcc;" horiz-adv-x="503" 
d="M287 907c45 -35 84 -71 117 -110c15 7 25 24 25 36c0 28 -73 113 -110 113c-16 0 -31 -14 -32 -39zM598 684c5 -19 -7 -38 -26 -43c-40 -9 -110 -9 -191 -8h-2c-12 -53 -23 -106 -33 -159c-23 -112 -45 -217 -71 -309c-21 -75 -43 -132 -67 -176h28c63 -1 127 -2 159 5
c19 4 38 -8 42 -27s-8 -38 -27 -42c-40 -9 -102 -8 -175 -7c-87 1 -185 2 -232 -16c-4 -1 -8 -2 -12 -2c-15 0 -28 9 -34 23c-7 18 3 39 21 46c36 14 88 18 145 20c69 88 110 288 153 499l30 146c-76 -1 -152 -4 -185 -19c-5 -3 -10 -4 -15 -4c-13 0 -26 8 -32 20
c-8 18 -1 39 17 48c58 28 176 26 291 25c69 -1 141 -1 173 6c19 5 38 -7 43 -26z" />
    <glyph glyph-name="J" unicode="J" horiz-adv-x="440" 
d="M537 727c19 0 35 -17 34 -36c0 -20 -16 -35 -36 -35c-1 0 -47 1 -109 0c-57 -274 -94 -450 -134 -568c-24 -67 -47 -113 -74 -143c-27 -31 -59 -46 -94 -46c-7 0 -13 0 -19 1c-55 8 -94 41 -111 94c-24 75 3 182 61 237c14 14 37 13 50 -1c14 -14 14 -37 -1 -50
c-38 -37 -58 -115 -42 -164c8 -27 25 -41 53 -45c14 -2 30 -1 50 21c20 23 40 62 59 119c39 112 75 281 129 543c-66 -3 -137 -9 -191 -21c-2 -1 -5 -1 -7 -1c-17 0 -31 11 -35 28c-4 19 8 38 27 42c141 31 380 25 390 25z" />
    <glyph glyph-name="K" unicode="K" horiz-adv-x="637" 
d="M662 658c-75 -120 -299 -283 -377 -338c18 -32 50 -89 91 -148c35 -52 70 -95 104 -128c39 -40 75 -65 107 -75c18 -5 29 -25 23 -44c-5 -15 -19 -25 -34 -25c-3 0 -7 1 -11 2c-75 23 -159 101 -248 231c-31 44 -57 88 -76 121c-22 -71 -44 -140 -63 -196
c-42 -129 -49 -137 -55 -144c-7 -9 -17 -13 -28 -13c-8 0 -16 3 -22 8c-15 13 -17 34 -6 49c3 5 13 29 46 130c24 71 52 162 80 250c38 120 74 234 97 299c5 15 4 22 4 24c-6 2 -29 1 -50 -14c-41 -28 -86 -78 -91 -118c-1 -16 2 -28 13 -40c12 -15 11 -37 -4 -50
s-37 -11 -50 4c-23 27 -33 59 -29 94c4 33 20 67 48 101c20 25 47 50 73 68c39 27 97 39 133 11c17 -12 41 -42 20 -103c-17 -47 -40 -120 -66 -202c94 69 254 193 311 284c11 16 33 21 49 11c17 -11 22 -33 11 -49z" />
    <glyph glyph-name="L" unicode="L" horiz-adv-x="610" 
d="M427 -70c6 0 12 0 19 1c40 2 76 13 108 31c16 10 22 32 12 49s-32 22 -48 12c-42 -24 -96 -29 -166 -13c-52 12 -104 33 -146 52c14 23 28 50 42 80c32 70 62 151 88 225c42 2 85 13 125 33c44 21 82 50 109 85c40 51 55 110 42 165c-12 52 -48 85 -96 90
c-30 3 -63 -6 -93 -25c-29 -19 -53 -47 -69 -80c-11 -25 -27 -73 -48 -134c-6 -18 -12 -37 -19 -57c-33 11 -57 37 -63 63c-6 23 3 41 27 54c17 9 24 31 14 48c-9 17 -30 24 -48 14c-26 -14 -46 -34 -57 -59c-10 -23 -11 -49 -5 -74c8 -33 29 -64 59 -86
c15 -12 32 -21 50 -27c-24 -69 -51 -142 -81 -205c-15 -33 -30 -60 -42 -82l-9 4c-44 15 -83 21 -116 19c-42 -2 -65 -18 -77 -31c-20 -22 -24 -51 -12 -78c9 -21 26 -38 49 -50s51 -18 81 -18c21 0 41 7 61 20c16 11 32 26 48 46c46 -21 106 -47 171 -61
c32 -7 62 -11 90 -11zM504 670c1 0 3 0 5 -1c17 -1 29 -13 34 -35c10 -44 -10 -81 -28 -105c-36 -45 -94 -78 -154 -88c5 13 9 26 13 37c18 57 35 106 45 127c20 43 57 65 85 65zM-9 34c3 4 31 19 105 -4c-20 -20 -33 -23 -39 -23c-39 0 -56 15 -61 19c-4 4 -5 7 -5 8z" />
    <glyph glyph-name="M" unicode="M" horiz-adv-x="806" 
d="M793 697c-65 -230 -104 -391 -121 -505c-16 -108 -14 -179 7 -216c10 -17 4 -39 -13 -48c-6 -3 -12 -5 -18 -5c-12 0 -24 7 -30 18c-48 84 -34 247 57 595c-31 -52 -65 -113 -101 -183c-72 -142 -128 -274 -144 -327c-4 -14 -17 -24 -31 -25c-15 -1 -29 7 -35 20
c-22 47 -17 138 -7 282c5 80 11 162 9 232c0 15 -1 29 -2 41l-14 -30c-4 -9 -8 -19 -13 -29c-12 -28 -30 -70 -50 -118c-38 -92 -86 -207 -132 -304c-26 -54 -48 -95 -67 -127c-26 -42 -47 -65 -68 -75c-4 -2 -10 -3 -14 -3c-14 0 -27 8 -33 21c-8 17 0 38 18 47
c1 0 13 8 39 51c17 30 39 70 63 120c44 95 91 207 129 297c20 49 38 91 51 120c4 10 8 20 13 29c13 29 24 55 32 74l7 26c-5 1 -13 1 -26 1c-23 -2 -51 -14 -75 -34c-25 -20 -43 -44 -49 -67c-7 -25 1 -45 25 -62c16 -12 20 -34 9 -50c-12 -16 -34 -20 -50 -8
c-49 34 -68 85 -52 139c10 38 36 74 73 104c36 29 77 46 115 48c10 1 20 1 30 1h3c24 -1 46 -11 63 -30c29 -32 44 -89 46 -181c2 -72 -4 -156 -9 -238c-3 -35 -5 -69 -7 -100c25 55 55 120 90 188c61 119 149 276 224 346c11 11 29 13 43 5c13 -8 20 -25 15 -40z" />
    <glyph glyph-name="N" unicode="N" horiz-adv-x="674" 
d="M714 725c12 -15 8 -37 -7 -49c-22 -17 -66 -76 -120 -291c-29 -118 -56 -263 -84 -444c-3 -15 -13 -27 -28 -30l-7 -1c-12 0 -23 6 -30 17c-36 54 -50 183 -66 333c-10 90 -20 183 -35 259c-6 29 -12 52 -18 71c-19 -66 -49 -167 -81 -270c-32 -102 -59 -186 -81 -251
c-38 -111 -53 -140 -62 -153c-7 -11 -18 -16 -30 -16c-6 0 -13 2 -19 6c-17 11 -21 33 -10 49c8 12 38 74 134 386c42 136 81 267 96 319c-59 -14 -108 -73 -117 -122c-5 -24 0 -41 15 -51c17 -11 22 -33 11 -49c-11 -17 -33 -21 -49 -11c-40 26 -57 72 -47 125
c8 39 29 79 61 112c34 35 75 59 118 67c24 4 47 -1 67 -16c36 -27 61 -83 81 -182c16 -79 27 -174 36 -266c6 -49 11 -101 18 -148c19 109 38 202 58 283c21 81 42 149 63 201c26 65 53 107 83 129c16 12 38 9 50 -7z" />
    <glyph glyph-name="Ntilde" unicode="&#xd1;" horiz-adv-x="674" 
d="M601 770c25 0 53 4 86 17c19 6 28 27 21 45c-6 19 -27 28 -45 21c-61 -22 -93 -10 -129 4c-39 14 -83 30 -150 8c-18 -7 -28 -27 -22 -45c6 -19 26 -29 45 -23c43 15 68 6 102 -7c25 -9 54 -20 92 -20zM714 725c12 -15 8 -37 -7 -49c-22 -17 -66 -76 -120 -291
c-29 -118 -56 -263 -84 -444c-3 -15 -13 -27 -28 -30l-7 -1c-12 0 -23 6 -30 17c-36 54 -50 183 -66 333c-10 90 -20 183 -35 259c-6 29 -12 52 -18 71c-19 -66 -49 -167 -81 -270c-32 -102 -59 -186 -81 -251c-38 -111 -53 -140 -62 -153c-7 -11 -18 -16 -30 -16
c-6 0 -13 2 -19 6c-17 11 -21 33 -10 49c8 12 38 74 134 386c42 136 81 267 96 319c-59 -14 -108 -73 -117 -122c-5 -24 0 -41 15 -51c17 -11 22 -33 11 -49c-11 -17 -33 -21 -49 -11c-40 26 -57 72 -47 125c8 39 29 79 61 112c34 35 75 59 118 67c24 4 47 -1 67 -16
c36 -27 61 -83 81 -182c16 -79 27 -174 36 -266c6 -49 11 -101 18 -148c19 109 38 202 58 283c21 81 42 149 63 201c26 65 53 107 83 129c16 12 38 9 50 -7z" />
    <glyph glyph-name="O" unicode="O" horiz-adv-x="655" 
d="M250 -110c49 0 95 12 137 36c39 21 75 51 107 91c55 66 101 156 137 268c29 90 29 167 23 216c-6 60 -24 113 -48 146c-18 24 -36 33 -50 35c3 18 -8 35 -26 40c-54 14 -110 11 -166 -10c-48 -18 -95 -48 -140 -91c-76 -73 -143 -178 -178 -283
c-19 -56 -27 -122 -23 -185c6 -70 26 -130 58 -176c41 -57 99 -87 169 -87zM463 660h7c-25 -15 -48 -37 -68 -63c-42 -57 -58 -123 -43 -176c6 -19 26 -30 44 -24c19 5 30 25 25 44c-10 32 2 75 31 113c25 33 57 55 84 57c8 -7 27 -36 37 -92c12 -67 6 -142 -17 -213
c-32 -101 -75 -185 -123 -244c-56 -67 -120 -101 -190 -101c-46 0 -84 19 -111 57c-49 69 -60 197 -26 297c51 149 192 345 350 345z" />
    <glyph glyph-name="Oacute" unicode="&#xd3;" horiz-adv-x="655" 
d="M482 831c0 -9 9 -26 24 -33c16 21 52 58 109 113c-3 23 -13 35 -30 35c-37 0 -103 -88 -103 -115zM250 -110c49 0 95 12 137 36c39 21 75 51 107 91c55 66 101 156 137 268c29 90 29 167 23 216c-6 60 -24 113 -48 146c-18 24 -36 33 -50 35c3 18 -8 35 -26 40
c-54 14 -110 11 -166 -10c-48 -18 -95 -48 -140 -91c-76 -73 -143 -178 -178 -283c-19 -56 -27 -122 -23 -185c6 -70 26 -130 58 -176c41 -57 99 -87 169 -87zM463 660h7c-25 -15 -48 -37 -68 -63c-42 -57 -58 -123 -43 -176c6 -19 26 -30 44 -24c19 5 30 25 25 44
c-10 32 2 75 31 113c25 33 57 55 84 57c8 -7 27 -36 37 -92c12 -67 6 -142 -17 -213c-32 -101 -75 -185 -123 -244c-56 -67 -120 -101 -190 -101c-46 0 -84 19 -111 57c-49 69 -60 197 -26 297c51 149 192 345 350 345z" />
    <glyph glyph-name="Ocircumflex" unicode="&#xd4;" horiz-adv-x="655" 
d="M422 852c0 -13 4 -23 13 -28c37 25 71 42 102 52c33 -29 57 -57 72 -83c17 9 25 22 25 39c0 40 -63 106 -96 106c-35 0 -116 -50 -116 -86zM250 -110c49 0 95 12 137 36c39 21 75 51 107 91c55 66 101 156 137 268c29 90 29 167 23 216c-6 60 -24 113 -48 146
c-18 24 -36 33 -50 35c3 18 -8 35 -26 40c-54 14 -110 11 -166 -10c-48 -18 -95 -48 -140 -91c-76 -73 -143 -178 -178 -283c-19 -56 -27 -122 -23 -185c6 -70 26 -130 58 -176c41 -57 99 -87 169 -87zM463 660h7c-25 -15 -48 -37 -68 -63c-42 -57 -58 -123 -43 -176
c6 -19 26 -30 44 -24c19 5 30 25 25 44c-10 32 2 75 31 113c25 33 57 55 84 57c8 -7 27 -36 37 -92c12 -67 6 -142 -17 -213c-32 -101 -75 -185 -123 -244c-56 -67 -120 -101 -190 -101c-46 0 -84 19 -111 57c-49 69 -60 197 -26 297c51 149 192 345 350 345z" />
    <glyph glyph-name="Odieresis" unicode="&#xd6;" horiz-adv-x="655" 
d="M404 857c0 -23 19 -34 43 -34c29 0 60 26 60 50c0 21 -12 32 -36 32c-31 0 -67 -24 -67 -48zM549 837c0 -21 19 -34 42 -34c31 0 62 25 62 49c0 22 -12 33 -37 33c-32 0 -67 -23 -67 -48zM250 -110c49 0 95 12 137 36c39 21 75 51 107 91c55 66 101 156 137 268
c29 90 29 167 23 216c-6 60 -24 113 -48 146c-18 24 -36 33 -50 35c3 18 -8 35 -26 40c-54 14 -110 11 -166 -10c-48 -18 -95 -48 -140 -91c-76 -73 -143 -178 -178 -283c-19 -56 -27 -122 -23 -185c6 -70 26 -130 58 -176c41 -57 99 -87 169 -87zM463 660h7
c-25 -15 -48 -37 -68 -63c-42 -57 -58 -123 -43 -176c6 -19 26 -30 44 -24c19 5 30 25 25 44c-10 32 2 75 31 113c25 33 57 55 84 57c8 -7 27 -36 37 -92c12 -67 6 -142 -17 -213c-32 -101 -75 -185 -123 -244c-56 -67 -120 -101 -190 -101c-46 0 -84 19 -111 57
c-49 69 -60 197 -26 297c51 149 192 345 350 345z" />
    <glyph glyph-name="Ograve" unicode="&#xd2;" horiz-adv-x="655" 
d="M437 907c45 -35 84 -71 117 -110c15 7 25 24 25 36c0 28 -73 113 -110 113c-16 0 -31 -14 -32 -39zM250 -110c49 0 95 12 137 36c39 21 75 51 107 91c55 66 101 156 137 268c29 90 29 167 23 216c-6 60 -24 113 -48 146c-18 24 -36 33 -50 35c3 18 -8 35 -26 40
c-54 14 -110 11 -166 -10c-48 -18 -95 -48 -140 -91c-76 -73 -143 -178 -178 -283c-19 -56 -27 -122 -23 -185c6 -70 26 -130 58 -176c41 -57 99 -87 169 -87zM463 660h7c-25 -15 -48 -37 -68 -63c-42 -57 -58 -123 -43 -176c6 -19 26 -30 44 -24c19 5 30 25 25 44
c-10 32 2 75 31 113c25 33 57 55 84 57c8 -7 27 -36 37 -92c12 -67 6 -142 -17 -213c-32 -101 -75 -185 -123 -244c-56 -67 -120 -101 -190 -101c-46 0 -84 19 -111 57c-49 69 -60 197 -26 297c51 149 192 345 350 345z" />
    <glyph glyph-name="Oslash" unicode="&#xd8;" horiz-adv-x="654" 
d="M706 640c6 -19 -5 -39 -24 -45c0 0 -10 -3 -34 -27c-6 -6 -12 -13 -19 -21c1 -7 3 -15 4 -23c10 -65 9 -146 -2 -228c-7 -46 -19 -93 -35 -137c-19 -50 -43 -95 -71 -134c-33 -45 -72 -80 -116 -106c-49 -29 -104 -44 -164 -46h-8c-40 0 -76 10 -105 29
c-18 -17 -35 -30 -49 -38c-6 -3 -12 -4 -17 -4c-13 0 -25 7 -32 19c-9 17 -3 38 15 48c9 5 21 14 34 27c-40 63 -45 151 -42 214c4 76 20 149 35 186c47 121 159 327 387 362c19 2 37 -11 40 -30c3 -20 -10 -38 -30 -41c-192 -28 -290 -210 -331 -316
c-12 -32 -27 -96 -30 -164c-3 -65 4 -119 22 -157c14 16 30 35 46 56c56 71 119 159 180 245l69 96c-5 -6 -12 -11 -21 -12c-20 -3 -38 10 -41 29c-11 65 15 135 68 186c38 37 82 56 117 49c13 -3 32 -12 49 -36c24 24 44 37 61 42c19 6 38 -5 44 -23zM437 434
c1 -9 -1 -18 -5 -25c34 47 67 91 97 129c7 9 14 18 21 26c-5 14 -10 21 -13 23c-6 0 -28 -6 -53 -30c-14 -13 -57 -61 -47 -123zM560 306c9 58 11 116 7 166c-45 -58 -95 -130 -149 -204c-85 -120 -167 -235 -236 -313c16 -8 34 -11 55 -11h6c198 6 295 199 317 362z" />
    <glyph glyph-name="Otilde" unicode="&#xd5;" horiz-adv-x="655" 
d="M601 770c25 0 53 4 86 17c19 6 28 27 21 45c-6 19 -27 28 -45 21c-61 -22 -93 -10 -129 4c-39 14 -83 30 -150 8c-18 -7 -28 -27 -22 -45c6 -19 26 -29 45 -23c43 15 68 6 102 -7c25 -9 54 -20 92 -20zM250 -110c49 0 95 12 137 36c39 21 75 51 107 91
c55 66 101 156 137 268c29 90 29 167 23 216c-6 60 -24 113 -48 146c-18 24 -36 33 -50 35c3 18 -8 35 -26 40c-54 14 -110 11 -166 -10c-48 -18 -95 -48 -140 -91c-76 -73 -143 -178 -178 -283c-19 -56 -27 -122 -23 -185c6 -70 26 -130 58 -176c41 -57 99 -87 169 -87z
M463 660h7c-25 -15 -48 -37 -68 -63c-42 -57 -58 -123 -43 -176c6 -19 26 -30 44 -24c19 5 30 25 25 44c-10 32 2 75 31 113c25 33 57 55 84 57c8 -7 27 -36 37 -92c12 -67 6 -142 -17 -213c-32 -101 -75 -185 -123 -244c-56 -67 -120 -101 -190 -101c-46 0 -84 19 -111 57
c-49 69 -60 197 -26 297c51 149 192 345 350 345z" />
    <glyph glyph-name="OE" unicode="&#x152;" horiz-adv-x="848" 
d="M867 667c8 -18 1 -39 -17 -47c-22 -11 -51 -14 -83 -14c-34 0 -71 4 -107 8c-18 2 -36 4 -52 5c1 -2 2 -3 2 -5c24 -52 30 -131 19 -223c-1 -5 -2 -10 -2 -16c20 0 37 0 52 -1c42 -1 65 -2 112 9c19 4 38 -8 43 -27c4 -19 -8 -38 -27 -43c-40 -8 -66 -10 -94 -10h-36
c-16 1 -35 2 -58 2h-5c-16 -69 -40 -138 -71 -204c-21 -45 -57 -90 -99 -124c-1 -1 -3 -1 -4 -2c111 -6 197 1 275 20c19 4 38 -8 43 -27c4 -19 -8 -38 -27 -43c-59 -14 -121 -21 -191 -23h-28c-56 0 -118 3 -193 11c-21 -6 -43 -10 -65 -12c-5 -1 -10 -1 -15 -1
c-44 0 -83 18 -114 52c-34 37 -58 93 -69 163c-9 63 -8 134 4 203c17 97 70 194 149 274c80 81 178 134 276 151c19 3 38 -10 41 -29c2 -10 -1 -20 -7 -27c6 -1 12 -2 17 -4c6 5 13 8 21 8c31 2 70 -2 110 -7c56 -6 124 -13 153 0c18 8 39 1 47 -17zM558 399
c10 78 5 146 -12 186c-5 11 -14 26 -25 29c-15 5 -28 3 -39 -4c-38 -23 -60 -99 -64 -124c-3 -20 -22 -32 -41 -29c-20 3 -32 22 -29 41c0 1 6 32 19 67c14 36 31 65 52 85c-140 -58 -264 -200 -289 -344c-22 -126 -3 -252 47 -306c20 -22 43 -31 71 -29
c128 11 205 106 231 160c40 86 68 181 79 268z" />
    <glyph glyph-name="P" unicode="P" horiz-adv-x="559" 
d="M623 592c8 -26 9 -54 3 -85c-20 -90 -89 -161 -201 -203c-77 -30 -161 -41 -219 -42c-29 -92 -62 -203 -96 -335c-4 -15 -19 -26 -34 -26c-3 0 -6 0 -10 1c-18 5 -30 25 -25 44c38 143 73 264 105 362c0 1 0 2 1 3c27 87 51 155 70 207c20 53 36 93 48 121
c-40 -6 -79 -16 -115 -29c-19 -6 -39 3 -46 22c-6 18 3 38 22 45c79 28 168 43 249 42c62 -1 149 -13 205 -62c21 -18 35 -40 43 -65zM556 522c8 35 1 61 -23 82c-31 27 -88 43 -160 44h-27c-12 -25 -34 -77 -63 -156c-15 -41 -33 -94 -54 -158c115 7 298 54 327 188z" />
    <glyph glyph-name="Thorn" unicode="&#xde;" horiz-adv-x="543" 
d="M537 496c26 -33 47 -93 -2 -187c-79 -151 -308 -177 -357 -180l-9 -31c-20 -76 -37 -136 -53 -176c-5 -14 -19 -22 -33 -22c-4 0 -9 1 -13 3c-18 7 -27 27 -20 46c15 36 31 97 51 168c29 107 66 242 119 381c-39 -5 -80 -12 -123 -21c-19 -5 -38 7 -42 27
c-5 19 7 38 26 42c60 13 116 22 169 26c18 43 38 87 59 129c9 18 31 25 48 16c18 -9 25 -30 16 -48c-16 -31 -31 -63 -45 -95c9 -1 18 -1 28 -2c87 -7 148 -32 181 -76zM472 342c25 49 28 86 9 111c-20 26 -67 43 -131 48c-16 2 -34 2 -52 2c-41 -105 -73 -208 -100 -301
c68 9 221 39 274 140z" />
    <glyph glyph-name="Q" unicode="Q" horiz-adv-x="728" 
d="M574 -120c29 0 57 7 84 20c18 9 25 30 17 48c-9 17 -30 24 -48 16c-55 -27 -105 -9 -172 31c42 34 80 78 113 131c47 75 82 165 98 252c17 89 13 166 -11 216c-17 35 -38 63 -62 85s-51 37 -81 46c-72 21 -160 5 -247 -48c-68 -40 -140 -140 -183 -254
c-23 -60 -37 -122 -41 -179c-4 -66 5 -126 28 -178c8 -17 29 -26 47 -18s26 29 18 47c-80 179 63 460 167 522c70 41 138 56 191 40c41 -13 75 -44 99 -94c34 -71 9 -253 -83 -399c-24 -38 -64 -91 -119 -129c-36 22 -75 44 -118 60c-64 24 -98 2 -113 -14
c-24 -25 -29 -64 -14 -101c17 -40 55 -65 99 -65c51 0 100 12 146 36c40 -24 78 -47 119 -60c23 -7 45 -11 66 -11zM219 35c6 0 15 -2 27 -6c23 -9 46 -20 68 -32c-22 -7 -46 -11 -71 -11c-22 0 -31 15 -33 22c-5 12 -4 21 -1 24c2 2 5 3 10 3z" />
    <glyph glyph-name="R" unicode="R" horiz-adv-x="616" 
d="M607 605c12 -29 16 -63 13 -101c-2 -31 -12 -60 -27 -85c-14 -23 -33 -43 -57 -61c-38 -27 -88 -47 -149 -60c-50 -10 -100 -14 -137 -15c97 -157 173 -243 222 -289c59 -55 92 -64 92 -64h-1c16 -3 27 -18 27 -34c0 -20 -15 -36 -35 -36c-4 0 -9 1 -12 2
c-30 9 -156 65 -349 377c-36 -109 -68 -220 -84 -308c-3 -18 -18 -30 -34 -30c-3 0 -5 0 -7 1c-19 3 -32 22 -28 41c20 115 68 278 142 482c32 88 62 166 82 215c-41 -8 -85 -20 -129 -36c-18 -7 -39 3 -45 21c-7 19 3 39 21 46c85 30 168 48 240 52c87 5 154 -11 201 -46
c25 -19 43 -43 54 -72zM549 509c4 52 -9 88 -39 111c-32 25 -86 36 -154 32h-10c-18 -45 -65 -162 -113 -298c36 0 88 3 141 14c111 23 170 71 175 141z" />
    <glyph glyph-name="S" unicode="S" horiz-adv-x="567" 
d="M220 -100c13 0 27 1 39 2c60 6 126 25 161 46c49 30 80 78 86 132c6 55 -14 109 -56 149c-49 47 -100 77 -150 106c-22 13 -45 27 -68 42c-29 20 -49 49 -54 81c-6 37 6 78 36 117c45 58 120 82 172 85c35 2 64 -6 77 -19c16 -17 -11 -73 -31 -115s-39 -82 -39 -119
c0 -19 16 -35 36 -35c19 0 35 16 35 35c0 21 17 57 33 89c14 31 29 62 37 93c10 42 4 76 -19 101c-28 29 -75 44 -133 41c-40 -2 -82 -13 -120 -31c-43 -20 -79 -49 -104 -82c-54 -70 -57 -132 -50 -171c4 -27 14 -52 30 -74c14 -22 33 -40 55 -55c24 -16 48 -30 71 -44
c48 -28 93 -55 137 -96c26 -25 38 -58 35 -90c-4 -33 -22 -61 -53 -79c-22 -14 -75 -31 -130 -36c-62 -6 -110 4 -136 28c-28 27 -42 65 -37 101c4 33 25 61 59 79c18 9 24 31 15 48s-31 24 -48 15c-55 -29 -89 -76 -96 -132c-4 -29 -1 -60 10 -88c10 -28 27 -54 48 -74
c41 -39 100 -50 152 -50z" />
    <glyph glyph-name="Scaron" unicode="&#x160;" horiz-adv-x="567" 
d="M358 906c0 -44 68 -116 104 -116s123 55 123 94c0 11 -7 19 -21 24c-24 -21 -58 -39 -102 -54c-35 31 -61 61 -77 92c-18 -9 -27 -22 -27 -40zM220 -100c13 0 27 1 39 2c60 6 126 25 161 46c49 30 80 78 86 132c6 55 -14 109 -56 149c-49 47 -100 77 -150 106
c-22 13 -45 27 -68 42c-29 20 -49 49 -54 81c-6 37 6 78 36 117c45 58 120 82 172 85c35 2 64 -6 77 -19c16 -17 -11 -73 -31 -115s-39 -82 -39 -119c0 -19 16 -35 36 -35c19 0 35 16 35 35c0 21 17 57 33 89c14 31 29 62 37 93c10 42 4 76 -19 101c-28 29 -75 44 -133 41
c-40 -2 -82 -13 -120 -31c-43 -20 -79 -49 -104 -82c-54 -70 -57 -132 -50 -171c4 -27 14 -52 30 -74c14 -22 33 -40 55 -55c24 -16 48 -30 71 -44c48 -28 93 -55 137 -96c26 -25 38 -58 35 -90c-4 -33 -22 -61 -53 -79c-22 -14 -75 -31 -130 -36c-62 -6 -110 4 -136 28
c-28 27 -42 65 -37 101c4 33 25 61 59 79c18 9 24 31 15 48s-31 24 -48 15c-55 -29 -89 -76 -96 -132c-4 -29 -1 -60 10 -88c10 -28 27 -54 48 -74c41 -39 100 -50 152 -50z" />
    <glyph glyph-name="T" unicode="T" horiz-adv-x="540" 
d="M690 701c5 -19 -6 -39 -25 -44c-59 -15 -132 -15 -217 -15c-11 1 -22 1 -32 1c-29 -85 -58 -163 -84 -232c-40 -107 -75 -199 -95 -280c-22 -83 -26 -146 -13 -197c5 -19 -7 -38 -26 -43c-3 -1 -6 -1 -9 -1c-15 0 -30 11 -34 27c-16 63 -12 137 13 232
c21 84 56 178 97 287c23 62 49 132 75 206c-78 -2 -161 -9 -246 -30c-3 -1 -6 -1 -9 -1c-15 0 -30 11 -34 27c-5 19 7 38 26 43c134 33 260 33 371 32c80 0 149 0 199 13c19 5 38 -6 43 -25z" />
    <glyph glyph-name="U" unicode="U" horiz-adv-x="750" 
d="M611 -111c15 0 32 2 50 7c19 6 30 25 24 44c-5 19 -24 30 -43 25c-42 -12 -54 1 -58 5c-7 7 -19 29 -18 85c1 44 10 102 26 172c2 7 3 14 5 21l9 28c31 98 50 160 64 205c26 82 33 107 62 190c7 18 -3 38 -21 45c-19 6 -39 -3 -46 -22c-49 -136 -103 -293 -136 -426
c-39 -120 -73 -194 -108 -236c-34 -41 -70 -56 -130 -55c-30 1 -41 12 -46 20c-10 15 -20 47 -8 120c10 59 32 135 69 232c30 79 46 147 49 203c2 54 -8 97 -30 128c-25 34 -63 52 -108 50c-29 -1 -62 -13 -91 -33c-30 -21 -54 -49 -69 -80c-28 -58 -21 -120 19 -175
c12 -15 34 -19 50 -7c15 12 19 34 7 50c-24 33 -29 67 -12 101c21 44 68 72 99 73c21 1 36 -6 47 -21c14 -20 40 -85 -28 -264c-38 -101 -61 -182 -72 -246c-13 -77 -6 -133 19 -171c15 -22 46 -50 104 -51c81 -2 138 23 186 81c7 8 14 18 20 28c4 -41 16 -72 36 -94
c15 -16 35 -26 58 -30c6 -1 13 -2 21 -2z" />
    <glyph glyph-name="Uacute" unicode="&#xda;" horiz-adv-x="750" 
d="M527 831c0 -9 9 -26 24 -33c16 21 52 58 109 113c-3 23 -13 35 -30 35c-37 0 -103 -88 -103 -115zM611 -111c15 0 32 2 50 7c19 6 30 25 24 44c-5 19 -24 30 -43 25c-42 -12 -54 1 -58 5c-7 7 -19 29 -18 85c1 44 10 102 26 172c2 7 3 14 5 21l9 28c31 98 50 160 64 205
c26 82 33 107 62 190c7 18 -3 38 -21 45c-19 6 -39 -3 -46 -22c-49 -136 -103 -293 -136 -426c-39 -120 -73 -194 -108 -236c-34 -41 -70 -56 -130 -55c-30 1 -41 12 -46 20c-10 15 -20 47 -8 120c10 59 32 135 69 232c30 79 46 147 49 203c2 54 -8 97 -30 128
c-25 34 -63 52 -108 50c-29 -1 -62 -13 -91 -33c-30 -21 -54 -49 -69 -80c-28 -58 -21 -120 19 -175c12 -15 34 -19 50 -7c15 12 19 34 7 50c-24 33 -29 67 -12 101c21 44 68 72 99 73c21 1 36 -6 47 -21c14 -20 40 -85 -28 -264c-38 -101 -61 -182 -72 -246
c-13 -77 -6 -133 19 -171c15 -22 46 -50 104 -51c81 -2 138 23 186 81c7 8 14 18 20 28c4 -41 16 -72 36 -94c15 -16 35 -26 58 -30c6 -1 13 -2 21 -2z" />
    <glyph glyph-name="Ucircumflex" unicode="&#xdb;" horiz-adv-x="750" 
d="M447 852c0 -13 4 -23 13 -28c37 25 71 42 102 52c33 -29 57 -57 72 -83c17 9 25 22 25 39c0 40 -63 106 -96 106c-35 0 -116 -50 -116 -86zM611 -111c15 0 32 2 50 7c19 6 30 25 24 44c-5 19 -24 30 -43 25c-42 -12 -54 1 -58 5c-7 7 -19 29 -18 85c1 44 10 102 26 172
c2 7 3 14 5 21l9 28c31 98 50 160 64 205c26 82 33 107 62 190c7 18 -3 38 -21 45c-19 6 -39 -3 -46 -22c-49 -136 -103 -293 -136 -426c-39 -120 -73 -194 -108 -236c-34 -41 -70 -56 -130 -55c-30 1 -41 12 -46 20c-10 15 -20 47 -8 120c10 59 32 135 69 232
c30 79 46 147 49 203c2 54 -8 97 -30 128c-25 34 -63 52 -108 50c-29 -1 -62 -13 -91 -33c-30 -21 -54 -49 -69 -80c-28 -58 -21 -120 19 -175c12 -15 34 -19 50 -7c15 12 19 34 7 50c-24 33 -29 67 -12 101c21 44 68 72 99 73c21 1 36 -6 47 -21c14 -20 40 -85 -28 -264
c-38 -101 -61 -182 -72 -246c-13 -77 -6 -133 19 -171c15 -22 46 -50 104 -51c81 -2 138 23 186 81c7 8 14 18 20 28c4 -41 16 -72 36 -94c15 -16 35 -26 58 -30c6 -1 13 -2 21 -2z" />
    <glyph glyph-name="Udieresis" unicode="&#xdc;" horiz-adv-x="750" 
d="M428 857c0 -23 19 -34 43 -34c29 0 60 26 60 50c0 21 -12 32 -36 32c-31 0 -67 -24 -67 -48zM573 837c0 -21 19 -34 42 -34c31 0 62 25 62 49c0 22 -12 33 -37 33c-32 0 -67 -23 -67 -48zM611 -111c15 0 32 2 50 7c19 6 30 25 24 44c-5 19 -24 30 -43 25
c-42 -12 -54 1 -58 5c-7 7 -19 29 -18 85c1 44 10 102 26 172c2 7 3 14 5 21l9 28c31 98 50 160 64 205c26 82 33 107 62 190c7 18 -3 38 -21 45c-19 6 -39 -3 -46 -22c-49 -136 -103 -293 -136 -426c-39 -120 -73 -194 -108 -236c-34 -41 -70 -56 -130 -55
c-30 1 -41 12 -46 20c-10 15 -20 47 -8 120c10 59 32 135 69 232c30 79 46 147 49 203c2 54 -8 97 -30 128c-25 34 -63 52 -108 50c-29 -1 -62 -13 -91 -33c-30 -21 -54 -49 -69 -80c-28 -58 -21 -120 19 -175c12 -15 34 -19 50 -7c15 12 19 34 7 50c-24 33 -29 67 -12 101
c21 44 68 72 99 73c21 1 36 -6 47 -21c14 -20 40 -85 -28 -264c-38 -101 -61 -182 -72 -246c-13 -77 -6 -133 19 -171c15 -22 46 -50 104 -51c81 -2 138 23 186 81c7 8 14 18 20 28c4 -41 16 -72 36 -94c15 -16 35 -26 58 -30c6 -1 13 -2 21 -2z" />
    <glyph glyph-name="Ugrave" unicode="&#xd9;" horiz-adv-x="750" 
d="M422 907c45 -35 84 -71 117 -110c15 7 25 24 25 36c0 28 -73 113 -110 113c-16 0 -31 -14 -32 -39zM611 -111c15 0 32 2 50 7c19 6 30 25 24 44c-5 19 -24 30 -43 25c-42 -12 -54 1 -58 5c-7 7 -19 29 -18 85c1 44 10 102 26 172c2 7 3 14 5 21l9 28c31 98 50 160 64 205
c26 82 33 107 62 190c7 18 -3 38 -21 45c-19 6 -39 -3 -46 -22c-49 -136 -103 -293 -136 -426c-39 -120 -73 -194 -108 -236c-34 -41 -70 -56 -130 -55c-30 1 -41 12 -46 20c-10 15 -20 47 -8 120c10 59 32 135 69 232c30 79 46 147 49 203c2 54 -8 97 -30 128
c-25 34 -63 52 -108 50c-29 -1 -62 -13 -91 -33c-30 -21 -54 -49 -69 -80c-28 -58 -21 -120 19 -175c12 -15 34 -19 50 -7c15 12 19 34 7 50c-24 33 -29 67 -12 101c21 44 68 72 99 73c21 1 36 -6 47 -21c14 -20 40 -85 -28 -264c-38 -101 -61 -182 -72 -246
c-13 -77 -6 -133 19 -171c15 -22 46 -50 104 -51c81 -2 138 23 186 81c7 8 14 18 20 28c4 -41 16 -72 36 -94c15 -16 35 -26 58 -30c6 -1 13 -2 21 -2z" />
    <glyph glyph-name="V" unicode="V" horiz-adv-x="669" 
d="M241 -110h2c25 0 82 14 152 67c38 29 74 65 107 108c39 51 74 111 104 178c79 181 102 320 65 401c-18 40 -46 56 -67 63c-19 6 -39 -5 -44 -23c-6 -19 4 -39 23 -45c9 -3 17 -11 23 -25c13 -28 33 -119 -65 -342c-62 -141 -136 -217 -186 -256
c-59 -45 -103 -55 -111 -55c-13 1 -15 4 -16 5c-3 4 -15 29 18 123c3 10 7 21 11 32c55 156 117 334 90 461c-14 67 -43 112 -85 132c-37 18 -82 15 -130 -9c-27 -14 -52 -39 -72 -72c-20 -34 -31 -71 -30 -105c1 -51 27 -90 73 -112c18 -8 39 0 47 18s1 39 -17 47
c-21 10 -32 25 -32 48c-1 45 34 98 63 112c19 10 46 19 68 9c20 -10 36 -39 46 -83c23 -108 -36 -275 -88 -423c-4 -11 -8 -21 -11 -32c-32 -90 -35 -149 -10 -186c15 -22 39 -34 72 -36z" />
    <glyph glyph-name="W" unicode="W" horiz-adv-x="953" 
d="M241 -100h2c25 0 82 14 152 67c21 16 42 35 62 55c-6 -36 -2 -62 10 -82c8 -14 25 -30 55 -34c5 0 10 -1 15 -1c56 0 120 34 187 100c63 61 122 145 168 236c43 86 70 171 77 245c5 42 3 81 -5 115c-9 38 -26 70 -50 96c-14 15 -36 15 -50 2c-15 -13 -16 -36 -2 -50
c31 -34 44 -86 37 -156c-7 -65 -31 -142 -70 -220c-42 -83 -98 -162 -155 -218c-55 -54 -107 -82 -144 -78h-3c-1 3 -7 19 9 77c13 46 35 104 59 165c14 36 29 74 42 111c1 2 1 4 2 5c7 21 -6 39 -21 45c-18 7 -37 -1 -45 -19c0 0 -1 -1 -1 -2s-1 -2 -2 -4l-5 -14
c-7 -18 -18 -46 -24 -59c-62 -141 -136 -217 -186 -256c-59 -45 -103 -55 -111 -55c-13 1 -15 4 -16 5c-3 4 -15 29 18 123c3 10 7 21 11 32c55 156 117 334 90 461c-14 67 -43 112 -85 132c-37 18 -82 15 -130 -9c-27 -14 -52 -39 -72 -72c-20 -34 -31 -71 -30 -105
c1 -51 27 -90 73 -112c18 -8 39 0 47 18s1 39 -17 47c-21 10 -32 25 -32 48c-1 45 34 98 63 112c19 10 46 19 68 9c20 -10 36 -39 46 -83c23 -108 -36 -275 -88 -423c-4 -11 -8 -21 -11 -32c-32 -90 -35 -149 -10 -186c15 -22 39 -34 72 -36z" />
    <glyph glyph-name="X" unicode="X" horiz-adv-x="706" 
d="M706 188c18 -8 27 -29 19 -47c-1 -3 -29 -67 -71 -129c-25 -37 -50 -67 -74 -87c-27 -22 -55 -33 -81 -33c-9 0 -17 1 -25 3c-42 12 -74 44 -98 97c-18 40 -31 92 -39 157c-1 5 -2 11 -2 16c-80 -97 -164 -187 -255 -275c-7 -7 -16 -10 -24 -10c-10 0 -19 4 -26 11
c-14 14 -13 36 1 50c106 103 204 211 296 327c-4 77 -2 151 -2 203c1 31 1 57 1 68c-11 114 -73 114 -93 114c-21 0 -60 -16 -79 -51c-18 -32 -12 -73 16 -118c10 -17 5 -39 -12 -49c-16 -10 -38 -5 -49 12c-22 35 -34 70 -36 103c-2 31 5 61 19 87c32 57 95 87 141 87
c42 0 80 -14 107 -41c32 -31 51 -78 56 -138c2 -14 1 -39 0 -76c0 -31 -1 -69 0 -110c73 101 144 209 212 326c10 17 32 22 49 13c17 -10 22 -32 13 -49c-87 -147 -175 -279 -271 -403c2 -30 4 -59 8 -88c15 -114 46 -183 86 -195c13 -3 30 8 42 17c19 16 39 40 60 72
c38 56 65 117 65 117c8 18 29 27 46 19z" />
    <glyph glyph-name="Y" unicode="Y" horiz-adv-x="706" 
d="M322 -200c47 0 89 17 126 50c30 27 57 66 81 119c43 92 72 216 100 336c32 137 66 279 119 374c8 14 5 32 -6 43c-12 11 -30 13 -43 5c-34 -20 -55 -72 -94 -169c-30 -77 -64 -164 -110 -233c-48 -73 -99 -109 -155 -109c-22 0 -32 9 -37 17c-21 30 -26 110 22 246
c36 99 38 169 7 213c-23 32 -60 48 -111 48c-28 0 -60 -10 -89 -29c-30 -19 -54 -45 -69 -75c-30 -59 -22 -125 22 -187c11 -15 34 -19 50 -7c15 11 19 33 7 49c-28 40 -34 78 -16 113c10 18 25 35 44 47c18 11 37 18 51 18c40 0 49 -14 53 -18c9 -13 19 -50 -16 -148
c-23 -67 -37 -127 -41 -178c-4 -57 6 -102 28 -133c21 -30 54 -47 95 -47c44 0 86 14 125 42c30 22 58 52 85 92c-25 -106 -50 -205 -85 -281c-53 -114 -107 -127 -143 -127c-55 0 -85 32 -94 61c-6 19 -2 32 1 34c16 12 20 34 8 50c-11 16 -33 19 -49 8
c-32 -23 -43 -67 -28 -114c10 -30 29 -57 55 -76c29 -22 66 -34 107 -34z" />
    <glyph glyph-name="Yacute" unicode="&#xdd;" horiz-adv-x="706" 
d="M508 831c0 -9 9 -26 24 -33c16 21 52 58 109 113c-3 23 -13 35 -30 35c-37 0 -103 -88 -103 -115zM322 -200c47 0 89 17 126 50c30 27 57 66 81 119c43 92 72 216 100 336c32 137 66 279 119 374c8 14 5 32 -6 43c-12 11 -30 13 -43 5c-34 -20 -55 -72 -94 -169
c-30 -77 -64 -164 -110 -233c-48 -73 -99 -109 -155 -109c-22 0 -32 9 -37 17c-21 30 -26 110 22 246c36 99 38 169 7 213c-23 32 -60 48 -111 48c-28 0 -60 -10 -89 -29c-30 -19 -54 -45 -69 -75c-30 -59 -22 -125 22 -187c11 -15 34 -19 50 -7c15 11 19 33 7 49
c-28 40 -34 78 -16 113c10 18 25 35 44 47c18 11 37 18 51 18c40 0 49 -14 53 -18c9 -13 19 -50 -16 -148c-23 -67 -37 -127 -41 -178c-4 -57 6 -102 28 -133c21 -30 54 -47 95 -47c44 0 86 14 125 42c30 22 58 52 85 92c-25 -106 -50 -205 -85 -281
c-53 -114 -107 -127 -143 -127c-55 0 -85 32 -94 61c-6 19 -2 32 1 34c16 12 20 34 8 50c-11 16 -33 19 -49 8c-32 -23 -43 -67 -28 -114c10 -30 29 -57 55 -76c29 -22 66 -34 107 -34z" />
    <glyph glyph-name="Ydieresis" unicode="&#x178;" horiz-adv-x="706" 
d="M399 857c0 -23 19 -34 43 -34c29 0 60 26 60 50c0 21 -12 32 -36 32c-31 0 -67 -24 -67 -48zM544 837c0 -21 19 -34 42 -34c31 0 62 25 62 49c0 22 -12 33 -37 33c-32 0 -67 -23 -67 -48zM322 -200c47 0 89 17 126 50c30 27 57 66 81 119c43 92 72 216 100 336
c32 137 66 279 119 374c8 14 5 32 -6 43c-12 11 -30 13 -43 5c-34 -20 -55 -72 -94 -169c-30 -77 -64 -164 -110 -233c-48 -73 -99 -109 -155 -109c-22 0 -32 9 -37 17c-21 30 -26 110 22 246c36 99 38 169 7 213c-23 32 -60 48 -111 48c-28 0 -60 -10 -89 -29
c-30 -19 -54 -45 -69 -75c-30 -59 -22 -125 22 -187c11 -15 34 -19 50 -7c15 11 19 33 7 49c-28 40 -34 78 -16 113c10 18 25 35 44 47c18 11 37 18 51 18c40 0 49 -14 53 -18c9 -13 19 -50 -16 -148c-23 -67 -37 -127 -41 -178c-4 -57 6 -102 28 -133c21 -30 54 -47 95 -47
c44 0 86 14 125 42c30 22 58 52 85 92c-25 -106 -50 -205 -85 -281c-53 -114 -107 -127 -143 -127c-55 0 -85 32 -94 61c-6 19 -2 32 1 34c16 12 20 34 8 50c-11 16 -33 19 -49 8c-32 -23 -43 -67 -28 -114c10 -30 29 -57 55 -76c29 -22 66 -34 107 -34z" />
    <glyph glyph-name="Z" unicode="Z" horiz-adv-x="680" 
d="M749 667c7 -18 -3 -38 -21 -45c-28 -11 -56 -17 -84 -19c-22 -44 -64 -128 -120 -223c63 -1 109 -5 113 -5c20 -2 34 -19 33 -38c-2 -20 -19 -34 -39 -33c-1 0 -67 6 -150 4c-28 -45 -58 -90 -90 -135c-37 -52 -74 -97 -108 -134l53 -15c105 -28 185 -33 239 -14
c18 7 39 -3 45 -22c6 -18 -3 -38 -22 -45c-38 -13 -83 -18 -136 -14c-43 3 -91 12 -144 26c-32 9 -63 19 -93 29c-48 -41 -92 -62 -132 -64h-8c-24 0 -46 5 -64 15c-19 10 -34 26 -43 45c-16 36 -8 79 19 107c28 29 69 36 111 18l9 -3c23 -10 55 -23 92 -37
c38 37 80 88 125 150c19 27 39 57 59 88c-49 -5 -99 -13 -140 -27c-4 -1 -8 -2 -12 -2c-14 0 -28 9 -33 24c-7 19 3 39 22 45c63 22 140 31 210 35c44 72 87 151 126 228c-54 7 -108 23 -161 39c-23 7 -47 14 -71 20c-58 16 -111 8 -138 -20c-25 -27 -20 -67 -11 -97
c6 -18 -4 -38 -23 -44c-4 -1 -7 -2 -11 -2c-15 0 -29 10 -34 25c-20 67 -11 127 28 167c45 47 123 62 207 40c25 -6 50 -14 74 -21c99 -29 193 -57 277 -25c18 7 39 -2 46 -21zM90 -9c12 1 30 5 56 22l-56 23c-3 1 -6 3 -9 4c-5 2 -12 4 -18 4c-5 0 -11 -2 -15 -6
c-7 -7 -9 -20 -5 -29c6 -12 23 -19 47 -18z" />
    <glyph glyph-name="Zcaron" unicode="&#x17d;" horiz-adv-x="680" 
d="M445 906c0 -44 68 -116 104 -116s123 55 123 94c0 11 -7 19 -21 24c-24 -21 -58 -39 -102 -54c-35 31 -61 61 -77 92c-18 -9 -27 -22 -27 -40zM749 667c7 -18 -3 -38 -21 -45c-28 -11 -56 -17 -84 -19c-22 -44 -64 -128 -120 -223c63 -1 109 -5 113 -5
c20 -2 34 -19 33 -38c-2 -20 -19 -34 -39 -33c-1 0 -67 6 -150 4c-28 -45 -58 -90 -90 -135c-37 -52 -74 -97 -108 -134l53 -15c105 -28 185 -33 239 -14c18 7 39 -3 45 -22c6 -18 -3 -38 -22 -45c-38 -13 -83 -18 -136 -14c-43 3 -91 12 -144 26c-32 9 -63 19 -93 29
c-48 -41 -92 -62 -132 -64h-8c-24 0 -46 5 -64 15c-19 10 -34 26 -43 45c-16 36 -8 79 19 107c28 29 69 36 111 18l9 -3c23 -10 55 -23 92 -37c38 37 80 88 125 150c19 27 39 57 59 88c-49 -5 -99 -13 -140 -27c-4 -1 -8 -2 -12 -2c-14 0 -28 9 -33 24c-7 19 3 39 22 45
c63 22 140 31 210 35c44 72 87 151 126 228c-54 7 -108 23 -161 39c-23 7 -47 14 -71 20c-58 16 -111 8 -138 -20c-25 -27 -20 -67 -11 -97c6 -18 -4 -38 -23 -44c-4 -1 -7 -2 -11 -2c-15 0 -29 10 -34 25c-20 67 -11 127 28 167c45 47 123 62 207 40c25 -6 50 -14 74 -21
c99 -29 193 -57 277 -25c18 7 39 -2 46 -21zM90 -9c12 1 30 5 56 22l-56 23c-3 1 -6 3 -9 4c-5 2 -12 4 -18 4c-5 0 -11 -2 -15 -6c-7 -7 -9 -20 -5 -29c6 -12 23 -19 47 -18z" />
    <glyph glyph-name="F.salt" horiz-adv-x="493" 
d="M621 697c5 -19 -6 -38 -25 -44c-28 -7 -67 -3 -115 3c-37 4 -79 9 -124 9c-19 -88 -56 -186 -94 -282c55 2 108 6 146 20c19 7 39 -2 46 -21c7 -18 -2 -39 -21 -46c-56 -21 -129 -23 -200 -25c-28 -72 -54 -140 -70 -200c-18 -69 -20 -116 -6 -140c10 -17 5 -39 -12 -49
c-6 -3 -12 -5 -18 -5c-12 0 -24 6 -31 18c-46 78 -2 213 60 373c-29 -2 -55 -5 -76 -11c-4 -1 -7 -2 -10 -2c-16 0 -30 10 -34 26c-6 19 5 38 24 44c36 10 79 14 125 15c37 96 76 195 97 281c-40 -5 -80 -16 -118 -35c-5 -3 -11 -4 -16 -4c-13 0 -26 7 -32 20
c-9 17 -2 39 16 47c56 29 119 44 192 47c61 2 118 -4 164 -10c38 -4 73 -8 89 -4c18 5 38 -6 43 -25z" />
    <glyph glyph-name="M.salt" horiz-adv-x="995" 
d="M976 192c18 -9 25 -30 17 -48c-1 -2 -24 -50 -59 -102c-50 -74 -99 -118 -147 -132c-11 -3 -22 -5 -32 -5c-21 0 -41 6 -59 18c-34 21 -57 57 -67 103c-7 34 -7 74 0 120c7 44 21 94 41 147c22 59 52 124 90 191l-5 -5c-88 -100 -180 -256 -275 -463
c-7 -16 -25 -24 -41 -20c-17 5 -28 21 -26 38c15 159 17 291 7 393c-9 -31 -19 -63 -31 -96c-25 -67 -55 -132 -88 -188c-38 -66 -79 -120 -122 -159c-64 -59 -124 -78 -175 -78c-38 0 -71 11 -97 24c-18 9 -25 30 -16 48c9 17 30 24 48 15c22 -11 43 -16 65 -16
c42 0 84 20 127 60c71 64 141 181 191 319c21 57 38 114 46 162c12 65 5 84 5 85l-3 10c-6 11 -12 19 -18 25c-16 16 -33 24 -52 23c-18 -1 -51 -21 -63 -52c-11 -27 -4 -54 21 -80c13 -14 12 -37 -2 -50c-14 -14 -37 -13 -50 1c-23 25 -37 51 -43 79c-5 26 -2 52 8 76
c21 53 75 95 125 97c28 2 69 -5 107 -45c40 -41 67 -109 81 -203c12 -75 16 -166 12 -274c70 133 139 239 206 316c78 89 134 117 164 132c4 1 7 3 9 4c15 8 32 5 43 -8c11 -12 12 -30 3 -43c-161 -238 -246 -456 -222 -571c6 -27 17 -46 35 -57c10 -7 21 -8 33 -5
c30 9 69 46 108 103c32 48 54 93 54 94c8 18 29 25 47 17z" />
    <glyph glyph-name="U.salt" horiz-adv-x="779" 
d="M611 -111c15 0 32 2 50 7c19 6 30 25 24 44c-5 19 -24 30 -43 25c-42 -12 -54 1 -58 5c-7 7 -19 29 -18 85c1 44 10 102 26 172c2 7 3 14 5 21l9 28c31 98 50 160 64 205c26 82 33 107 62 190c7 18 -3 38 -21 45c-19 6 -39 -3 -46 -22c-49 -136 -103 -293 -136 -426
c-39 -120 -73 -194 -108 -236c-34 -41 -70 -56 -130 -55c-30 1 -41 12 -46 20c-10 15 -20 47 -8 120c10 59 32 135 69 232c30 79 46 147 49 203c2 54 -8 97 -30 128c-25 34 -63 52 -108 50c-29 -1 -62 -13 -91 -33c-30 -21 -54 -49 -69 -80c-28 -58 -21 -120 19 -175
c12 -15 34 -19 50 -7c15 12 19 34 7 50c-24 33 -29 67 -12 101c21 44 68 72 99 73c21 1 36 -6 47 -21c14 -20 40 -85 -28 -264c-38 -101 -61 -182 -72 -246c-13 -77 -6 -133 19 -171c15 -22 46 -50 104 -51c81 -2 138 23 186 81c7 8 14 18 20 28c4 -41 16 -72 36 -94
c15 -16 35 -26 58 -30c6 -1 13 -2 21 -2z" />
    <glyph glyph-name="a" unicode="a" horiz-adv-x="434" 
d="M73 -62h5c45 2 91 29 132 62c2 -7 5 -14 8 -20c10 -15 30 -32 71 -32c40 0 79 15 114 47c34 30 67 74 99 135c9 17 3 39 -15 48c-17 9 -39 3 -48 -15c-51 -97 -100 -144 -150 -144c-6 0 -10 0 -11 1c-1 3 -1 11 4 31c3 10 8 21 12 32c10 11 17 19 21 25
c32 41 41 67 31 89c-5 8 -12 14 -20 18c17 -1 33 11 36 28c8 39 -5 72 -35 91c-46 29 -121 18 -182 -26c-36 -26 -76 -67 -108 -109c-27 -37 -61 -91 -66 -144c-4 -33 6 -62 26 -84s47 -33 76 -33zM266 279c10 0 17 -2 22 -5c3 -1 7 -4 4 -17c-3 -17 7 -34 22 -40h-3
c-15 0 -28 -8 -41 -25c-8 -10 -16 -25 -23 -41l-6 -13c-3 -6 -5 -11 -8 -17c-52 -58 -116 -110 -158 -112c-11 -1 -19 2 -26 10c-4 5 -9 12 -8 30c6 63 89 160 146 201c29 21 58 29 79 29z" />
    <glyph glyph-name="aacute" unicode="&#xe1;" horiz-adv-x="444" 
d="M274 443c0 -9 9 -26 24 -33c16 21 52 58 109 113c-3 23 -13 35 -30 35c-37 0 -103 -88 -103 -115zM73 -62h5c45 2 91 29 132 62c2 -7 5 -14 8 -20c10 -15 30 -32 71 -32c40 0 79 15 114 47c34 30 67 74 99 135c9 17 3 39 -15 48c-17 9 -39 3 -48 -15
c-51 -97 -100 -144 -150 -144c-6 0 -10 0 -11 1c-1 3 -1 11 4 31c3 10 8 21 12 32c10 11 17 19 21 25c32 41 41 67 31 89c-5 8 -12 14 -20 18c17 -1 33 11 36 28c8 39 -5 72 -35 91c-46 29 -121 18 -182 -26c-36 -26 -76 -67 -108 -109c-27 -37 -61 -91 -66 -144
c-4 -33 6 -62 26 -84s47 -33 76 -33zM266 279c10 0 17 -2 22 -5c3 -1 7 -4 4 -17c-3 -17 7 -34 22 -40h-3c-15 0 -28 -8 -41 -25c-8 -10 -16 -25 -23 -41l-6 -13c-3 -6 -5 -11 -8 -17c-52 -58 -116 -110 -158 -112c-11 -1 -19 2 -26 10c-4 5 -9 12 -8 30
c6 63 89 160 146 201c29 21 58 29 79 29z" />
    <glyph glyph-name="acircumflex" unicode="&#xe2;" horiz-adv-x="444" 
d="M234 464c0 -13 4 -23 13 -28c37 25 71 42 102 52c33 -29 57 -57 72 -83c17 9 25 22 25 39c0 40 -63 106 -96 106c-35 0 -116 -50 -116 -86zM73 -62h5c45 2 91 29 132 62c2 -7 5 -14 8 -20c10 -15 30 -32 71 -32c40 0 79 15 114 47c34 30 67 74 99 135c9 17 3 39 -15 48
c-17 9 -39 3 -48 -15c-51 -97 -100 -144 -150 -144c-6 0 -10 0 -11 1c-1 3 -1 11 4 31c3 10 8 21 12 32c10 11 17 19 21 25c32 41 41 67 31 89c-5 8 -12 14 -20 18c17 -1 33 11 36 28c8 39 -5 72 -35 91c-46 29 -121 18 -182 -26c-36 -26 -76 -67 -108 -109
c-27 -37 -61 -91 -66 -144c-4 -33 6 -62 26 -84s47 -33 76 -33zM266 279c10 0 17 -2 22 -5c3 -1 7 -4 4 -17c-3 -17 7 -34 22 -40h-3c-15 0 -28 -8 -41 -25c-8 -10 -16 -25 -23 -41l-6 -13c-3 -6 -5 -11 -8 -17c-52 -58 -116 -110 -158 -112c-11 -1 -19 2 -26 10
c-4 5 -9 12 -8 30c6 63 89 160 146 201c29 21 58 29 79 29z" />
    <glyph glyph-name="adieresis" unicode="&#xe4;" horiz-adv-x="444" 
d="M216 469c0 -23 19 -34 43 -34c29 0 60 26 60 50c0 21 -12 32 -36 32c-31 0 -67 -24 -67 -48zM361 449c0 -21 19 -34 42 -34c31 0 62 25 62 49c0 22 -12 33 -37 33c-32 0 -67 -23 -67 -48zM73 -62h5c45 2 91 29 132 62c2 -7 5 -14 8 -20c10 -15 30 -32 71 -32
c40 0 79 15 114 47c34 30 67 74 99 135c9 17 3 39 -15 48c-17 9 -39 3 -48 -15c-51 -97 -100 -144 -150 -144c-6 0 -10 0 -11 1c-1 3 -1 11 4 31c3 10 8 21 12 32c10 11 17 19 21 25c32 41 41 67 31 89c-5 8 -12 14 -20 18c17 -1 33 11 36 28c8 39 -5 72 -35 91
c-46 29 -121 18 -182 -26c-36 -26 -76 -67 -108 -109c-27 -37 -61 -91 -66 -144c-4 -33 6 -62 26 -84s47 -33 76 -33zM266 279c10 0 17 -2 22 -5c3 -1 7 -4 4 -17c-3 -17 7 -34 22 -40h-3c-15 0 -28 -8 -41 -25c-8 -10 -16 -25 -23 -41l-6 -13c-3 -6 -5 -11 -8 -17
c-52 -58 -116 -110 -158 -112c-11 -1 -19 2 -26 10c-4 5 -9 12 -8 30c6 63 89 160 146 201c29 21 58 29 79 29z" />
    <glyph glyph-name="agrave" unicode="&#xe0;" horiz-adv-x="444" 
d="M179 519c45 -35 84 -71 117 -110c15 7 25 24 25 36c0 28 -73 113 -110 113c-16 0 -31 -14 -32 -39zM73 -62h5c45 2 91 29 132 62c2 -7 5 -14 8 -20c10 -15 30 -32 71 -32c40 0 79 15 114 47c34 30 67 74 99 135c9 17 3 39 -15 48c-17 9 -39 3 -48 -15
c-51 -97 -100 -144 -150 -144c-6 0 -10 0 -11 1c-1 3 -1 11 4 31c3 10 8 21 12 32c10 11 17 19 21 25c32 41 41 67 31 89c-5 8 -12 14 -20 18c17 -1 33 11 36 28c8 39 -5 72 -35 91c-46 29 -121 18 -182 -26c-36 -26 -76 -67 -108 -109c-27 -37 -61 -91 -66 -144
c-4 -33 6 -62 26 -84s47 -33 76 -33zM266 279c10 0 17 -2 22 -5c3 -1 7 -4 4 -17c-3 -17 7 -34 22 -40h-3c-15 0 -28 -8 -41 -25c-8 -10 -16 -25 -23 -41l-6 -13c-3 -6 -5 -11 -8 -17c-52 -58 -116 -110 -158 -112c-11 -1 -19 2 -26 10c-4 5 -9 12 -8 30
c6 63 89 160 146 201c29 21 58 29 79 29z" />
    <glyph glyph-name="aring" unicode="&#xe5;" horiz-adv-x="444" 
d="M375 415c21 10 37 23 47 38l2 3c17 26 44 65 36 105c-3 18 -14 33 -30 43c-13 9 -29 14 -47 14c-44 0 -91 -28 -96 -31l-3 -2c-33 -25 -52 -57 -55 -91c-2 -28 8 -54 27 -73c15 -15 34 -22 57 -22zM306 471c-4 5 -6 11 -6 18c1 13 10 26 25 38c12 7 39 20 58 20
c4 0 6 -1 7 -2c0 -2 -1 -7 -5 -17c-6 -11 -14 -23 -20 -33l-2 -3c-5 -7 -30 -22 -50 -22c-4 0 -6 1 -7 1zM73 -62h5c45 2 91 29 132 62c2 -7 5 -14 8 -20c10 -15 30 -32 71 -32c40 0 79 15 114 47c34 30 67 74 99 135c9 17 3 39 -15 48c-17 9 -39 3 -48 -15
c-51 -97 -100 -144 -150 -144c-6 0 -10 0 -11 1c-1 3 -1 11 4 31c3 10 8 21 12 32c10 11 17 19 21 25c32 41 41 67 31 89c-5 8 -12 14 -20 18c17 -1 33 11 36 28c8 39 -5 72 -35 91c-46 29 -121 18 -182 -26c-36 -26 -76 -67 -108 -109c-27 -37 -61 -91 -66 -144
c-4 -33 6 -62 26 -84s47 -33 76 -33zM266 279c10 0 17 -2 22 -5c3 -1 7 -4 4 -17c-3 -17 7 -34 22 -40h-3c-15 0 -28 -8 -41 -25c-8 -10 -16 -25 -23 -41l-6 -13c-3 -6 -5 -11 -8 -17c-52 -58 -116 -110 -158 -112c-11 -1 -19 2 -26 10c-4 5 -9 12 -8 30
c6 63 89 160 146 201c29 21 58 29 79 29z" />
    <glyph glyph-name="atilde" unicode="&#xe3;" horiz-adv-x="444" 
d="M381 380c25 0 53 4 86 17c19 6 28 27 21 45c-6 19 -27 28 -45 21c-61 -22 -93 -10 -129 4c-39 14 -83 30 -150 8c-18 -7 -28 -27 -22 -45c6 -19 26 -29 45 -23c43 15 68 6 102 -7c25 -9 54 -20 92 -20zM73 -62h5c45 2 91 29 132 62c2 -7 5 -14 8 -20
c10 -15 30 -32 71 -32c40 0 79 15 114 47c34 30 67 74 99 135c9 17 3 39 -15 48c-17 9 -39 3 -48 -15c-51 -97 -100 -144 -150 -144c-6 0 -10 0 -11 1c-1 3 -1 11 4 31c3 10 8 21 12 32c10 11 17 19 21 25c32 41 41 67 31 89c-5 8 -12 14 -20 18c17 -1 33 11 36 28
c8 39 -5 72 -35 91c-46 29 -121 18 -182 -26c-36 -26 -76 -67 -108 -109c-27 -37 -61 -91 -66 -144c-4 -33 6 -62 26 -84s47 -33 76 -33zM266 279c10 0 17 -2 22 -5c3 -1 7 -4 4 -17c-3 -17 7 -34 22 -40h-3c-15 0 -28 -8 -41 -25c-8 -10 -16 -25 -23 -41l-6 -13
c-3 -6 -5 -11 -8 -17c-52 -58 -116 -110 -158 -112c-11 -1 -19 2 -26 10c-4 5 -9 12 -8 30c6 63 89 160 146 201c29 21 58 29 79 29z" />
    <glyph glyph-name="ae" unicode="&#xe6;" horiz-adv-x="556" 
d="M577 175c17 -10 23 -32 13 -49c-39 -66 -86 -117 -137 -147c-34 -20 -69 -30 -102 -30c-15 0 -29 2 -42 6c-33 9 -60 30 -79 59c-5 9 -10 19 -14 29c-37 -41 -70 -69 -99 -85c-24 -13 -44 -18 -60 -18s-28 4 -38 9c-55 31 -56 121 -40 176c10 32 34 73 63 109
c26 31 67 73 121 97c55 25 112 26 165 1c2 -1 5 -2 7 -4c21 14 43 24 65 30c24 7 46 10 65 7c31 -4 48 -20 57 -33c16 -22 19 -49 7 -76c-19 -40 -66 -69 -102 -87c-45 -22 -99 -37 -146 -42h-5v-11c-2 -48 18 -83 53 -93c51 -15 132 23 199 139c10 17 32 23 49 13zM420 290
c-37 -11 -85 -42 -116 -88c31 7 63 17 92 31c42 21 62 41 68 53c2 4 1 4 0 6c-1 1 -6 3 -15 3c-7 0 -17 -1 -29 -5zM205 120c2 57 25 111 67 157c-26 5 -52 2 -80 -11c-71 -31 -131 -116 -145 -162c-5 -18 -7 -42 -5 -61c2 -20 8 -29 12 -31c2 -2 11 -2 28 8
c18 10 49 33 96 87c7 8 17 13 27 13z" />
    <glyph glyph-name="b" unicode="b" horiz-adv-x="399" 
d="M108 -80c78 0 135 55 179 110c8 0 18 1 27 2c61 8 125 47 160 101c11 16 6 38 -10 49c-17 11 -39 7 -49 -10c-20 -28 -49 -51 -82 -62c20 49 19 92 -2 122c-23 31 -56 45 -90 38c-39 -7 -74 -43 -86 -90c-11 -46 4 -92 40 -123l14 -9c-7 -7 -13 -13 -20 -19
c-49 -41 -107 -53 -132 -16c-27 38 -11 115 10 177l15 40c72 19 134 59 183 121c36 45 65 101 87 166c14 43 21 82 19 114c-2 50 -23 70 -40 79c-12 6 -36 13 -67 -6c-18 -11 -36 -28 -53 -53c-74 -105 -159 -295 -210 -436c-38 -105 -39 -191 -2 -243
c17 -24 49 -52 109 -52zM298 642c2 -5 3 -13 2 -24c0 -15 -3 -41 -16 -78c-36 -109 -91 -183 -166 -221c46 108 102 221 151 291c13 19 23 28 29 32zM255 201h2c4 0 9 -1 17 -12c5 -7 5 -31 -14 -70c-3 -5 -5 -9 -8 -13c-5 1 -9 4 -11 6c-20 17 -20 37 -17 51
c5 21 20 36 31 38z" />
    <glyph glyph-name="c" unicode="c" horiz-adv-x="303" 
d="M118 -76c55 0 108 19 154 56c45 36 82 87 110 152c7 18 -1 39 -19 46c-18 8 -39 0 -47 -18c-44 -105 -117 -165 -198 -165c-17 0 -41 12 -54 39c-24 47 -2 121 58 201c38 50 71 63 89 58c12 -3 19 -15 20 -25c1 -8 -1 -23 -22 -34c-17 -9 -24 -31 -15 -48
c10 -17 31 -24 48 -15c21 11 38 27 48 46c10 18 14 38 12 59c-3 19 -10 37 -22 53c-13 16 -31 27 -50 32c-26 8 -55 4 -83 -10s-55 -39 -81 -73c-107 -140 -87 -233 -65 -276c12 -24 29 -44 51 -58c20 -13 44 -20 66 -20z" />
    <glyph glyph-name="ccedilla" unicode="&#xe7;" horiz-adv-x="333" 
d="M396 185c16 -12 20 -34 8 -50c-51 -70 -101 -123 -147 -156c-6 -5 -12 -9 -18 -13c-1 -9 -5 -18 -13 -25c-10 -9 -19 -17 -27 -25h4c38 -2 67 -17 80 -41c12 -22 9 -49 -8 -73c-14 -20 -37 -39 -70 -57c-34 -18 -73 -37 -106 -37c-15 0 -30 4 -42 14
c-24 20 -23 55 -15 78l60 -21c7 1 26 5 68 28c29 16 41 28 46 35c-4 1 -12 3 -22 3c-19 -1 -39 -6 -58 -16c-12 -7 -26 -6 -37 2s-17 22 -15 35c2 7 7 30 34 65c-33 4 -63 20 -86 46c-25 30 -36 79 -31 133c4 36 15 73 33 106c19 38 46 70 80 96c91 71 142 42 159 26
c19 -17 29 -43 27 -73c-1 -26 -10 -53 -26 -80c-11 -16 -33 -21 -49 -11c-17 10 -22 32 -12 49c21 33 17 58 13 62s-28 3 -69 -29c-47 -37 -79 -94 -85 -153c-4 -41 5 -69 15 -80c12 -15 29 -22 48 -22c32 1 101 26 212 176c11 16 34 19 49 8z" />
    <glyph glyph-name="d" unicode="d" horiz-adv-x="471" 
d="M86 -45c8 0 16 1 24 3c40 9 81 39 127 93c9 10 18 22 27 34c-2 -39 3 -68 16 -89c14 -22 38 -35 66 -35c42 0 76 13 107 39s60 67 93 128c9 18 2 39 -15 48s-39 3 -48 -15c-63 -119 -101 -129 -137 -129c-5 0 -5 1 -6 2c-5 7 -23 53 50 252c56 104 104 210 132 272
c12 24 20 44 25 53c9 17 15 32 19 44c5 14 8 32 -2 48c-8 11 -21 18 -35 16c-19 -1 -31 -16 -38 -27c-7 -10 -14 -23 -21 -39l-13 -28c-25 -54 -74 -159 -117 -269c-1 0 -2 1 -3 2c-46 29 -126 16 -190 -31c-65 -47 -160 -166 -163 -259c-2 -45 17 -72 34 -86
c20 -18 43 -27 68 -27zM277 302c11 0 18 -2 22 -4c1 -1 4 -3 2 -12c-1 -5 -1 -10 0 -14l-11 -18c-107 -183 -168 -221 -195 -227c-12 -2 -21 0 -31 9c-4 4 -10 11 -9 29c1 28 18 67 46 109c26 39 59 75 87 95c22 16 46 27 69 31c8 2 14 2 20 2z" />
    <glyph glyph-name="eth" unicode="&#xf0;" horiz-adv-x="488" 
d="M527 602c14 -14 14 -36 0 -50c-26 -26 -72 -37 -128 -46c1 -10 1 -19 1 -29c1 -96 -31 -225 -83 -402c-12 -40 -6 -52 -5 -53c2 -1 15 -3 40 8c23 11 48 29 67 51c20 22 33 45 36 66c2 20 20 33 40 30c19 -3 33 -21 30 -40c-7 -48 -37 -87 -61 -112
c-29 -30 -66 -55 -101 -67c-17 -6 -32 -8 -45 -8c-28 0 -46 12 -55 21c-25 24 -31 63 -17 116c-14 -18 -30 -38 -47 -58c-29 -34 -61 -57 -93 -68c-13 -5 -27 -7 -39 -7c-20 0 -38 5 -53 15c-27 19 -43 52 -44 92c-1 38 11 82 35 128c29 54 63 99 98 130c39 35 81 54 120 54
c28 0 54 -9 77 -26c5 -3 9 -6 13 -10c11 54 17 100 16 139v18c-17 -3 -33 -6 -47 -10c-30 -7 -41 -14 -45 -17c-7 -6 -15 -9 -23 -9c-10 0 -20 4 -27 12c-13 14 -11 37 3 50c27 23 72 34 124 43c-13 33 -34 63 -66 98c-14 14 -13 37 2 50c14 13 36 13 50 -2
c34 -37 58 -70 74 -105c4 -9 8 -19 11 -29c18 3 36 7 51 11c30 7 39 14 41 16c14 14 36 14 50 0zM145 75c72 84 117 153 139 188c-18 26 -38 39 -61 39c-22 0 -47 -13 -73 -36c-29 -26 -57 -64 -82 -110c-23 -44 -27 -75 -27 -93c0 -17 5 -30 13 -35c15 -10 52 3 91 47z" />
    <glyph glyph-name="e" unicode="e" horiz-adv-x="311" 
d="M127 -56c45 0 97 16 141 44c55 34 97 84 123 145c7 18 -1 39 -19 46c-18 8 -39 -1 -47 -19c-45 -106 -143 -145 -198 -145c-27 0 -62 12 -75 37c-5 9 -7 20 -6 32c214 40 263 125 273 173c4 20 3 40 -4 57c-6 18 -17 33 -32 43c-9 6 -45 26 -99 10
c-48 -15 -94 -53 -138 -114c-35 -48 -57 -93 -66 -132s-6 -73 9 -102c28 -55 92 -75 138 -75zM225 302c9 0 16 -2 19 -4s8 -12 5 -26c-7 -36 -58 -81 -177 -110c9 16 19 32 32 50c43 60 78 80 100 87c8 2 15 3 21 3z" />
    <glyph glyph-name="eacute" unicode="&#xe9;" horiz-adv-x="341" 
d="M273 443c0 -9 9 -26 24 -33c16 21 52 58 109 113c-3 23 -13 35 -30 35c-37 0 -103 -88 -103 -115zM127 -56c45 0 97 16 141 44c55 34 97 84 123 145c7 18 -1 39 -19 46c-18 8 -39 -1 -47 -19c-45 -106 -143 -145 -198 -145c-27 0 -62 12 -75 37c-5 9 -7 20 -6 32
c214 40 263 125 273 173c4 20 3 40 -4 57c-6 18 -17 33 -32 43c-9 6 -45 26 -99 10c-48 -15 -94 -53 -138 -114c-35 -48 -57 -93 -66 -132s-6 -73 9 -102c28 -55 92 -75 138 -75zM225 302c9 0 16 -2 19 -4s8 -12 5 -26c-7 -36 -58 -81 -177 -110c9 16 19 32 32 50
c43 60 78 80 100 87c8 2 15 3 21 3z" />
    <glyph glyph-name="ecircumflex" unicode="&#xea;" horiz-adv-x="341" 
d="M193 464c0 -13 4 -23 13 -28c37 25 71 42 102 52c33 -29 57 -57 72 -83c17 9 25 22 25 39c0 40 -63 106 -96 106c-35 0 -116 -50 -116 -86zM127 -56c45 0 97 16 141 44c55 34 97 84 123 145c7 18 -1 39 -19 46c-18 8 -39 -1 -47 -19c-45 -106 -143 -145 -198 -145
c-27 0 -62 12 -75 37c-5 9 -7 20 -6 32c214 40 263 125 273 173c4 20 3 40 -4 57c-6 18 -17 33 -32 43c-9 6 -45 26 -99 10c-48 -15 -94 -53 -138 -114c-35 -48 -57 -93 -66 -132s-6 -73 9 -102c28 -55 92 -75 138 -75zM225 302c9 0 16 -2 19 -4s8 -12 5 -26
c-7 -36 -58 -81 -177 -110c9 16 19 32 32 50c43 60 78 80 100 87c8 2 15 3 21 3z" />
    <glyph glyph-name="edieresis" unicode="&#xeb;" horiz-adv-x="341" 
d="M174 479c0 -23 19 -34 43 -34c29 0 60 26 60 50c0 21 -12 32 -36 32c-31 0 -67 -24 -67 -48zM319 459c0 -21 19 -34 42 -34c31 0 62 25 62 49c0 22 -12 33 -37 33c-32 0 -67 -23 -67 -48zM127 -56c45 0 97 16 141 44c55 34 97 84 123 145c7 18 -1 39 -19 46
c-18 8 -39 -1 -47 -19c-45 -106 -143 -145 -198 -145c-27 0 -62 12 -75 37c-5 9 -7 20 -6 32c214 40 263 125 273 173c4 20 3 40 -4 57c-6 18 -17 33 -32 43c-9 6 -45 26 -99 10c-48 -15 -94 -53 -138 -114c-35 -48 -57 -93 -66 -132s-6 -73 9 -102c28 -55 92 -75 138 -75z
M225 302c9 0 16 -2 19 -4s8 -12 5 -26c-7 -36 -58 -81 -177 -110c9 16 19 32 32 50c43 60 78 80 100 87c8 2 15 3 21 3z" />
    <glyph glyph-name="egrave" unicode="&#xe8;" horiz-adv-x="341" 
d="M178 519c45 -35 84 -71 117 -110c15 7 25 24 25 36c0 28 -73 113 -110 113c-16 0 -31 -14 -32 -39zM127 -56c45 0 97 16 141 44c55 34 97 84 123 145c7 18 -1 39 -19 46c-18 8 -39 -1 -47 -19c-45 -106 -143 -145 -198 -145c-27 0 -62 12 -75 37c-5 9 -7 20 -6 32
c214 40 263 125 273 173c4 20 3 40 -4 57c-6 18 -17 33 -32 43c-9 6 -45 26 -99 10c-48 -15 -94 -53 -138 -114c-35 -48 -57 -93 -66 -132s-6 -73 9 -102c28 -55 92 -75 138 -75zM225 302c9 0 16 -2 19 -4s8 -12 5 -26c-7 -36 -58 -81 -177 -110c9 16 19 32 32 50
c43 60 78 80 100 87c8 2 15 3 21 3z" />
    <glyph glyph-name="f" unicode="f" horiz-adv-x="310" 
d="M3 -295c40 0 74 39 95 72c35 53 60 124 70 195c3 24 5 48 5 72c17 -17 36 -27 57 -29c46 -4 94 28 150 103c12 16 8 38 -7 50c-16 11 -38 8 -50 -8c-22 -30 -42 -51 -60 -63c-10 -8 -20 -12 -26 -11c-8 1 -17 11 -24 20c-11 15 -21 37 -31 58c-8 19 -17 36 -26 50
c-3 5 -10 16 -21 24c25 10 50 24 73 40c31 22 60 51 86 84c58 72 87 150 97 180c14 42 21 82 20 113c-3 50 -24 70 -41 79c-12 6 -36 13 -67 -6c-17 -10 -35 -28 -53 -53c-78 -111 -186 -328 -230 -464c-31 -95 -57 -198 -70 -283c-22 -138 -6 -180 8 -200
c11 -15 27 -23 45 -23zM338 666c1 -5 2 -12 2 -23c-1 -16 -4 -42 -16 -79c-30 -88 -94 -195 -186 -246c52 119 122 248 170 316c14 19 24 28 30 32zM81 169c48 -142 -1 -271 -18 -309c-12 -25 -25 -47 -38 -63c-5 -6 -9 -10 -13 -14c-3 18 -4 57 8 137c13 75 34 165 61 249z
" />
    <glyph glyph-name="g" unicode="g" horiz-adv-x="432" 
d="M47 -292c8 0 17 1 25 4c24 7 49 26 74 55c22 26 43 58 64 98c13 24 25 49 36 76c38 18 74 35 108 61c41 31 75 72 106 129c9 17 3 39 -14 48c-18 10 -39 3 -49 -14c-36 -66 -72 -100 -115 -126c8 24 15 49 22 74l8 11c31 39 40 69 27 91c-4 7 -10 13 -17 16
c18 -2 34 10 38 28c7 39 -5 72 -36 91c-45 29 -120 18 -181 -26c-36 -26 -76 -67 -108 -109c-28 -37 -62 -91 -67 -144c-3 -33 6 -62 27 -84c21 -23 49 -35 81 -33c40 2 82 24 120 53c-2 -4 -3 -9 -5 -13l-48 -22c-45 -23 -86 -50 -116 -80c-33 -32 -53 -65 -57 -94
c-4 -27 4 -51 23 -69c16 -14 34 -21 54 -21zM263 295c10 0 18 -2 23 -5c3 -1 7 -4 4 -17c-3 -16 5 -31 19 -38c-3 0 -7 0 -10 -1c-26 -3 -47 -31 -57 -73l-3 -15c-53 -62 -122 -119 -166 -121c-11 -1 -19 2 -26 10c-4 5 -10 12 -8 30c6 63 89 160 146 201c28 21 58 29 78 29
zM144 -108c-40 -74 -74 -106 -93 -112c-5 -2 -7 -1 -10 2c-1 1 -2 2 -1 6c3 21 37 64 104 104z" />
    <glyph glyph-name="h" unicode="h" horiz-adv-x="464" 
d="M47 -49c25 0 38 23 46 36s16 30 26 49c22 42 48 95 79 137c39 54 64 62 76 62c13 0 18 -2 19 -3c0 -1 3 -7 -1 -26s-12 -41 -20 -63c-8 -25 -17 -50 -22 -73c-6 -33 -3 -58 10 -77c15 -21 40 -32 73 -32c44 0 93 31 149 95c38 43 64 85 66 87c10 16 5 38 -11 49
c-17 10 -39 5 -49 -11c-1 0 -25 -39 -59 -78c-58 -66 -88 -71 -96 -71c-9 0 -13 2 -15 2c0 2 -1 10 3 26c3 17 11 38 18 59c20 56 40 114 12 154c-16 22 -42 33 -77 33c-45 0 -89 -30 -134 -92c-30 -41 -56 -90 -76 -130c3 33 9 72 17 114c3 13 6 26 10 39
c68 20 126 60 172 118c36 45 66 101 87 167c15 43 21 82 20 114c-3 49 -23 70 -41 79c-11 5 -36 13 -67 -6c-17 -11 -35 -29 -52 -53c-38 -54 -80 -129 -115 -205c-28 -60 -64 -150 -83 -238c-12 -55 -19 -106 -20 -147c-3 -64 9 -86 18 -97c9 -12 22 -18 37 -18zM297 647
c1 -5 2 -13 2 -24c0 -15 -4 -41 -16 -79c-36 -107 -91 -180 -164 -219c41 110 100 221 149 290c13 19 23 27 29 32z" />
    <glyph glyph-name="i" unicode="i" horiz-adv-x="244" 
d="M203 434c12 0 23 5 30 15l1 2l4 6c11 16 7 38 -9 49s-38 7 -50 -9l-3 -5l-2 -2c-4 -7 -6 -14 -6 -21c0 -11 5 -22 15 -29c6 -4 13 -6 20 -6zM101 -38c39 0 76 15 109 43c35 31 66 77 92 138c7 18 -1 39 -19 46c-18 8 -39 0 -47 -18c-26 -63 -71 -138 -135 -138
c-9 0 -30 2 -38 17c-7 14 -21 74 106 253c11 16 8 38 -8 49c-16 12 -39 8 -50 -8c-109 -154 -145 -261 -111 -326c11 -21 28 -36 49 -46c20 -8 39 -10 52 -10z" />
    <glyph glyph-name="dotlessi" unicode="&#x131;" horiz-adv-x="244" 
d="M101 -38c39 0 76 15 109 43c35 31 66 77 92 138c7 18 -1 39 -19 46c-18 8 -39 0 -47 -18c-26 -63 -71 -138 -135 -138c-9 0 -30 2 -38 17c-7 14 -21 74 106 253c11 16 8 38 -8 49c-16 12 -39 8 -50 -8c-109 -154 -145 -261 -111 -326c11 -21 28 -36 49 -46
c20 -8 39 -10 52 -10z" />
    <glyph glyph-name="iacute" unicode="&#xed;" horiz-adv-x="244" 
d="M184 433c0 -9 9 -26 24 -33c16 21 52 58 109 113c-3 23 -13 35 -30 35c-37 0 -103 -88 -103 -115zM101 -38c39 0 76 15 109 43c35 31 66 77 92 138c7 18 -1 39 -19 46c-18 8 -39 0 -47 -18c-26 -63 -71 -138 -135 -138c-9 0 -30 2 -38 17c-7 14 -21 74 106 253
c11 16 8 38 -8 49c-16 12 -39 8 -50 -8c-109 -154 -145 -261 -111 -326c11 -21 28 -36 49 -46c20 -8 39 -10 52 -10z" />
    <glyph glyph-name="icircumflex" unicode="&#xee;" horiz-adv-x="244" 
d="M73 454c0 -14 4 -23 13 -28c37 25 71 42 102 52c33 -29 57 -57 72 -83c17 9 25 22 25 39c0 40 -63 106 -96 106c-35 0 -116 -50 -116 -86zM101 -38c39 0 76 15 109 43c35 31 66 77 92 138c7 18 -1 39 -19 46c-18 8 -39 0 -47 -18c-26 -63 -71 -138 -135 -138
c-9 0 -30 2 -38 17c-7 14 -21 74 106 253c11 16 8 38 -8 49c-16 12 -39 8 -50 -8c-109 -154 -145 -261 -111 -326c11 -21 28 -36 49 -46c20 -8 39 -10 52 -10z" />
    <glyph glyph-name="idieresis" unicode="&#xef;" horiz-adv-x="244" 
d="M75 450c0 -23 19 -34 43 -34c29 0 60 26 60 50c0 21 -12 32 -36 32c-31 0 -67 -24 -67 -48zM220 430c0 -21 19 -34 42 -34c31 0 62 26 62 49c0 22 -12 33 -37 33c-32 0 -67 -23 -67 -48zM101 -38c39 0 76 15 109 43c35 31 66 77 92 138c7 18 -1 39 -19 46
c-18 8 -39 0 -47 -18c-26 -63 -71 -138 -135 -138c-9 0 -30 2 -38 17c-7 14 -21 74 106 253c11 16 8 38 -8 49c-16 12 -39 8 -50 -8c-109 -154 -145 -261 -111 -326c11 -21 28 -36 49 -46c20 -8 39 -10 52 -10z" />
    <glyph glyph-name="igrave" unicode="&#xec;" horiz-adv-x="244" 
d="M50 509c45 -35 84 -71 117 -110c15 7 25 24 25 36c0 28 -73 113 -110 113c-16 0 -31 -14 -32 -39zM101 -38c39 0 76 15 109 43c35 31 66 77 92 138c7 18 -1 39 -19 46c-18 8 -39 0 -47 -18c-26 -63 -71 -138 -135 -138c-9 0 -30 2 -38 17c-7 14 -21 74 106 253
c11 16 8 38 -8 49c-16 12 -39 8 -50 -8c-109 -154 -145 -261 -111 -326c11 -21 28 -36 49 -46c20 -8 39 -10 52 -10z" />
    <glyph glyph-name="j" unicode="j" horiz-adv-x="227" 
d="M130 439c-10 7 -16 18 -16 29c0 7 3 14 7 20l1 2l4 6c11 16 33 20 49 8c16 -11 20 -33 9 -49l-3 -5l-2 -2c-7 -10 -18 -16 -29 -16c-7 0 -14 2 -20 7zM261 171c17 -10 24 -31 14 -48c-31 -57 -65 -98 -106 -130c-31 -24 -65 -41 -100 -57c-19 -51 -40 -95 -63 -130
c-26 -42 -54 -71 -84 -88c-18 -10 -37 -15 -56 -15c-16 0 -33 4 -49 12c-23 12 -37 33 -37 59c1 38 31 77 56 102c32 33 76 64 123 87c19 10 36 18 53 25c16 47 30 96 40 147c-16 -12 -38 -10 -50 5c-13 15 -11 37 4 50c27 22 51 46 65 65c1 5 1 10 2 14c2 23 11 78 46 89
c15 5 31 0 41 -12c15 -18 10 -42 8 -50c-4 -15 -10 -33 -20 -53l-8 -14c-8 -65 -22 -133 -40 -197c42 26 77 59 113 125c9 17 31 23 48 14zM-112 -219c27 15 57 53 84 109c-33 -18 -64 -41 -87 -65s-31 -40 -33 -48c12 -5 23 -4 36 4z" />
    <glyph glyph-name="k" unicode="k" horiz-adv-x="462" 
d="M47 -50c14 0 26 7 36 20c4 5 8 12 12 21c8 15 17 35 28 59c23 50 52 113 84 164c45 70 71 76 78 76c31 0 49 -14 49 -40c0 -17 -9 -35 -25 -49c-14 -13 -41 -28 -87 -28c-11 0 -21 -5 -27 -13c-7 -9 -10 -19 -8 -30c14 -67 29 -107 51 -132c28 -33 64 -38 96 -38
c45 0 91 33 135 98c29 44 48 87 49 89c8 18 -1 38 -19 46s-39 0 -46 -18c-1 -1 -17 -39 -43 -77c-28 -42 -57 -67 -76 -67c-26 0 -35 5 -43 13c-9 11 -17 31 -25 61c43 8 72 26 90 42c31 28 49 65 49 103c0 31 -11 58 -32 78c-22 22 -52 33 -88 33c-27 0 -54 -12 -80 -36
c-19 -18 -38 -42 -58 -73c-31 -50 -59 -108 -81 -157c3 30 8 65 16 102c9 41 22 85 39 129c39 12 81 37 117 72c43 41 75 91 92 142c14 41 22 77 24 104c1 16 0 29 -3 40c-6 21 -18 31 -27 36c-12 6 -35 12 -66 -12c-14 -11 -30 -29 -48 -54c-37 -53 -79 -128 -114 -204
c-28 -60 -65 -150 -83 -238c-12 -56 -19 -107 -21 -148c-2 -63 10 -85 19 -96c9 -12 22 -18 36 -18zM268 613l13 17c-3 -16 -8 -38 -18 -68c-13 -40 -40 -80 -74 -113c-8 -8 -17 -15 -26 -22c34 73 72 139 105 186z" />
    <glyph glyph-name="l" unicode="l" horiz-adv-x="245" 
d="M100 -39h1c113 0 185 126 206 168c9 18 2 39 -16 48c-17 9 -39 2 -47 -16c-19 -38 -32 -75 -71 -103c-27 -20 -56 -26 -72 -26h-1c-16 0 -32 1 -40 13c-7 10 -20 43 11 140c2 0 5 1 7 2c71 30 134 84 190 161c56 78 85 155 94 185c15 42 21 82 20 114
c-2 49 -23 70 -41 78c-11 6 -36 13 -67 -5c-17 -11 -35 -29 -52 -54c-35 -49 -78 -125 -119 -213c-40 -83 -75 -170 -98 -240c-32 -99 -33 -168 -3 -210c30 -41 78 -42 98 -42zM309 657c1 -4 2 -12 2 -23c0 -15 -3 -41 -16 -79c-30 -90 -96 -207 -189 -272
c50 127 120 267 174 343c13 18 23 27 29 31z" />
    <glyph glyph-name="m" unicode="m" horiz-adv-x="660" 
d="M506 -40c10 0 20 1 32 4c43 9 84 37 119 81c28 34 44 68 49 81c7 19 -3 39 -21 46c-19 7 -39 -3 -46 -21c-6 -16 -51 -103 -116 -118c-7 -1 -12 -2 -15 -2c0 4 1 10 3 20c4 16 10 34 17 53c8 24 17 49 22 71c2 13 10 50 -13 77c-17 20 -44 28 -80 22
c-41 -7 -74 -28 -111 -67c9 50 7 85 -8 107c-11 17 -29 27 -50 26c-41 -1 -86 -27 -137 -79c-21 -20 -42 -44 -65 -73c5 22 8 43 10 61c2 20 -13 37 -32 39c-20 2 -37 -13 -39 -32c-7 -81 -65 -246 -66 -248c-6 -17 2 -35 18 -43s35 -3 45 12c70 106 130 185 179 234
c38 38 64 52 79 56c1 -12 0 -37 -11 -80c-13 -50 -35 -108 -62 -163c-9 -16 -3 -36 13 -46c16 -9 37 -5 47 10c102 142 148 207 201 216c7 1 11 1 14 1c0 -4 -1 -11 -4 -23c-4 -16 -10 -36 -17 -55c-8 -23 -17 -48 -21 -70c-3 -12 -10 -50 13 -76c7 -7 19 -17 40 -20
c4 -1 8 -1 13 -1z" />
    <glyph glyph-name="n" unicode="n" horiz-adv-x="473" 
d="M2 -24c12 0 23 6 30 16c109 167 189 251 239 251c21 0 29 -4 31 -7c0 -1 4 -7 0 -29c-4 -19 -12 -43 -21 -65c-8 -24 -16 -46 -20 -67c-3 -11 -10 -47 13 -72c27 -30 72 -23 104 -15c44 11 84 44 120 100c25 38 39 73 39 75c7 18 -2 39 -20 46s-39 -2 -46 -21
c0 0 -12 -31 -33 -63c-25 -38 -52 -62 -77 -68c-17 -4 -27 -5 -32 -5c0 4 1 9 3 17c4 14 10 31 16 48c9 26 19 52 23 77c7 35 3 62 -11 83c-17 25 -47 37 -89 37c-38 0 -76 -18 -119 -56c-18 -16 -37 -36 -57 -60c5 24 9 47 11 66c2 20 -13 37 -32 39c-20 2 -37 -13 -39 -32
c-7 -81 -65 -246 -66 -248c-6 -17 2 -35 18 -43c5 -3 10 -4 15 -4z" />
    <glyph glyph-name="ntilde" unicode="&#xf1;" horiz-adv-x="473" 
d="M351 340c25 0 53 4 86 17c19 6 28 27 21 45c-6 19 -27 28 -45 21c-61 -22 -93 -10 -129 4c-39 14 -83 30 -150 8c-18 -7 -28 -27 -22 -45c6 -19 26 -29 45 -23c43 15 68 6 102 -7c25 -9 54 -20 92 -20zM2 -24c12 0 23 6 30 16c109 167 189 251 239 251c21 0 29 -4 31 -7
c0 -1 4 -7 0 -29c-4 -19 -12 -43 -21 -65c-8 -24 -16 -46 -20 -67c-3 -11 -10 -47 13 -72c27 -30 72 -23 104 -15c44 11 84 44 120 100c25 38 39 73 39 75c7 18 -2 39 -20 46s-39 -2 -46 -21c0 0 -12 -31 -33 -63c-25 -38 -52 -62 -77 -68c-17 -4 -27 -5 -32 -5
c0 4 1 9 3 17c4 14 10 31 16 48c9 26 19 52 23 77c7 35 3 62 -11 83c-17 25 -47 37 -89 37c-38 0 -76 -18 -119 -56c-18 -16 -37 -36 -57 -60c5 24 9 47 11 66c2 20 -13 37 -32 39c-20 2 -37 -13 -39 -32c-7 -81 -65 -246 -66 -248c-6 -17 2 -35 18 -43c5 -3 10 -4 15 -4z
" />
    <glyph glyph-name="o" unicode="o" horiz-adv-x="393" 
d="M68 -51c7 0 15 1 24 2c32 7 70 27 111 60c16 14 31 28 45 43c28 -3 56 0 82 10c33 13 64 36 89 68c13 16 10 38 -5 50c-16 12 -38 10 -50 -5c-19 -25 -41 -41 -65 -48c3 5 5 10 7 15c19 44 26 90 19 129c-8 44 -33 76 -67 88c-22 7 -65 12 -119 -37
c-19 -16 -32 -35 -40 -56c-10 1 -19 -3 -26 -10c-43 -41 -75 -93 -89 -146c-15 -56 -9 -105 18 -135c16 -18 39 -28 66 -28zM229 295c2 0 4 0 6 -1c9 -3 17 -16 20 -33c6 -34 -4 -80 -34 -126c-28 14 -51 38 -58 66c-8 26 0 50 23 71c17 15 32 23 43 23zM95 178
c12 -40 41 -75 79 -98c-5 -5 -11 -9 -16 -14c-40 -32 -66 -42 -80 -45c-17 -3 -21 2 -23 3c-8 10 -12 35 -3 70c8 28 23 58 43 84z" />
    <glyph glyph-name="oacute" unicode="&#xf3;" horiz-adv-x="372" 
d="M331 443c0 -9 9 -26 24 -33c16 21 52 58 109 113c-3 23 -13 35 -30 35c-37 0 -103 -88 -103 -115zM68 -51c7 0 15 1 24 2c32 7 70 27 111 60c16 14 31 28 45 43c28 -3 56 0 82 10c33 13 64 36 89 68c13 16 10 38 -5 50c-16 12 -38 10 -50 -5c-19 -25 -41 -41 -65 -48
c3 5 5 10 7 15c19 44 26 90 19 129c-8 44 -33 76 -67 88c-22 7 -65 12 -119 -37c-19 -16 -32 -35 -40 -56c-10 1 -19 -3 -26 -10c-43 -41 -75 -93 -89 -146c-15 -56 -9 -105 18 -135c16 -18 39 -28 66 -28zM229 295c2 0 4 0 6 -1c9 -3 17 -16 20 -33c6 -34 -4 -80 -34 -126
c-28 14 -51 38 -58 66c-8 26 0 50 23 71c17 15 32 23 43 23zM95 178c12 -40 41 -75 79 -98c-5 -5 -11 -9 -16 -14c-40 -32 -66 -42 -80 -45c-17 -3 -21 2 -23 3c-8 10 -12 35 -3 70c8 28 23 58 43 84z" />
    <glyph glyph-name="ocircumflex" unicode="&#xf4;" horiz-adv-x="372" 
d="M197 464c0 -13 4 -23 13 -28c37 25 71 42 102 52c33 -29 57 -57 72 -83c17 9 25 22 25 39c0 40 -63 106 -96 106c-35 0 -116 -50 -116 -86zM68 -51c7 0 15 1 24 2c32 7 70 27 111 60c16 14 31 28 45 43c28 -3 56 0 82 10c33 13 64 36 89 68c13 16 10 38 -5 50
c-16 12 -38 10 -50 -5c-19 -25 -41 -41 -65 -48c3 5 5 10 7 15c19 44 26 90 19 129c-8 44 -33 76 -67 88c-22 7 -65 12 -119 -37c-19 -16 -32 -35 -40 -56c-10 1 -19 -3 -26 -10c-43 -41 -75 -93 -89 -146c-15 -56 -9 -105 18 -135c16 -18 39 -28 66 -28zM229 295
c2 0 4 0 6 -1c9 -3 17 -16 20 -33c6 -34 -4 -80 -34 -126c-28 14 -51 38 -58 66c-8 26 0 50 23 71c17 15 32 23 43 23zM95 178c12 -40 41 -75 79 -98c-5 -5 -11 -9 -16 -14c-40 -32 -66 -42 -80 -45c-17 -3 -21 2 -23 3c-8 10 -12 35 -3 70c8 28 23 58 43 84z" />
    <glyph glyph-name="odieresis" unicode="&#xf6;" horiz-adv-x="372" 
d="M189 469c0 -23 19 -34 43 -34c29 0 60 26 60 50c0 21 -12 32 -36 32c-31 0 -67 -24 -67 -48zM334 449c0 -21 19 -34 42 -34c31 0 62 25 62 49c0 22 -12 33 -37 33c-32 0 -67 -23 -67 -48zM68 -51c7 0 15 1 24 2c32 7 70 27 111 60c16 14 31 28 45 43c28 -3 56 0 82 10
c33 13 64 36 89 68c13 16 10 38 -5 50c-16 12 -38 10 -50 -5c-19 -25 -41 -41 -65 -48c3 5 5 10 7 15c19 44 26 90 19 129c-8 44 -33 76 -67 88c-22 7 -65 12 -119 -37c-19 -16 -32 -35 -40 -56c-10 1 -19 -3 -26 -10c-43 -41 -75 -93 -89 -146c-15 -56 -9 -105 18 -135
c16 -18 39 -28 66 -28zM229 295c2 0 4 0 6 -1c9 -3 17 -16 20 -33c6 -34 -4 -80 -34 -126c-28 14 -51 38 -58 66c-8 26 0 50 23 71c17 15 32 23 43 23zM95 178c12 -40 41 -75 79 -98c-5 -5 -11 -9 -16 -14c-40 -32 -66 -42 -80 -45c-17 -3 -21 2 -23 3c-8 10 -12 35 -3 70
c8 28 23 58 43 84z" />
    <glyph glyph-name="ograve" unicode="&#xf2;" horiz-adv-x="372" 
d="M227 515c45 -35 84 -71 117 -110c15 7 25 24 25 36c0 28 -73 113 -110 113c-16 0 -31 -14 -32 -39zM68 -51c7 0 15 1 24 2c32 7 70 27 111 60c16 14 31 28 45 43c28 -3 56 0 82 10c33 13 64 36 89 68c13 16 10 38 -5 50c-16 12 -38 10 -50 -5c-19 -25 -41 -41 -65 -48
c3 5 5 10 7 15c19 44 26 90 19 129c-8 44 -33 76 -67 88c-22 7 -65 12 -119 -37c-19 -16 -32 -35 -40 -56c-10 1 -19 -3 -26 -10c-43 -41 -75 -93 -89 -146c-15 -56 -9 -105 18 -135c16 -18 39 -28 66 -28zM229 295c2 0 4 0 6 -1c9 -3 17 -16 20 -33c6 -34 -4 -80 -34 -126
c-28 14 -51 38 -58 66c-8 26 0 50 23 71c17 15 32 23 43 23zM95 178c12 -40 41 -75 79 -98c-5 -5 -11 -9 -16 -14c-40 -32 -66 -42 -80 -45c-17 -3 -21 2 -23 3c-8 10 -12 35 -3 70c8 28 23 58 43 84z" />
    <glyph glyph-name="oslash" unicode="&#xf8;" horiz-adv-x="372" 
d="M408 171c14 -14 14 -36 1 -50c-62 -64 -119 -92 -170 -83c-4 1 -7 1 -10 2c-45 -42 -84 -68 -119 -79c-13 -5 -25 -7 -36 -7s-21 2 -29 5c-25 -23 -47 -38 -65 -46c-5 -2 -10 -3 -14 -3c-14 0 -27 8 -33 21c-8 18 0 39 18 47c9 4 22 12 43 31c-12 26 -15 60 -9 97
c8 50 30 97 59 127c14 14 36 14 50 1c14 -14 15 -37 1 -51c-19 -19 -34 -53 -40 -87c-1 -9 -2 -17 -2 -25l12 13c20 24 40 49 60 75c-16 53 -9 95 2 123c14 36 40 66 70 79c21 9 41 10 60 4c7 -2 13 -5 19 -9c15 19 27 32 36 40c15 13 38 11 51 -4c12 -14 11 -37 -4 -50
c-8 -7 -23 -25 -41 -48c8 -28 9 -62 1 -98c-4 -22 -13 -50 -30 -80c20 10 44 28 69 54c13 14 36 15 50 1zM193 256c-2 -4 -3 -9 -4 -14l16 21c9 13 18 24 26 35c-1 0 -3 -1 -5 -2c-10 -4 -25 -19 -33 -40zM216 133c18 26 27 50 32 69l-41 -54zM127 48c12 8 25 18 40 32
c-2 3 -4 6 -7 9c-11 -14 -22 -28 -33 -41z" />
    <glyph glyph-name="otilde" unicode="&#xf5;" horiz-adv-x="372" 
d="M371 373c25 0 53 4 86 17c19 6 28 27 21 45c-6 19 -27 28 -45 21c-61 -22 -93 -10 -129 4c-39 14 -83 30 -150 8c-18 -7 -28 -27 -22 -45c6 -19 26 -29 45 -23c43 15 68 6 102 -7c25 -9 54 -20 92 -20zM68 -51c7 0 15 1 24 2c32 7 70 27 111 60c16 14 31 28 45 43
c28 -3 56 0 82 10c33 13 64 36 89 68c13 16 10 38 -5 50c-16 12 -38 10 -50 -5c-19 -25 -41 -41 -65 -48c3 5 5 10 7 15c19 44 26 90 19 129c-8 44 -33 76 -67 88c-22 7 -65 12 -119 -37c-19 -16 -32 -35 -40 -56c-10 1 -19 -3 -26 -10c-43 -41 -75 -93 -89 -146
c-15 -56 -9 -105 18 -135c16 -18 39 -28 66 -28zM229 295c2 0 4 0 6 -1c9 -3 17 -16 20 -33c6 -34 -4 -80 -34 -126c-28 14 -51 38 -58 66c-8 26 0 50 23 71c17 15 32 23 43 23zM95 178c12 -40 41 -75 79 -98c-5 -5 -11 -9 -16 -14c-40 -32 -66 -42 -80 -45
c-17 -3 -21 2 -23 3c-8 10 -12 35 -3 70c8 28 23 58 43 84z" />
    <glyph glyph-name="oe" unicode="&#x153;" horiz-adv-x="553" 
d="M580 179c17 -10 23 -32 13 -49c-39 -66 -86 -117 -137 -147c-34 -20 -69 -30 -102 -30c-15 0 -29 2 -42 6c-33 9 -60 30 -79 59c-5 9 -10 18 -14 29c-37 -41 -70 -69 -99 -85c-24 -13 -44 -18 -60 -18s-28 4 -37 9c-56 31 -57 121 -41 176c10 32 34 73 63 109
c26 31 67 73 121 97c55 25 113 25 165 1c3 -1 5 -2 7 -4c21 13 43 24 65 30c24 7 46 9 65 7c31 -4 49 -20 57 -33c16 -22 19 -50 7 -76c-19 -40 -66 -69 -102 -87c-45 -22 -99 -37 -146 -42h-5v-11c-2 -48 18 -83 53 -93c51 -15 132 23 200 139c9 17 31 23 48 13zM423 294
c-37 -11 -85 -42 -116 -88c31 7 64 17 92 31c42 21 63 41 68 53c2 3 1 4 0 6c-1 1 -6 3 -15 3c-7 0 -16 -1 -29 -5zM208 124c2 57 26 111 67 157c-26 5 -52 2 -80 -11c-71 -31 -130 -116 -145 -162c-5 -18 -7 -42 -5 -61c2 -20 8 -30 12 -31c2 -2 11 -2 28 8
c18 10 49 33 96 87c7 8 17 12 27 13z" />
    <glyph glyph-name="p" unicode="p" horiz-adv-x="413" 
d="M385 238c6 -40 -1 -82 -21 -122c-22 -45 -59 -84 -110 -116c-52 -33 -100 -48 -145 -44c-36 2 -56 17 -60 20c-1 1 -3 2 -4 4c-6 -19 -13 -38 -20 -58c-1 -6 -3 -11 -4 -17c-29 -105 -51 -165 -52 -168c-6 -14 -19 -23 -33 -23c-4 0 -8 1 -12 2c-18 6 -28 25 -23 44
c20 67 38 128 56 181c25 95 58 240 82 413c2 20 20 33 39 31c20 -3 34 -21 31 -40c-4 -32 -9 -62 -13 -92c25 36 52 62 81 78c35 19 75 24 117 14c23 -5 45 -19 61 -39c15 -18 25 -42 30 -68zM216 60c85 53 106 121 99 166c-5 26 -19 46 -37 50c-39 9 -82 5 -138 -83
c-23 -38 -47 -88 -73 -153c9 1 17 -2 24 -7h1c2 -1 11 -6 28 -7c19 0 51 6 96 34z" />
    <glyph glyph-name="thorn" unicode="&#xfe;" horiz-adv-x="415" 
d="M392 313c25 -33 46 -93 -3 -187c-79 -152 -308 -177 -357 -181l-9 -31c-20 -75 -37 -135 -53 -175c-5 -14 -19 -22 -33 -22c-4 0 -9 0 -13 2c-18 7 -27 28 -20 46c15 37 32 98 51 168c30 108 67 243 119 381c-39 -4 -80 -11 -123 -21c-19 -4 -38 8 -42 27
c-5 19 7 38 27 43c59 13 116 22 168 25c18 44 38 87 60 130c9 18 30 25 47 16c18 -9 25 -31 16 -48c-16 -32 -31 -64 -45 -96c9 0 19 0 28 -1c87 -7 148 -33 182 -76zM326 158c25 49 28 87 9 112c-20 26 -66 43 -131 48c-16 1 -33 2 -52 2c-41 -105 -73 -209 -99 -301
c67 9 221 39 273 139z" />
    <glyph glyph-name="q" unicode="q" horiz-adv-x="417" 
d="M475 166c16 -12 19 -34 8 -50c-4 -6 -10 -10 -16 -12c-1 -1 -55 -22 -113 -77c-77 -74 -122 -170 -136 -286c-2 -18 -18 -32 -36 -32h-1c-18 1 -33 15 -34 34c0 5 -4 94 46 260c-34 -24 -71 -42 -106 -43c-32 -2 -60 10 -81 32s-30 52 -27 85c5 52 39 107 67 144
c32 42 72 82 108 108c61 45 136 56 181 27c31 -19 43 -52 36 -91c-4 -17 -19 -29 -37 -28c9 -4 16 -10 20 -18c11 -22 2 -48 -31 -90c-3 -4 -9 -12 -18 -22l-18 -46c7 6 14 13 21 20c58 55 113 80 129 87c12 6 27 6 38 -2zM255 173c13 29 34 65 64 66h4c-16 6 -25 23 -22 40
c3 13 -1 15 -4 17c-5 3 -13 5 -23 5c-20 0 -50 -8 -78 -29c-57 -41 -140 -138 -146 -201c-2 -18 4 -26 8 -30c7 -8 15 -11 26 -10c42 1 108 55 160 114c3 9 7 18 11 28z" />
    <glyph glyph-name="r" unicode="r" horiz-adv-x="363" 
d="M190 -45h9h1c40 3 84 22 127 57c38 30 74 70 100 114c10 16 5 38 -12 48s-39 5 -49 -12c-45 -74 -118 -133 -170 -136h-2c-9 -1 -12 0 -13 1c-1 3 -7 23 24 86c20 42 38 84 31 125c-7 38 -33 70 -86 102c2 9 4 17 4 25c2 35 -18 48 -27 52c-23 11 -51 0 -65 -26
c-9 -17 -11 -37 -4 -56c2 -5 5 -11 8 -16c-25 -56 -81 -176 -82 -178c-8 -17 0 -39 17 -47c18 -8 39 -1 48 17c2 5 47 102 74 162c35 -23 41 -38 43 -48c3 -18 -7 -44 -25 -81c-18 -36 -28 -66 -31 -91c-4 -27 0 -49 12 -66c10 -15 30 -32 68 -32z" />
    <glyph glyph-name="s" unicode="s" horiz-adv-x="307" 
d="M130 -66c65 0 99 29 115 53c41 61 32 167 -27 316c-3 9 -6 16 -7 22c7 27 8 53 -10 68c-13 12 -32 12 -46 2c-13 -9 -20 -27 -19 -52c0 -4 1 -8 1 -12c-2 -6 -5 -13 -9 -20c-22 -45 -56 -99 -151 -186c-14 -13 -15 -36 -2 -50s36 -15 50 -2c45 41 80 78 108 113
c13 17 24 33 34 50c13 -36 22 -69 27 -98c9 -52 7 -90 -8 -111c-3 -5 -15 -22 -56 -22c-51 0 -60 17 -67 30c-9 18 -31 24 -48 15s-24 -30 -15 -48c17 -32 47 -68 130 -68z" />
    <glyph glyph-name="scaron" unicode="&#x161;" horiz-adv-x="351" 
d="M121 538c0 -44 68 -116 104 -116s123 55 123 94c0 11 -7 19 -21 24c-24 -21 -58 -39 -102 -54c-35 31 -61 61 -77 92c-18 -9 -27 -22 -27 -40zM130 -66c65 0 99 29 115 53c41 61 32 167 -27 316c-3 9 -6 16 -7 22c7 27 8 53 -10 68c-13 12 -32 12 -46 2
c-13 -9 -20 -27 -19 -52c0 -4 1 -8 1 -12c-2 -6 -5 -13 -9 -20c-22 -45 -56 -99 -151 -186c-14 -13 -15 -36 -2 -50s36 -15 50 -2c45 41 80 78 108 113c13 17 24 33 34 50c13 -36 22 -69 27 -98c9 -52 7 -90 -8 -111c-3 -5 -15 -22 -56 -22c-51 0 -60 17 -67 30
c-9 18 -31 24 -48 15s-24 -30 -15 -48c17 -32 47 -68 130 -68z" />
    <glyph glyph-name="germandbls" unicode="&#xdf;" horiz-adv-x="471" 
d="M-35 -140c12 0 24 6 31 17c30 50 65 149 101 295c32 126 59 256 71 323c13 65 34 117 62 150c20 24 44 37 65 37c14 0 39 -11 48 -35c7 -19 4 -45 -9 -73c-19 -42 -58 -90 -116 -142c-15 -13 -16 -35 -4 -49c109 -131 121 -269 84 -348c-17 -35 -42 -56 -69 -56
c-24 0 -38 9 -44 30c-5 17 -4 42 3 65s18 39 25 44c16 11 21 33 10 49s-33 21 -49 10c-24 -16 -43 -46 -54 -83s-12 -75 -3 -106c16 -51 57 -80 112 -80c29 0 56 10 80 28c22 17 40 41 54 69c25 54 32 123 19 193s-45 140 -92 204c52 50 88 98 109 142c27 59 20 102 10 128
c-20 53 -72 81 -114 81c-43 0 -85 -22 -119 -62c-36 -43 -62 -105 -77 -183c-22 -112 -97 -485 -164 -594c-10 -17 -5 -39 12 -49c6 -3 12 -5 18 -5z" />
    <glyph glyph-name="t" unicode="t" horiz-adv-x="293" 
d="M326 180c18 -8 26 -29 18 -47c-20 -47 -56 -94 -100 -130c-46 -38 -95 -61 -138 -64h-11c-41 0 -76 19 -97 53c-19 31 -23 76 -12 138c7 40 20 86 39 138c-3 0 -7 0 -10 1c-20 2 -28 13 -26 33c6 40 37 33 63 35c41 98 89 188 115 222c21 27 65 61 98 38
c6 -4 24 -19 16 -49c-3 -10 -8 -22 -17 -36c-39 -61 -80 -131 -107 -176l108 3c20 2 37 -13 39 -32c1 -20 -13 -37 -32 -39c-6 0 -60 -4 -155 -4h-18c-21 -56 -36 -106 -43 -147c-11 -59 -2 -81 2 -87c6 -10 17 -22 43 -20c61 5 146 77 178 151c8 18 29 26 47 19z" />
    <glyph glyph-name="u" unicode="u" horiz-adv-x="441" 
d="M78 -43h7c41 3 87 35 137 94c5 -45 25 -66 43 -76c22 -12 60 -17 116 24c38 28 80 76 122 137c11 16 7 38 -9 49c-17 11 -39 7 -50 -9c-44 -66 -79 -100 -101 -116c-26 -21 -41 -23 -44 -22c-2 2 -9 15 -5 48c2 27 12 74 43 147c8 18 0 38 -18 46s-39 0 -47 -18
c-21 -49 -58 -108 -95 -154c-46 -56 -81 -78 -98 -79c-3 0 -6 0 -12 8c-4 8 -24 55 60 228c9 18 1 39 -16 48c-18 8 -39 1 -48 -17c-29 -61 -50 -115 -62 -159c-15 -61 -13 -106 6 -137c17 -27 42 -42 71 -42z" />
    <glyph glyph-name="uacute" unicode="&#xfa;" horiz-adv-x="441" 
d="M216 377c0 -9 9 -26 24 -33c16 21 52 58 109 113c-3 23 -13 35 -30 35c-37 0 -103 -88 -103 -115zM78 -43h7c41 3 87 35 137 94c5 -45 25 -66 43 -76c22 -12 60 -17 116 24c38 28 80 76 122 137c11 16 7 38 -9 49c-17 11 -39 7 -50 -9c-44 -66 -79 -100 -101 -116
c-26 -21 -41 -23 -44 -22c-2 2 -9 15 -5 48c2 27 12 74 43 147c8 18 0 38 -18 46s-39 0 -47 -18c-21 -49 -58 -108 -95 -154c-46 -56 -81 -78 -98 -79c-3 0 -6 0 -12 8c-4 8 -24 55 60 228c9 18 1 39 -16 48c-18 8 -39 1 -48 -17c-29 -61 -50 -115 -62 -159
c-15 -61 -13 -106 6 -137c17 -27 42 -42 71 -42z" />
    <glyph glyph-name="ucircumflex" unicode="&#xfb;" horiz-adv-x="441" 
d="M145 414c0 -13 4 -23 13 -28c38 25 72 42 102 52c33 -29 57 -57 72 -83c17 9 25 22 25 39c0 40 -63 106 -96 106c-35 0 -116 -50 -116 -86zM78 -43h7c41 3 87 35 137 94c5 -45 25 -66 43 -76c22 -12 60 -17 116 24c38 28 80 76 122 137c11 16 7 38 -9 49
c-17 11 -39 7 -50 -9c-44 -66 -79 -100 -101 -116c-26 -21 -41 -23 -44 -22c-2 2 -9 15 -5 48c2 27 12 74 43 147c8 18 0 38 -18 46s-39 0 -47 -18c-21 -49 -58 -108 -95 -154c-46 -56 -81 -78 -98 -79c-3 0 -6 0 -12 8c-4 8 -24 55 60 228c9 18 1 39 -16 48
c-18 8 -39 1 -48 -17c-29 -61 -50 -115 -62 -159c-15 -61 -13 -106 6 -137c17 -27 42 -42 71 -42z" />
    <glyph glyph-name="udieresis" unicode="&#xfc;" horiz-adv-x="441" 
d="M134 420c0 -23 19 -34 43 -34c29 0 60 26 60 50c0 21 -12 32 -36 32c-31 0 -67 -24 -67 -48zM279 400c0 -21 19 -34 42 -34c31 0 62 26 62 49c0 22 -12 33 -37 33c-32 0 -67 -23 -67 -48zM78 -43h7c41 3 87 35 137 94c5 -45 25 -66 43 -76c22 -12 60 -17 116 24
c38 28 80 76 122 137c11 16 7 38 -9 49c-17 11 -39 7 -50 -9c-44 -66 -79 -100 -101 -116c-26 -21 -41 -23 -44 -22c-2 2 -9 15 -5 48c2 27 12 74 43 147c8 18 0 38 -18 46s-39 0 -47 -18c-21 -49 -58 -108 -95 -154c-46 -56 -81 -78 -98 -79c-3 0 -6 0 -12 8
c-4 8 -24 55 60 228c9 18 1 39 -16 48c-18 8 -39 1 -48 -17c-29 -61 -50 -115 -62 -159c-15 -61 -13 -106 6 -137c17 -27 42 -42 71 -42z" />
    <glyph glyph-name="ugrave" unicode="&#xf9;" horiz-adv-x="441" 
d="M118 484c45 -35 84 -71 117 -110c15 7 25 24 25 36c0 28 -73 113 -110 113c-16 0 -31 -14 -32 -39zM78 -43h7c41 3 87 35 137 94c5 -45 25 -66 43 -76c22 -12 60 -17 116 24c38 28 80 76 122 137c11 16 7 38 -9 49c-17 11 -39 7 -50 -9c-44 -66 -79 -100 -101 -116
c-26 -21 -41 -23 -44 -22c-2 2 -9 15 -5 48c2 27 12 74 43 147c8 18 0 38 -18 46s-39 0 -47 -18c-21 -49 -58 -108 -95 -154c-46 -56 -81 -78 -98 -79c-3 0 -6 0 -12 8c-4 8 -24 55 60 228c9 18 1 39 -16 48c-18 8 -39 1 -48 -17c-29 -61 -50 -115 -62 -159
c-15 -61 -13 -106 6 -137c17 -27 42 -42 71 -42z" />
    <glyph glyph-name="v" unicode="v" horiz-adv-x="410" 
d="M78 -52c7 0 15 1 24 4c20 5 42 17 66 36c35 27 64 61 89 99c3 -4 6 -8 9 -11c19 -22 43 -35 68 -38c24 -3 49 4 71 19c20 15 38 37 52 66c9 18 2 39 -16 48c-17 9 -39 1 -47 -16c-15 -31 -35 -48 -52 -47c-14 2 -33 19 -42 53c14 27 26 54 38 82c7 14 26 59 -2 84
c-12 10 -32 16 -54 3c-19 -12 -37 -36 -47 -66c-8 -21 -15 -53 -10 -92c-28 -51 -60 -97 -100 -128c-33 -25 -48 -25 -49 -24c0 0 -18 13 -14 96c2 50 11 96 11 97c4 19 -9 38 -28 42c-19 3 -38 -9 -42 -28c0 -2 -10 -52 -12 -107c-2 -34 -1 -63 4 -86c7 -36 21 -61 43 -75
c9 -5 22 -11 40 -11z" />
    <glyph glyph-name="w" unicode="w" horiz-adv-x="611" 
d="M290 -45c63 0 124 44 180 131c4 7 9 15 13 23c12 -30 26 -49 46 -59c15 -9 41 -15 76 2c38 20 75 74 82 85c10 16 5 38 -11 49c-16 10 -38 6 -49 -11c-12 -19 -38 -51 -54 -59c-7 -4 -10 -4 -11 -4c-1 1 -18 14 -29 98c7 16 11 29 14 36c13 38 9 73 -11 90
c-13 12 -31 14 -46 5c-16 -8 -26 -25 -30 -52c-2 -18 -2 -42 0 -69c-12 -27 -29 -63 -50 -96c-27 -42 -68 -92 -112 -98c-4 11 -8 37 -3 87c3 35 10 72 19 104c5 12 9 25 13 38c5 18 -5 38 -23 44s-38 -4 -45 -22l-12 -38c-27 -74 -62 -124 -89 -153
c-21 -24 -39 -38 -51 -46c-15 -10 -24 -12 -26 -13c-3 1 -9 0 -14 10c-5 8 -13 30 -4 75c8 41 28 87 58 134c11 16 6 38 -10 49c-17 10 -39 6 -49 -11c-35 -54 -59 -109 -69 -159c-9 -49 -6 -91 11 -121c16 -30 44 -48 77 -48c36 1 84 31 129 81c4 4 8 9 12 14
c2 -31 9 -54 20 -70c11 -17 28 -26 48 -26z" />
    <glyph glyph-name="x" unicode="x" horiz-adv-x="430" 
d="M470 193c18 -7 28 -27 21 -46c-2 -5 -51 -130 -151 -175c-18 -9 -35 -13 -50 -13c-14 0 -26 3 -37 10c-31 16 -43 50 -50 74c-3 11 -6 22 -8 34c-60 -71 -109 -132 -110 -133c-7 -9 -17 -14 -28 -14c-7 0 -15 3 -22 8c-15 12 -17 35 -5 50c0 1 68 86 142 171l9 10
c0 1 0 3 -1 4c-8 57 -22 73 -26 77c-15 -5 -42 -17 -100 -119c-9 -18 -31 -24 -48 -14s-23 31 -13 48c61 110 100 140 142 153c19 6 39 3 56 -8c21 -13 37 -38 48 -75c16 17 31 32 44 45c55 56 77 67 92 71c19 4 38 -8 43 -27c5 -18 -7 -37 -25 -42c-3 -1 -19 -10 -65 -57
c-21 -21 -45 -47 -72 -78c5 -32 9 -62 15 -85c8 -26 14 -30 16 -31s9 -1 24 5c73 34 113 136 113 137c7 18 28 27 46 20z" />
    <glyph glyph-name="y" unicode="y" horiz-adv-x="400" 
d="M38 -290c6 0 11 0 16 2c71 13 133 107 157 148c14 23 27 49 38 76c81 40 170 100 216 203c8 18 0 39 -18 47s-39 0 -47 -18c-25 -56 -67 -98 -115 -129c14 45 24 89 31 126c1 1 1 2 2 2c15 22 25 43 30 63c5 23 3 42 -6 56c-10 14 -27 20 -43 16c-25 -6 -40 -32 -46 -78
c-1 -10 -2 -20 -4 -31c-75 -103 -132 -119 -173 -120c-4 7 -7 28 0 62c9 43 31 88 62 126c13 16 10 38 -5 50c-15 13 -38 10 -50 -5c-44 -55 -64 -108 -73 -143c-13 -48 -12 -91 2 -121c12 -25 34 -40 61 -40c45 0 86 13 126 40l17 12c-7 -22 -14 -44 -23 -66
c-16 -8 -33 -15 -48 -22c-17 -7 -32 -14 -46 -20c-69 -34 -126 -101 -131 -155c-3 -27 6 -50 25 -65c13 -11 28 -16 45 -16zM41 -219h-3c0 6 4 21 19 41c19 24 45 46 73 60l16 7c-42 -68 -83 -104 -105 -108z" />
    <glyph glyph-name="yacute" unicode="&#xfd;" horiz-adv-x="400" 
d="M237 398c0 -9 9 -26 24 -33c16 21 52 58 109 113c-3 23 -13 35 -30 35c-37 0 -103 -88 -103 -115zM38 -290c6 0 11 0 16 2c71 13 133 107 157 148c14 23 27 49 38 76c81 40 170 100 216 203c8 18 0 39 -18 47s-39 0 -47 -18c-25 -56 -67 -98 -115 -129
c14 45 24 89 31 126c1 1 1 2 2 2c15 22 25 43 30 63c5 23 3 42 -6 56c-10 14 -27 20 -43 16c-25 -6 -40 -32 -46 -78c-1 -10 -2 -20 -4 -31c-75 -103 -132 -119 -173 -120c-4 7 -7 28 0 62c9 43 31 88 62 126c13 16 10 38 -5 50c-15 13 -38 10 -50 -5
c-44 -55 -64 -108 -73 -143c-13 -48 -12 -91 2 -121c12 -25 34 -40 61 -40c45 0 86 13 126 40l17 12c-7 -22 -14 -44 -23 -66c-16 -8 -33 -15 -48 -22c-17 -7 -32 -14 -46 -20c-69 -34 -126 -101 -131 -155c-3 -27 6 -50 25 -65c13 -11 28 -16 45 -16zM41 -219h-3
c0 6 4 21 19 41c19 24 45 46 73 60l16 7c-42 -68 -83 -104 -105 -108z" />
    <glyph glyph-name="ydieresis" unicode="&#xff;" horiz-adv-x="400" 
d="M138 433c0 -23 19 -34 43 -34c29 0 60 26 60 50c0 21 -12 32 -36 32c-31 0 -67 -24 -67 -48zM283 413c0 -21 19 -34 42 -34c31 0 62 25 62 49c0 22 -12 33 -37 33c-32 0 -67 -23 -67 -48zM38 -290c6 0 11 0 16 2c71 13 133 107 157 148c14 23 27 49 38 76
c81 40 170 100 216 203c8 18 0 39 -18 47s-39 0 -47 -18c-25 -56 -67 -98 -115 -129c14 45 24 89 31 126c1 1 1 2 2 2c15 22 25 43 30 63c5 23 3 42 -6 56c-10 14 -27 20 -43 16c-25 -6 -40 -32 -46 -78c-1 -10 -2 -20 -4 -31c-75 -103 -132 -119 -173 -120c-4 7 -7 28 0 62
c9 43 31 88 62 126c13 16 10 38 -5 50c-15 13 -38 10 -50 -5c-44 -55 -64 -108 -73 -143c-13 -48 -12 -91 2 -121c12 -25 34 -40 61 -40c45 0 86 13 126 40l17 12c-7 -22 -14 -44 -23 -66c-16 -8 -33 -15 -48 -22c-17 -7 -32 -14 -46 -20c-69 -34 -126 -101 -131 -155
c-3 -27 6 -50 25 -65c13 -11 28 -16 45 -16zM41 -219h-3c0 6 4 21 19 41c19 24 45 46 73 60l16 7c-42 -68 -83 -104 -105 -108z" />
    <glyph glyph-name="z" unicode="z" horiz-adv-x="331" 
d="M14 -296c30 0 71 10 121 43c108 70 131 149 131 202c0 14 -2 27 -4 40c51 40 90 86 118 140c9 18 2 39 -16 48c-17 9 -39 2 -48 -16c-21 -42 -48 -75 -82 -103c0 1 -1 1 -1 2c-10 15 -21 30 -34 43c16 10 30 22 43 35c22 25 38 54 43 85c10 50 -6 98 -41 128
c-22 20 -51 26 -81 19c-43 -11 -80 -48 -104 -77c-31 -37 -58 -84 -77 -132c-7 -18 2 -39 20 -46c19 -7 39 2 46 20c36 91 97 157 132 166c9 2 14 0 18 -4c16 -13 22 -36 18 -60c-8 -41 -43 -75 -94 -93c-12 -4 -21 -16 -23 -29s4 -27 16 -34c26 -17 47 -40 61 -64
c-47 -29 -103 -53 -165 -79c-59 -25 -97 -73 -101 -126c-2 -40 15 -75 48 -94c12 -7 30 -14 56 -14zM194 -55c-2 -50 -35 -98 -98 -139c-52 -34 -87 -36 -103 -27c-11 7 -12 21 -12 28c1 21 17 48 57 65c57 24 109 46 156 73z" />
    <glyph glyph-name="zcaron" unicode="&#x17e;" horiz-adv-x="331" 
d="M128 518c0 -44 68 -116 104 -116s123 55 123 94c0 11 -7 19 -21 24c-24 -21 -58 -39 -102 -54c-35 31 -61 61 -77 92c-18 -9 -27 -22 -27 -40zM14 -296c30 0 71 10 121 43c108 70 131 149 131 202c0 14 -2 27 -4 40c51 40 90 86 118 140c9 18 2 39 -16 48
c-17 9 -39 2 -48 -16c-21 -42 -48 -75 -82 -103c0 1 -1 1 -1 2c-10 15 -21 30 -34 43c16 10 30 22 43 35c22 25 38 54 43 85c10 50 -6 98 -41 128c-22 20 -51 26 -81 19c-43 -11 -80 -48 -104 -77c-31 -37 -58 -84 -77 -132c-7 -18 2 -39 20 -46c19 -7 39 2 46 20
c36 91 97 157 132 166c9 2 14 0 18 -4c16 -13 22 -36 18 -60c-8 -41 -43 -75 -94 -93c-12 -4 -21 -16 -23 -29s4 -27 16 -34c26 -17 47 -40 61 -64c-47 -29 -103 -53 -165 -79c-59 -25 -97 -73 -101 -126c-2 -40 15 -75 48 -94c12 -7 30 -14 56 -14zM194 -55
c-2 -50 -35 -98 -98 -139c-52 -34 -87 -36 -103 -27c-11 7 -12 21 -12 28c1 21 17 48 57 65c57 24 109 46 156 73z" />
    <glyph glyph-name="r.init" horiz-adv-x="369" 
d="M214 -36c8 0 17 1 27 2c49 9 97 42 142 98c31 40 49 77 50 79c9 17 2 38 -16 47s-39 2 -47 -16c-1 0 -16 -32 -43 -65c-23 -29 -59 -66 -99 -73c-16 -3 -26 -1 -29 3c-5 8 -3 34 16 65c25 38 48 83 38 130c-9 45 -46 81 -83 114c2 10 3 20 3 29c-1 23 -11 41 -28 51
c-21 12 -48 6 -63 -14c-11 -17 -13 -39 -5 -61c3 -7 7 -14 11 -21c-7 -17 -15 -38 -24 -62c-27 -72 -64 -171 -117 -244c-12 -16 -8 -38 8 -50c16 -11 38 -7 49 8c59 81 98 185 126 261c5 11 9 22 12 32c26 -24 38 -41 41 -57c4 -18 -4 -41 -27 -78
c-34 -52 -40 -107 -16 -143c10 -14 31 -35 74 -35z" />
    <glyph glyph-name="s.salt" horiz-adv-x="311" 
d="M101 -70c9 0 17 1 26 2c33 6 63 21 92 47c20 18 34 41 42 70c6 23 8 49 5 79c-4 51 -20 105 -33 149c-5 14 -9 28 -12 40l1 1c15 27 8 56 -7 71c-14 14 -33 16 -49 8c-10 -6 -22 -19 -22 -45c0 -6 0 -13 1 -21c-21 -31 -64 -85 -136 -163c-5 -6 -8 -12 -9 -19
c-4 -6 -8 -12 -12 -20c-10 -21 -16 -48 -17 -74c-2 -47 25 -90 70 -112c19 -8 39 -13 60 -13zM65 115c1 0 10 -4 23 -20c12 -15 35 -18 50 -6s18 35 6 50s-24 26 -36 33c24 27 44 51 60 72c12 -40 24 -83 27 -122c4 -43 -4 -73 -23 -90c-33 -29 -71 -39 -100 -25
c-19 10 -31 27 -31 45c1 17 5 35 12 48c6 11 11 14 12 15z" />
    <glyph glyph-name="b_r" horiz-adv-x="771" 
d="M115 -90c9 0 19 1 28 3c27 7 53 22 78 46c15 13 29 29 41 47c22 -3 43 1 63 11c111 55 172 164 205 254c38 -28 49 -44 51 -53c2 -11 -5 -26 -19 -52c-3 -6 -5 -11 -9 -17c-10 -21 -24 -52 -31 -83c-8 -37 -4 -66 13 -86c7 -9 21 -20 44 -23c15 -2 32 0 52 6
c47 13 93 48 136 102c31 39 49 74 50 75c9 18 2 39 -15 48c-18 9 -39 2 -48 -15c-17 -33 -76 -123 -143 -142c-12 -4 -18 -4 -22 -4c-1 11 4 41 28 90c3 6 6 11 8 16c17 33 33 64 25 100c-7 35 -34 65 -93 105c-4 3 -7 5 -10 8l-2 17c-5 21 -17 37 -34 44
c-21 9 -44 1 -55 -19c-5 -10 -12 -31 8 -59c2 -3 4 -7 7 -10c-25 -80 -76 -184 -171 -235c3 9 5 18 8 28c14 60 9 114 -12 148c-24 36 -64 48 -108 30c-38 -16 -61 -47 -65 -88c-7 -58 24 -127 73 -166c-7 -9 -15 -18 -23 -25c-14 -13 -48 -41 -74 -26
c-33 19 -53 98 -23 228c5 21 11 43 18 65c3 1 7 3 10 5c59 37 118 92 165 154c45 59 75 119 83 166c6 33 1 60 -15 80c-14 17 -34 24 -57 19s-48 -24 -77 -57c-24 -28 -49 -66 -74 -109c-55 -96 -99 -208 -122 -307c-18 -74 -21 -138 -12 -191c12 -69 44 -100 68 -114
c16 -9 34 -14 52 -14zM283 625c0 -3 0 -6 -1 -10c-10 -56 -66 -145 -142 -215c15 34 32 67 49 99c23 39 46 73 67 98c11 14 21 23 27 28zM227 227c5 0 7 -3 9 -5c9 -14 13 -49 3 -94l-9 -27c-24 25 -40 63 -37 93c2 20 13 26 22 30c5 2 9 3 12 3z" />
    <glyph glyph-name="e_e" horiz-adv-x="682" 
d="M442 -66h3c24 0 50 5 80 16c150 53 200 184 202 189c7 19 -3 39 -21 46c-19 7 -39 -3 -46 -21c0 0 -10 -26 -33 -57c-33 -42 -75 -72 -125 -90c-28 -10 -66 -19 -87 -4c-15 10 -25 32 -30 68c144 43 223 90 247 149c13 30 10 63 -8 95c-11 20 -29 34 -51 39
c-18 5 -39 4 -61 -3c-44 -12 -94 -46 -134 -89c-26 -28 -69 -83 -69 -143c-1 0 -76 -71 -152 -100c-31 -12 -57 -17 -76 -16c-19 2 -26 9 -28 12c-10 12 -14 36 -11 67c1 3 1 6 2 10c45 6 98 25 145 52c31 18 88 56 108 104c14 29 11 59 -7 83c-19 26 -49 39 -83 36
c-43 -3 -84 -30 -111 -52c-34 -29 -65 -66 -86 -105c-34 -63 -65 -180 -10 -242c18 -21 44 -33 76 -36c30 -2 65 5 106 20c53 21 104 56 137 83c9 -37 25 -70 56 -91c19 -13 41 -19 67 -20zM213 306h3c10 0 14 -3 17 -8c1 -1 3 -4 -1 -12c-15 -36 -90 -86 -163 -107
c1 3 2 5 4 8c36 67 103 117 140 119zM549 296c3 0 5 0 7 -1c3 -1 5 -2 7 -5c9 -16 7 -26 4 -33c-5 -11 -21 -33 -75 -60c-28 -14 -64 -28 -107 -41c8 20 23 44 45 68c31 33 71 60 102 69c7 2 13 3 17 3z" />
    <glyph glyph-name="l_l" horiz-adv-x="490" 
d="M91 -37h7c43 4 90 36 144 100c4 -18 10 -34 19 -48c18 -27 46 -44 82 -49h13c28 0 55 10 80 31c21 17 41 41 60 71c30 50 48 100 49 102c7 18 -3 38 -22 45c-18 7 -38 -3 -45 -22c0 0 -16 -44 -43 -87c-17 -28 -50 -73 -83 -69c-20 2 -27 10 -32 17c-8 12 -15 39 -7 98
c1 3 2 7 2 11c5 8 10 14 12 19c33 20 152 101 203 220c61 141 67 231 20 269c-12 9 -27 12 -42 7c-18 -5 -37 -22 -63 -56c-19 -25 -40 -57 -63 -94c-45 -77 -83 -155 -97 -200l-6 -23c-10 -34 -23 -74 -31 -115c-12 -18 -27 -40 -45 -62c-66 -84 -101 -93 -110 -94
c-5 0 -9 0 -16 8c-23 28 -25 78 -6 149c0 1 0 2 1 3c91 71 171 161 227 253c27 44 47 87 58 125c13 43 15 79 7 108c-12 39 -40 45 -51 46c-35 2 -72 -30 -121 -106c-37 -57 -70 -122 -87 -160l-21 -45c-26 -56 -62 -132 -82 -206c-11 -42 -16 -78 -15 -111
c2 -40 13 -75 35 -101c18 -22 42 -34 69 -34zM298 642c0 -31 -15 -85 -60 -158c-29 -49 -67 -98 -110 -143c7 15 14 30 20 44l22 46c19 43 48 97 74 140c25 38 42 60 54 71zM510 589c0 -5 -1 -12 -2 -20c-4 -36 -19 -84 -43 -139c-27 -62 -78 -113 -119 -147l1 1
c2 9 4 16 7 24c11 37 45 108 85 176c20 34 40 64 57 87c5 7 10 13 14 18z" />
    <glyph glyph-name="o_r" horiz-adv-x="746" 
d="M76 -43c4 0 9 1 14 1c44 5 85 32 111 54c18 14 35 31 50 49c24 -8 48 -9 72 -4c35 7 69 28 99 62c21 24 41 54 58 90c9 17 16 33 23 48c13 -8 23 -16 28 -25c7 -13 4 -38 -10 -72c-15 -35 -22 -67 -23 -94c-1 -41 15 -64 28 -75c11 -10 30 -20 60 -16c19 2 41 10 64 24
c97 59 146 148 148 152c9 17 3 39 -15 48c-17 9 -38 3 -48 -15c0 0 -42 -76 -122 -124c-24 -15 -38 -16 -41 -15c-3 5 -9 31 14 88s26 99 7 133c-14 27 -39 43 -66 59c1 2 1 3 1 5c4 15 5 28 4 38c-3 24 -16 35 -24 39c-25 13 -55 0 -71 -30c-9 -15 -12 -32 -10 -47
c2 -13 7 -24 15 -34c-6 -15 -14 -33 -25 -56c-33 -66 -71 -107 -108 -114c-4 -1 -9 -1 -13 -1c39 70 49 138 26 194c-15 40 -46 62 -82 62c-24 -1 -49 -11 -70 -30c-19 -17 -35 -41 -44 -66c-2 -4 -3 -8 -4 -12c-13 8 -31 7 -43 -4c-34 -33 -63 -80 -80 -129
c-17 -52 -18 -99 -2 -133c15 -32 43 -50 79 -50zM257 292c14 -36 4 -86 -27 -139c-3 2 -7 5 -10 8c-42 37 -35 78 -28 99c12 32 37 50 49 50zM117 206c6 -36 25 -71 56 -98l14 -12c-34 -37 -75 -64 -106 -67c-15 -2 -17 3 -20 8c-5 12 -7 41 6 81c11 33 29 64 50 88z" />
    <glyph glyph-name="t_h" horiz-adv-x="791" 
d="M840 198c17 -11 21 -33 10 -49c-9 -14 -94 -137 -159 -174c-46 -25 -88 -26 -115 -2c-19 17 -27 42 -25 76c2 30 11 66 29 112c18 43 14 71 3 79c-10 7 -31 4 -51 -14c-22 -20 -43 -56 -73 -106c-24 -40 -54 -91 -95 -152c-7 -9 -18 -15 -30 -15c-2 0 -5 0 -8 1
c-14 4 -25 16 -27 30c0 3 -4 34 -3 81c-14 -12 -29 -25 -45 -38c-38 -30 -72 -51 -103 -63c-21 -8 -40 -11 -55 -11c-27 0 -47 10 -60 20c-29 23 -43 61 -40 112c1 39 12 87 33 146c7 19 14 40 23 61c-15 3 -29 7 -44 10c-19 4 -31 23 -26 43c4 19 23 31 42 26l57 -12
c35 78 75 157 111 225c9 17 31 24 48 15s24 -31 15 -48c-33 -62 -70 -135 -103 -206c59 -10 117 -15 167 -9c10 2 21 3 31 6c35 104 77 184 108 236c27 44 49 73 63 90c30 36 43 41 54 43c21 3 45 -9 60 -31c11 -16 21 -46 11 -95c-9 -43 -33 -96 -72 -156
c-32 -51 -68 -89 -111 -116c-18 -12 -37 -21 -57 -29c-5 -15 -9 -30 -13 -46c-7 -25 -11 -49 -15 -72c2 -7 1 -15 -3 -22l-3 -37c11 18 20 35 29 50c33 55 56 95 87 122c20 18 43 30 67 34c26 4 51 -1 71 -15c22 -15 35 -39 39 -68c4 -28 -1 -60 -16 -96
c-30 -75 -25 -102 -23 -107c4 -1 15 1 33 11c38 21 103 103 135 150c11 17 33 21 49 10zM508 528c-21 -35 -46 -84 -70 -144c27 20 51 48 73 83c47 73 61 118 64 143c1 7 1 12 1 17c-16 -19 -40 -51 -68 -99zM207 83c43 34 81 72 97 90c4 26 10 54 17 83l3 10
c-63 -8 -133 -1 -204 12c-10 -24 -19 -48 -27 -71c-18 -51 -28 -94 -30 -125c0 -19 1 -43 14 -54c11 -8 31 -3 46 3c23 9 52 27 84 52z" />
    <glyph glyph-name="uniFB01" unicode="&#xfb01;" horiz-adv-x="574" 
d="M25 -275c20 0 41 9 61 27c19 16 37 39 51 67c16 31 28 67 36 106c9 44 13 93 12 145c-1 25 -3 51 -6 77c21 -15 47 -26 79 -26h4c23 1 47 8 72 20c-15 -57 -8 -107 20 -141c19 -23 47 -36 78 -37c29 -1 60 9 91 28c26 16 54 48 87 97c22 35 38 65 39 66c9 17 3 39 -15 48
c-17 9 -38 3 -48 -15c-22 -42 -70 -116 -101 -136c-32 -20 -62 -22 -76 -5c-14 15 -15 46 -5 83c9 29 29 75 77 134l35 41c12 15 11 37 -4 49c-14 13 -36 12 -49 -2s-25 -27 -35 -41c-35 -37 -66 -67 -94 -86c-28 -20 -53 -31 -74 -32c-30 -1 -52 20 -82 51
c-9 10 -19 21 -29 30c-6 4 -13 7 -20 8l1 4c3 1 5 2 6 3c65 43 133 106 188 173c34 40 91 117 103 181c5 27 1 50 -11 68c-14 19 -35 28 -58 24c-24 -3 -50 -19 -79 -49c-25 -25 -52 -60 -79 -100c-59 -89 -111 -198 -147 -307c-45 -137 -76 -257 -90 -349
c-8 -49 -10 -89 -8 -119c4 -43 20 -70 47 -80c7 -3 15 -5 23 -5zM358 659c-1 -7 -4 -17 -9 -31c-11 -26 -30 -58 -56 -92c-30 -40 -67 -81 -106 -116c22 44 47 87 72 126c24 36 49 67 70 89c13 13 22 20 29 24zM537 423h2c17 1 33 9 42 15c19 11 30 24 34 38
c5 18 -2 36 -18 47c-12 7 -26 7 -37 1c-10 10 -25 13 -39 7c-26 -11 -39 -38 -33 -67c6 -24 26 -41 49 -41zM100 193c15 -82 18 -157 9 -224c-11 -80 -37 -125 -51 -144c-12 -16 -23 -24 -29 -27c-3 12 -9 48 8 142c12 71 34 157 63 253z" />
    <glyph glyph-name="uniFB02" unicode="&#xfb02;" horiz-adv-x="573" 
d="M9 -285c16 0 37 7 60 31c39 39 73 109 92 188c10 43 19 101 15 169c5 -2 10 -5 15 -7c38 -16 84 -14 140 6c0 -6 1 -13 2 -19c7 -56 32 -96 69 -112c18 -8 39 -10 60 -5c19 5 39 16 59 31c39 31 78 83 117 155c9 17 3 39 -14 48c-18 9 -39 3 -48 -14
c-69 -127 -125 -159 -146 -150c-16 7 -31 43 -28 100c62 37 126 101 182 182c58 83 102 178 118 252c13 60 7 105 -18 132c-17 19 -39 27 -63 23c-27 -6 -53 -27 -83 -68c-21 -29 -44 -70 -69 -120c-39 -78 -82 -184 -115 -282c-8 -25 -15 -50 -18 -74
c-52 -23 -93 -30 -117 -20c-20 8 -31 27 -42 47c-10 18 -21 36 -39 46c-4 2 -7 3 -10 3l3 8c74 43 146 108 203 182c52 68 86 137 94 188c5 32 -1 57 -17 74c-17 17 -38 24 -62 20c-39 -7 -82 -48 -131 -124c-47 -74 -98 -178 -151 -309c-54 -133 -92 -252 -112 -347
c-9 -44 -14 -83 -15 -115c-1 -34 3 -61 13 -80c12 -24 29 -33 41 -37c5 -1 9 -2 15 -2zM358 658c1 -7 -1 -20 -8 -42c-10 -28 -27 -61 -50 -95c-32 -48 -72 -92 -115 -130c34 73 66 134 96 180c42 65 68 82 77 87zM632 654c5 -7 9 -28 1 -69c-23 -107 -110 -256 -209 -344
c32 92 72 191 108 264c58 118 91 143 100 149zM96 174c22 -114 2 -209 -13 -258c-15 -47 -32 -78 -44 -96c-10 -15 -19 -24 -25 -29c-1 6 -3 15 -3 29c-1 27 3 60 11 101c13 70 39 156 74 253z" />
    <glyph glyph-name="v_a" horiz-adv-x="786" 
d="M391 -51c35 0 76 16 120 48c11 8 22 17 33 27c4 -14 10 -26 19 -36c16 -20 41 -30 70 -29c26 2 53 11 83 29c59 35 110 140 116 152c8 17 0 39 -17 47c-18 8 -39 1 -48 -17c-17 -37 -57 -103 -87 -121c-35 -21 -58 -21 -64 -15c-4 5 -6 19 0 40c3 13 10 30 23 52l36 51
c9 14 7 31 -3 43c12 6 19 18 19 31c0 38 -18 71 -49 89c-44 25 -108 20 -167 -14c-45 -26 -84 -61 -112 -100c-36 -49 -56 -106 -60 -167c-4 -76 39 -99 58 -106c10 -3 20 -4 30 -4zM71 -47h5c42 0 82 25 122 77c31 41 59 93 86 144c21 41 42 79 61 106c11 16 8 38 -8 49
c-16 12 -38 8 -50 -8c-22 -31 -43 -71 -66 -113c-25 -49 -52 -99 -80 -135c-24 -31 -45 -48 -63 -49c-2 4 -4 14 -6 35c-2 26 -3 63 -5 110c0 16 -1 34 -1 54c-1 19 -17 35 -37 34c-19 -1 -35 -17 -34 -37c1 -19 1 -36 1 -53c2 -68 3 -114 9 -144c4 -21 10 -35 19 -47
c8 -10 22 -22 47 -23zM578 285c12 0 22 -3 29 -7c6 -3 13 -10 13 -27c0 -8 4 -16 9 -23c-4 -2 -8 -5 -11 -9c-15 -17 -27 -35 -38 -52c-44 -58 -84 -93 -111 -112c-46 -34 -76 -37 -85 -34c-11 3 -10 27 -10 34c7 117 89 182 137 209c25 15 49 21 67 21z" />
    <glyph glyph-name="v_r" horiz-adv-x="776" 
d="M825 146c0 -7 -2 -14 -6 -20c-12 -25 -63 -117 -162 -164c-20 -10 -39 -15 -56 -14c-21 0 -39 7 -52 21c-12 12 -26 35 -22 76c3 27 13 58 30 92c32 65 18 80 -33 121c-17 -52 -42 -114 -83 -151c-22 -20 -44 -34 -64 -41c-29 -10 -52 -5 -66 1c-22 9 -40 28 -52 57
c-13 -19 -27 -37 -39 -53c-26 -34 -51 -64 -72 -86c-35 -38 -52 -47 -67 -49h-8c-14 0 -26 4 -36 13c-19 16 -28 44 -33 97c-4 44 -5 108 -5 171c0 19 16 35 36 35c19 0 35 -16 35 -35c0 -78 1 -123 4 -156c2 -22 4 -36 6 -45c17 17 49 51 91 107c26 35 51 70 69 100v7
c-2 61 15 105 46 119c16 7 34 4 46 -8c13 -13 24 -38 5 -88c-6 -13 -14 -30 -25 -48c5 -47 18 -69 27 -73c8 -3 26 2 55 28c36 33 58 107 73 156c0 0 0 1 1 2c-3 6 -4 11 -5 16c-3 18 0 36 9 50c13 20 35 28 55 19c7 -4 24 -15 24 -43c0 -9 -2 -18 -5 -29l15 -12
c31 -24 60 -47 74 -80c17 -38 12 -80 -15 -134s-23 -81 -21 -86c3 -1 12 0 27 7c78 37 119 112 129 130c4 15 18 26 34 26c20 0 36 -16 36 -36z" />
    <glyph glyph-name="w_r" horiz-adv-x="996" 
d="M305 -55c3 0 6 0 9 1c21 2 43 14 70 40c20 19 42 45 64 75c14 20 28 40 40 60c15 -23 42 -44 90 -44c29 0 57 11 81 32c19 16 36 38 51 66c14 26 25 55 34 81c17 -13 29 -26 35 -39c10 -21 7 -46 -8 -76c-16 -33 -26 -61 -28 -84c-4 -35 7 -56 18 -68
c25 -29 71 -33 129 -11c38 14 76 46 111 96c25 36 40 67 41 69c8 17 1 39 -17 47s-39 1 -47 -17c-14 -29 -62 -110 -113 -129c-29 -11 -47 -10 -51 -7c-1 2 -5 20 20 72c26 50 29 97 10 138c-15 30 -40 56 -79 81c3 12 5 22 6 30c0 7 0 13 -1 18c-3 14 -11 25 -24 30
c-15 5 -30 1 -42 -10c-4 -4 -7 -9 -10 -15c-7 -15 -10 -34 -9 -51l3 -15c-18 -60 -53 -167 -110 -167c-26 0 -40 7 -44 63c5 12 9 22 12 33c12 40 10 68 -8 83c-12 10 -28 12 -42 6c-32 -15 -35 -65 -35 -86c0 -8 1 -16 1 -24c-16 -36 -41 -77 -68 -116
c-49 -68 -80 -89 -87 -91c-5 0 -6 1 -7 2c-2 2 -13 18 -9 76c2 40 10 91 25 156c4 17 -6 35 -24 41c-17 6 -36 -3 -43 -19c-25 -58 -56 -123 -90 -173c-24 -35 -59 -76 -94 -76c-3 3 -13 18 -11 57c2 33 13 89 54 170c9 17 2 39 -15 48c-18 8 -39 2 -48 -16
c-32 -62 -52 -122 -59 -174c-7 -50 -2 -91 16 -119c14 -23 37 -37 62 -37c30 0 59 11 88 33c22 18 43 42 65 74c1 0 1 1 2 2c1 -42 11 -71 28 -90c10 -12 29 -26 58 -26z" />
    <glyph glyph-name="ordfeminine" unicode="&#xaa;" horiz-adv-x="410" 
d="M181 418c16 0 36 5 59 21c15 11 31 23 46 36c2 -7 5 -14 10 -21c11 -16 30 -26 51 -26c52 0 95 41 145 136c9 17 2 39 -15 48s-39 2 -48 -15c-29 -57 -56 -90 -76 -97c0 10 1 33 18 77c3 7 3 15 1 23c8 4 15 12 18 21c8 29 -1 59 -24 81c-28 25 -68 31 -106 16
c-31 -12 -69 -44 -99 -83c-21 -26 -55 -78 -55 -133c0 -34 16 -63 42 -77c7 -3 19 -7 33 -7zM180 489c-1 1 -3 6 -3 13c0 24 14 58 39 90c26 33 55 54 70 60c14 6 26 2 32 -3c0 -1 4 -4 3 -8c-2 -7 -1 -13 1 -20c-8 -4 -14 -10 -17 -18c-9 -21 -51 -67 -107 -106
c-10 -7 -16 -8 -18 -8z" />
    <glyph glyph-name="ordmasculine" unicode="&#xba;" horiz-adv-x="310" 
d="M416 567c0 -16 -10 -29 -24 -34c-4 -1 -34 -8 -63 7c-8 -13 -17 -25 -27 -36c-33 -39 -71 -61 -106 -64h-6c-31 0 -58 17 -71 47c-9 19 -11 43 -7 68c4 22 12 44 25 67c16 30 40 58 66 80c30 25 62 40 94 44c12 2 24 -3 31 -12c12 1 23 -3 33 -10c20 -14 28 -40 21 -65
c-6 -19 -12 -38 -20 -56c1 -1 1 -1 2 -1c2 -1 5 -1 7 -1c3 1 6 2 10 2c20 0 35 -16 35 -36zM248 551c11 12 24 29 36 53c-5 24 -8 45 -7 62c-10 -4 -19 -11 -29 -19c-19 -16 -37 -37 -49 -60c-16 -28 -22 -56 -15 -71c2 -5 3 -5 7 -5c12 1 33 12 57 40z" />
    <glyph glyph-name="zero" unicode="0" horiz-adv-x="660" 
d="M281 -104c166 0 303 192 343 348c16 62 22 132 18 198c-4 51 -16 123 -54 176c-22 32 -51 53 -83 62c3 4 6 9 7 15c5 19 -7 38 -26 43c-66 15 -128 5 -186 -31c-111 -69 -178 -219 -204 -335c-16 -73 -33 -178 -21 -270c19 -139 95 -186 156 -200c17 -4 34 -6 50 -6z
M428 674c7 0 14 -1 21 -1c-5 -6 -8 -13 -9 -20c-1 -20 13 -37 33 -39c22 -2 41 -14 57 -37c22 -31 37 -81 41 -141c4 -57 -1 -119 -16 -174c-19 -77 -66 -160 -120 -216c-43 -45 -110 -93 -188 -75c-57 14 -91 60 -101 141c-11 81 5 178 19 244c22 98 81 233 173 291
c29 18 59 27 90 27z" />
    <glyph glyph-name="one" unicode="1" horiz-adv-x="392" 
d="M291 331c-24 -100 -45 -183 -64 -245c-11 -41 -21 -70 -30 -92c44 4 81 4 108 -9c18 -8 25 -29 17 -47c-9 -18 -30 -25 -48 -17c-3 2 -13 5 -39 4c-22 0 -47 -3 -74 -6c-35 -3 -70 -7 -102 -7c-27 0 -52 3 -74 9c-19 6 -29 26 -23 45s26 29 44 23c27 -8 68 -7 110 -3
c5 8 18 35 45 124c18 62 39 143 62 241c20 84 39 167 52 229c-34 -26 -77 -55 -127 -80c-18 -9 -39 -2 -48 15c-9 18 -2 39 16 48c111 56 190 136 190 137c11 11 29 14 42 7c14 -8 22 -23 19 -39c-1 -2 -35 -167 -76 -337z" />
    <glyph glyph-name="two" unicode="2" horiz-adv-x="599" 
d="M416 -78c50 0 97 11 135 40c16 12 19 34 7 50c-12 15 -34 18 -50 6c-32 -24 -79 -31 -146 -21c-32 5 -65 14 -96 23c24 23 49 48 74 77c88 99 162 216 193 303c18 50 25 99 20 144c-4 42 -18 80 -40 112c-36 51 -93 82 -151 82c-33 0 -68 -10 -100 -28s-59 -44 -79 -75
c-41 -64 -44 -140 -9 -216c8 -17 29 -25 47 -17c17 8 25 29 17 47c-31 68 -14 118 5 148c27 42 74 70 119 70c35 0 70 -19 93 -52c20 -28 47 -90 11 -191c-28 -78 -98 -188 -179 -280c-37 -42 -70 -74 -100 -97h-2c-36 13 -64 23 -86 26c-36 6 -75 -9 -96 -37
c-15 -21 -18 -47 -8 -68c10 -19 34 -42 94 -43h2c31 0 67 14 109 42c65 -22 143 -45 216 -45zM66 -1c5 3 13 6 22 4c5 -1 12 -2 19 -4c-6 -2 -12 -3 -17 -3c-11 0 -18 1 -24 3z" />
    <glyph glyph-name="three" unicode="3" horiz-adv-x="542" 
d="M215 -112c62 0 119 22 165 62c41 36 71 87 85 143c15 57 11 117 -9 169c-16 43 -43 79 -78 108c32 29 59 66 77 106c25 56 31 113 18 161c-10 32 -28 58 -53 76c-27 20 -60 30 -100 30c-6 0 -31 -4 -58 -14c-40 -14 -71 -35 -92 -63c-21 -27 -41 -73 -22 -142
c5 -19 24 -30 43 -25s30 24 25 43c-8 32 -6 57 7 77c24 35 78 49 99 53c45 -1 72 -19 82 -55c9 -31 4 -72 -14 -112c-20 -44 -52 -82 -92 -107c-11 -7 -17 -19 -17 -31c1 -13 8 -24 19 -30c100 -54 114 -156 97 -227c-18 -69 -76 -151 -182 -151c-45 0 -78 38 -91 76
c-5 15 -18 68 25 101c16 11 19 34 7 49c-11 16 -34 19 -49 7c-29 -21 -48 -50 -56 -85c-7 -30 -5 -63 6 -95c11 -33 31 -64 57 -86c30 -24 64 -38 101 -38z" />
    <glyph glyph-name="four" unicode="4" horiz-adv-x="508" 
d="M303 -89c18 0 34 14 35 33c9 91 24 184 39 265c44 -1 84 2 118 18c18 8 26 29 17 47c-8 17 -29 25 -47 17c-19 -8 -45 -11 -74 -11c7 37 14 70 20 96c34 147 64 244 80 275c8 16 3 36 -12 46s-35 7 -47 -7c-105 -124 -227 -245 -316 -334c-42 -43 -76 -76 -97 -100
c-11 -12 -13 -29 -4 -43c8 -13 25 -20 40 -15c87 25 174 20 250 14c-14 -79 -29 -171 -37 -262c-2 -19 12 -36 32 -38c1 0 2 -1 3 -1zM203 288c-18 0 -37 -1 -56 -2c6 6 13 13 20 19c59 60 132 133 206 213c-10 -39 -21 -81 -31 -127c-7 -28 -15 -65 -23 -108h-9
c-34 3 -70 5 -107 5z" />
    <glyph glyph-name="five" unicode="5" horiz-adv-x="513" 
d="M178 -83c9 0 18 0 28 1c63 6 128 32 184 72c42 30 71 70 84 115c12 43 10 88 -6 131c-21 53 -62 99 -116 129c-45 25 -98 38 -155 39l76 226c47 -6 136 -12 213 16c19 6 28 27 22 45c-7 19 -28 28 -46 21c-88 -32 -204 -7 -205 -7c-18 4 -36 -7 -41 -24l-102 -303
c-4 -11 -2 -24 5 -33c8 -10 20 -15 32 -13c145 15 226 -56 250 -121c24 -61 4 -122 -53 -163c-46 -34 -99 -55 -149 -59c-43 -5 -80 4 -102 23c-12 11 -19 24 -20 42c-1 22 7 50 23 80c10 17 3 39 -14 48c-17 10 -39 3 -48 -14c-23 -43 -34 -83 -32 -119s18 -67 44 -90
c31 -28 76 -42 128 -42z" />
    <glyph glyph-name="six" unicode="6" horiz-adv-x="592" 
d="M274 -98c9 0 18 1 27 2c52 6 103 29 144 64c45 38 76 88 88 142c10 44 8 88 -6 130s-39 78 -74 103c-36 26 -80 39 -128 37c-52 -2 -108 -20 -166 -54c-3 -2 -6 -4 -8 -7c40 128 128 238 187 288c60 50 113 60 139 48c14 -7 22 -22 22 -45c0 -20 16 -35 35 -35
c20 0 36 15 36 35c0 51 -23 90 -63 109c-29 14 -65 15 -103 4c-37 -10 -75 -31 -112 -62c-32 -27 -66 -64 -97 -106c-37 -49 -68 -102 -91 -155c-59 -140 -61 -275 -4 -391c34 -68 98 -107 174 -107zM142 288c1 -4 3 -8 5 -11c10 -17 31 -23 48 -13c88 52 165 60 217 22
c45 -33 66 -97 52 -160c-20 -88 -101 -143 -171 -151c-34 -4 -96 -1 -129 66c-40 81 -41 166 -22 247z" />
    <glyph glyph-name="seven" unicode="7" horiz-adv-x="439" 
d="M512 719c11 -12 13 -31 3 -45c-72 -99 -140 -207 -195 -309h30c27 0 59 1 66 2c19 4 38 -8 42 -27s-8 -38 -27 -42c-10 -3 -28 -3 -81 -4c-20 0 -43 0 -68 -1c-9 -18 -18 -36 -26 -54c-33 -70 -56 -131 -69 -181c-16 -64 -10 -92 -6 -102c8 -18 0 -39 -18 -47
c-5 -2 -10 -3 -14 -3c-14 0 -27 8 -33 21c-15 35 -14 83 2 148c14 54 38 120 73 194c3 7 7 14 10 21c-43 -2 -84 -7 -108 -14c-4 -1 -7 -2 -11 -2c-15 0 -29 10 -34 26c-5 19 5 38 24 44c40 12 103 17 166 19c45 86 100 178 159 266c-18 -3 -36 -6 -55 -7
c-72 -6 -143 3 -199 25c-18 8 -27 28 -20 46c7 19 28 28 46 20c102 -40 332 18 343 6z" />
    <glyph glyph-name="eight" unicode="8" horiz-adv-x="561" 
d="M234 -96c67 0 122 13 166 37c44 25 74 60 88 104c18 51 12 109 -16 168c-21 46 -56 90 -100 130c37 31 69 72 92 116c33 62 43 123 29 173c-10 32 -29 59 -57 77c-28 19 -65 28 -109 29h-2c-76 0 -148 -56 -173 -133c-14 -45 -12 -94 8 -140c17 -41 46 -79 87 -114
c-63 -27 -117 -74 -152 -133c-35 -58 -49 -123 -38 -179c7 -40 26 -73 56 -97c31 -25 72 -38 121 -38zM326 667c55 -1 88 -19 98 -54c9 -32 1 -76 -23 -121c-20 -40 -51 -77 -86 -104c-81 60 -116 131 -95 195c15 48 60 84 106 84zM311 301c44 -36 77 -77 97 -119
s24 -81 13 -115c-9 -27 -27 -48 -55 -64c-34 -18 -78 -28 -132 -28c-61 0 -98 27 -108 77c-15 79 45 193 156 236c10 4 20 8 29 13z" />
    <glyph glyph-name="nine" unicode="9" horiz-adv-x="598" 
d="M224 -111c6 0 13 1 20 2c40 4 81 21 124 50c71 49 125 124 158 224c27 79 41 173 41 273c0 88 -22 163 -63 217c-40 51 -95 80 -156 80c-29 0 -57 -5 -84 -15c-30 -11 -56 -27 -78 -48c-35 -33 -77 -95 -77 -201c0 -45 7 -85 20 -118c15 -34 36 -61 65 -80
c34 -23 78 -34 130 -31c47 2 100 16 158 40c-18 -103 -60 -218 -154 -282c-68 -47 -120 -46 -145 -29c-16 11 -23 29 -19 49c4 19 -8 38 -27 42s-38 -8 -42 -27c-6 -24 -4 -47 5 -69s24 -40 43 -54c23 -15 50 -23 81 -23zM348 664c38 0 74 -19 100 -53
c31 -41 48 -100 48 -173c0 -24 -1 -56 -5 -93c-9 6 -22 8 -33 3c-52 -21 -98 -33 -138 -35c-36 -2 -65 4 -87 19c-35 24 -53 71 -53 139c0 143 91 193 168 193z" />
    <glyph glyph-name="onehalf" unicode="&#xbd;" horiz-adv-x="743" 
d="M70 318c-18 9 -25 30 -16 47c9 18 30 25 47 16c1 0 7 -3 26 -3h28l57 238c-6 -4 -13 -9 -20 -13c-17 -10 -39 -5 -49 12s-5 39 12 49c52 32 90 66 91 66c11 10 28 12 42 4c13 -8 20 -24 16 -39l-75 -314c23 0 43 -5 56 -17c15 -14 16 -36 3 -50c-7 -8 -17 -12 -27 -12
c-7 0 -14 2 -21 7c-10 3 -41 1 -59 0c-43 -3 -83 -5 -111 9zM566 725c17 -9 24 -31 15 -48c-246 -470 -391 -705 -471 -761c-6 -4 -13 -6 -20 -6c-12 0 -23 5 -30 15c-11 16 -7 38 9 50c27 19 85 85 206 291c88 149 181 325 243 444c9 17 31 24 48 15zM699 49
c11 -16 7 -38 -10 -49c0 -1 -1 -1 -2 -1c-7 -6 -23 -16 -44 -25c-20 -7 -39 -11 -57 -11c-20 0 -38 4 -55 13c-15 8 -35 16 -56 22c-32 -21 -60 -29 -83 -24c-23 4 -39 20 -45 43c-5 20 1 39 17 51c12 9 35 20 96 7c29 25 63 62 97 108c22 29 36 55 41 77c3 16 3 29 -3 40
c-11 25 -42 35 -50 36c-5 0 -27 -8 -36 -26c-9 -17 -5 -38 12 -63c11 -16 7 -38 -10 -49c-16 -11 -38 -7 -49 10c-44 66 -28 115 -14 138c23 41 70 63 102 61c16 -1 37 -8 55 -19c25 -14 44 -34 55 -58c12 -26 14 -54 7 -85c-7 -33 -25 -68 -53 -105
c-26 -35 -52 -64 -76 -89l26 -12c34 -18 83 18 84 18c0 1 1 1 2 2c16 11 38 6 49 -10z" />
    <glyph glyph-name="onequarter" unicode="&#xbc;" horiz-adv-x="686" 
d="M50 308c-18 9 -25 30 -16 47c9 18 30 25 47 16c1 0 7 -3 26 -3h28l57 238c-6 -4 -13 -9 -20 -13c-17 -10 -39 -5 -49 12s-5 39 12 49c52 32 90 66 91 66c11 10 28 12 42 4c13 -8 20 -24 16 -39l-75 -314c23 0 43 -5 56 -17c15 -14 16 -36 3 -50c-7 -8 -17 -12 -27 -12
c-7 0 -14 2 -21 7c-10 3 -41 1 -59 0c-43 -3 -83 -5 -111 9zM546 715c17 -9 24 -31 15 -48c-246 -470 -391 -705 -471 -761c-6 -4 -13 -6 -20 -6c-12 0 -23 5 -30 15c-11 16 -7 38 9 50c27 19 85 85 206 291c88 149 181 325 243 444c9 17 31 24 48 15zM663 162
c6 -19 -4 -38 -23 -44s-39 -10 -59 -12c-9 -49 -12 -92 -7 -117c4 -19 -8 -38 -27 -42c-2 -1 -5 -1 -8 -1c-16 0 -30 11 -34 28c-7 30 -6 74 4 131h-9c-34 1 -67 1 -91 -6c-15 -4 -32 3 -40 17c-9 15 -6 33 7 44c23 21 48 42 71 62c56 47 114 96 128 128c8 17 28 26 46 18
c18 -7 27 -27 20 -45c-16 -43 -32 -93 -44 -143c7 1 15 3 22 5c19 6 38 -4 44 -23zM523 176c1 7 3 14 5 21l-25 -21h20z" />
    <glyph glyph-name="threequarters" unicode="&#xbe;" horiz-adv-x="733" 
d="M298 535c20 -20 38 -45 44 -74c6 -28 0 -56 -17 -81c-25 -36 -85 -74 -140 -74h-5c-34 2 -63 19 -80 49c-15 27 -13 59 5 91c12 19 27 33 29 34c14 13 35 12 48 -1c14 -14 14 -37 0 -50c0 -1 -1 -1 -1 -1c-8 -7 -24 -29 -19 -39c4 -6 9 -11 21 -12c28 -1 69 23 83 43
c8 12 8 21 6 27c-3 17 -22 39 -50 57c-10 7 -16 18 -16 30s5 23 15 30c2 1 25 17 71 63c11 11 10 18 7 25c-7 17 -27 28 -34 29c-10 0 -25 -7 -30 -18c-5 -9 -3 -21 6 -36c11 -17 6 -39 -11 -49s-39 -5 -49 11c-31 51 -19 90 -8 109c9 17 23 30 41 40c16 9 34 14 51 14
c19 0 40 -8 58 -22c19 -13 34 -31 42 -51c15 -36 6 -73 -23 -102c-18 -18 -32 -32 -44 -42zM139 -90c7 0 14 2 20 6c80 56 226 291 471 761c10 17 3 39 -15 48c-17 9 -38 2 -47 -15c-63 -119 -156 -295 -243 -444c-121 -206 -179 -272 -206 -291c-16 -12 -20 -34 -9 -50
c7 -10 18 -15 29 -15zM598 -27c2 0 5 0 7 1c20 4 32 23 27 42c-5 25 -2 67 7 117c20 2 40 5 59 12c19 5 29 25 24 44c-6 19 -26 29 -45 23c-7 -2 -14 -4 -22 -5c12 49 28 100 44 143c7 18 -2 38 -20 45c-18 8 -38 -1 -46 -18c-14 -32 -72 -81 -127 -128
c-24 -20 -49 -41 -72 -62c-12 -11 -15 -29 -7 -44c8 -14 25 -21 41 -17c23 7 56 7 90 6h9c-9 -57 -11 -101 -4 -131c4 -17 18 -28 35 -28zM561 203c9 7 17 14 25 21c-2 -7 -3 -14 -5 -22c-7 1 -13 1 -20 1z" />
    <glyph glyph-name="uni00B9" unicode="&#xb9;" horiz-adv-x="307" 
d="M298 617c-6 -29 -14 -68 -26 -116c-10 -46 -22 -92 -30 -124c14 -1 27 -4 38 -9c18 -8 26 -29 18 -47c-6 -13 -19 -21 -33 -21c-4 0 -9 1 -14 3c-13 6 -47 5 -74 4s-55 -3 -78 2c-19 3 -32 22 -28 41c3 19 22 32 41 28c14 -2 35 -1 57 -1c7 27 19 75 30 124
c11 44 18 77 23 101l-19 -11c-17 -10 -39 -4 -48 13c-10 17 -4 39 13 48c14 9 56 34 72 51c13 12 31 15 46 6c22 -12 19 -38 18 -51c-1 -10 -3 -23 -6 -41z" />
    <glyph glyph-name="uni00B2" unicode="&#xb2;" horiz-adv-x="397" 
d="M300 290c30 0 61 7 88 25c17 11 21 33 10 49s-33 21 -49 10c-19 -13 -46 -16 -81 -10c-8 1 -16 3 -23 5c9 8 18 16 26 25c37 38 68 84 87 129c11 29 18 56 19 81c1 30 -6 57 -20 79c-24 35 -54 46 -75 49c-25 4 -53 -2 -78 -17c-26 -17 -47 -44 -57 -73
c-11 -34 -7 -70 11 -102c10 -17 32 -23 49 -13s23 32 13 49c-21 35 2 66 22 78c13 8 37 17 56 -11c12 -19 10 -53 -6 -93c-15 -36 -41 -75 -71 -106c-20 -21 -40 -36 -59 -46c-9 3 -16 6 -23 7c-14 4 -30 2 -46 -3c-9 -3 -26 -10 -35 -24c-10 -15 -11 -32 -1 -45
c13 -20 37 -20 45 -20c12 0 29 2 49 6l11 3c36 -14 87 -32 138 -32z" />
    <glyph glyph-name="uni00B3" unicode="&#xb3;" horiz-adv-x="334" 
d="M308 519c20 -20 38 -45 44 -74c6 -28 0 -56 -17 -81c-25 -36 -85 -74 -140 -74h-5c-34 2 -63 19 -80 49c-15 27 -13 59 5 91c11 18 24 31 28 34c6 6 15 10 25 10c19 0 35 -16 35 -36c0 -12 -6 -23 -15 -29c-8 -9 -21 -27 -16 -36c4 -6 9 -11 21 -12c28 -1 69 23 83 43
c8 12 8 21 6 27c-3 17 -22 39 -50 57c-10 7 -16 18 -16 30s5 23 15 30c2 1 25 17 71 63c11 11 10 18 7 25c-7 17 -27 29 -34 29c-10 0 -25 -7 -30 -18c-5 -9 -3 -21 6 -36c11 -17 6 -39 -11 -49s-39 -5 -49 11c-31 51 -19 90 -8 109c9 17 23 30 41 40c16 9 34 14 51 14
c19 0 40 -8 58 -22c19 -13 34 -31 42 -51c15 -36 6 -73 -23 -102c-18 -18 -32 -32 -44 -42z" />
    <glyph glyph-name="uni2074" unicode="&#x2074;" horiz-adv-x="318" 
d="M245 294h8c19 5 31 24 27 43c-5 24 -2 67 7 117c20 2 40 5 59 11s29 26 23 45c-6 18 -25 29 -44 23c-7 -2 -15 -4 -22 -5c12 49 28 100 44 143c6 18 -2 38 -20 45s-38 -1 -46 -19c-14 -31 -72 -80 -128 -127c-23 -21 -48 -41 -71 -63c-13 -11 -16 -29 -7 -43
c8 -15 25 -22 40 -17c24 7 57 6 91 5h9c-10 -57 -11 -100 -4 -131c4 -16 18 -27 34 -27zM229 523h-20c8 8 17 15 25 22c-2 -7 -4 -15 -5 -22z" />
    <glyph glyph-name="asterisk" unicode="*" horiz-adv-x="416" 
d="M465 591c18 -7 28 -28 21 -46c-5 -14 -19 -23 -33 -23c-4 0 -9 1 -13 2c-22 9 -51 11 -83 11c20 -26 38 -55 51 -89c7 -19 -3 -39 -21 -46c-4 -1 -8 -2 -12 -2c-15 0 -28 9 -34 23c-11 32 -30 59 -52 85c-21 -39 -44 -77 -69 -107c-7 -9 -17 -13 -27 -13
c-8 0 -16 3 -23 8c-15 13 -17 35 -5 50c20 24 39 54 57 87c-27 -1 -52 1 -76 6c-20 4 -32 22 -28 42c4 19 22 31 42 27c16 -3 34 -4 53 -4c-14 21 -26 43 -34 69c-6 18 4 38 23 44s39 -4 44 -23c7 -21 18 -40 31 -58c23 40 46 77 71 101c14 14 37 13 50 -1
c14 -14 13 -36 -1 -50c-17 -17 -36 -46 -54 -78c44 1 86 -2 122 -15z" />
    <glyph glyph-name="backslash" unicode="\" horiz-adv-x="604" 
d="M437 -140c7 0 14 2 20 6c16 11 20 34 9 50c-7 9 -23 44 -60 174c-25 91 -53 200 -80 305c-45 176 -73 286 -89 317c-9 18 -30 25 -47 16c-18 -8 -25 -30 -16 -47c13 -27 49 -167 83 -303c70 -273 118 -456 150 -503c7 -10 18 -15 30 -15z" />
    <glyph glyph-name="periodcentered" unicode="&#xb7;" horiz-adv-x="241" 
d="M58 152c0 -25 14 -37 41 -37c31 0 56 37 56 57c0 19 -11 29 -33 29c-28 0 -64 -28 -64 -49z" />
    <glyph glyph-name="bullet" unicode="&#x2022;" horiz-adv-x="272" 
d="M61 158c0 -27 21 -45 48 -45c36 0 78 36 78 64c0 29 -25 53 -58 53c-35 0 -68 -40 -68 -72z" />
    <glyph glyph-name="colon" unicode=":" horiz-adv-x="251" 
d="M88 261c0 -21 19 -33 40 -33c29 0 58 26 58 49c0 21 -11 31 -33 31c-31 0 -65 -23 -65 -47zM32 23c0 -21 19 -33 40 -33c29 0 58 26 58 49c0 21 -11 31 -33 31c-32 0 -65 -23 -65 -47z" />
    <glyph glyph-name="comma" unicode="," horiz-adv-x="216" 
d="M-30 -193c7 0 14 2 20 6c110 77 152 147 164 256c2 19 -11 37 -31 40c-19 2 -36 -11 -40 -31c-27 -145 -72 -164 -134 -206c-16 -11 -20 -33 -9 -49c7 -10 18 -16 30 -16z" />
    <glyph glyph-name="ellipsis" unicode="&#x2026;" horiz-adv-x="549" 
d="M28 28c0 -20 15 -38 44 -38c31 0 52 39 52 60s-11 31 -33 31c-27 0 -63 -30 -63 -53zM177 28c0 -20 15 -38 44 -38c31 0 52 39 52 60s-11 31 -33 31c-27 0 -63 -30 -63 -53zM335 28c0 -20 15 -38 44 -38c31 0 52 39 52 60s-11 31 -33 31c-27 0 -63 -30 -63 -53z" />
    <glyph glyph-name="exclam" unicode="!" horiz-adv-x="295" 
d="M107 110h5c19 2 33 20 31 40c-9 72 23 184 54 294c30 107 59 208 53 280c-2 20 -19 34 -38 33c-20 -2 -34 -19 -33 -38c5 -60 -23 -160 -50 -256c-33 -116 -67 -236 -57 -322c2 -18 18 -31 35 -31zM158 41c6 -26 -16 -53 -48 -60c-33 -7 -63 8 -69 34s16 52 48 60
c33 7 63 -9 69 -34z" />
    <glyph glyph-name="exclamdown" unicode="&#xa1;" horiz-adv-x="297" 
d="M136 428c-6 26 16 53 48 60c33 7 63 -8 69 -34s-16 -52 -48 -60c-33 -7 -63 9 -69 34zM187 359h-5c-19 -2 -33 -20 -31 -40c9 -72 -23 -184 -54 -294c-30 -107 -59 -208 -53 -280c2 -20 19 -34 38 -33c20 2 34 19 33 38c-5 60 23 160 50 256c33 116 67 236 57 322
c-2 18 -18 31 -35 31z" />
    <glyph glyph-name="numbersign" unicode="#" horiz-adv-x="720" 
d="M674 163c19 -1 35 -18 34 -37c-1 -20 -18 -35 -38 -34c-57 3 -121 6 -187 7l-12 -50c-30 -124 -64 -200 -104 -239c-7 -7 -16 -10 -25 -10s-18 4 -25 11c-14 14 -13 37 1 50c29 28 58 97 84 205c3 11 6 22 8 34c-53 0 -107 -1 -158 -3c-3 -16 -7 -32 -11 -48
c-30 -124 -63 -200 -104 -239c-7 -7 -16 -10 -25 -10s-18 4 -25 11c-14 14 -13 37 1 50c29 28 58 97 84 205c3 9 5 17 7 26c-47 -4 -89 -10 -125 -19c-3 0 -6 -1 -9 -1c-16 0 -30 11 -34 28c-5 19 7 38 26 42c43 10 95 18 157 22c11 58 22 118 31 175
c-50 -6 -94 -16 -132 -31c-5 -2 -9 -3 -14 -3c-14 0 -27 8 -33 22c-7 18 1 39 20 46c49 21 107 33 171 39c24 144 40 235 64 276c10 17 32 22 49 12s22 -31 12 -48c-17 -30 -35 -130 -52 -236c49 2 102 1 158 -1c23 142 40 233 63 273c10 17 32 22 49 12s22 -31 12 -48
c-17 -30 -35 -133 -53 -240c27 -1 54 -2 81 -4c18 -1 36 -2 54 -2c19 -1 35 -18 34 -38c-1 -19 -18 -34 -38 -33c-18 0 -35 1 -53 2c-31 2 -60 3 -90 5c-9 -56 -19 -115 -30 -172c55 -2 114 -4 177 -7zM267 169c48 1 100 2 158 2c11 57 22 117 31 173c-56 2 -109 3 -158 1
c-9 -58 -19 -118 -31 -176z" />
    <glyph glyph-name="period" unicode="." horiz-adv-x="211" 
d="M28 28c0 -20 15 -38 44 -38c31 0 52 39 52 60s-11 31 -33 31c-27 0 -63 -30 -63 -53z" />
    <glyph glyph-name="question" unicode="?" horiz-adv-x="462" 
d="M245 112c19 0 35 16 35 36c0 82 0 82 89 189c15 19 33 40 53 65c33 41 54 83 63 125c8 41 4 81 -12 114c-28 58 -86 92 -156 92c-33 0 -66 -8 -95 -23c-29 -16 -53 -39 -71 -66c-19 -30 -30 -65 -31 -101c-1 -39 8 -80 27 -121c8 -18 29 -26 47 -18c17 9 25 30 17 48
c-27 57 -27 112 0 153c23 36 62 57 106 57c43 0 76 -19 92 -51c21 -45 5 -106 -42 -164c-20 -25 -38 -46 -53 -65c-47 -56 -72 -87 -87 -119c-16 -35 -18 -69 -18 -115c0 -20 16 -36 36 -36zM291 42c6 -26 -16 -53 -48 -60s-63 8 -69 34s16 52 48 60c33 7 64 -9 69 -34z" />
    <glyph glyph-name="questiondown" unicode="&#xbf;" horiz-adv-x="437" 
d="M165 379c-6 26 16 53 48 60s63 -8 69 -34s-16 -52 -48 -60c-33 -7 -64 9 -69 34zM211 309c-19 0 -35 -16 -35 -36c0 -82 0 -82 -89 -189c-15 -19 -33 -40 -53 -65c-33 -41 -54 -83 -63 -125c-8 -41 -4 -81 12 -114c28 -58 86 -92 156 -92c33 0 66 8 95 23
c29 16 53 39 71 66c19 30 30 65 31 101c1 39 -8 80 -27 121c-8 18 -29 26 -47 18c-17 -9 -25 -30 -17 -48c27 -57 27 -112 0 -153c-23 -36 -62 -57 -106 -57c-43 0 -76 19 -92 51c-21 45 -5 106 42 164c20 25 38 46 53 65c47 56 72 87 87 119c16 35 18 69 18 115
c0 20 -16 36 -36 36z" />
    <glyph glyph-name="quotedbl" unicode="&#x22;" horiz-adv-x="270" 
d="M151 620c0 -20 9 -35 28 -44c27 59 38 80 66 107c0 24 -14 39 -31 39c-31 0 -63 -59 -63 -102zM266 617c0 -18 9 -32 27 -41c1 5 5 12 10 22l11 21l9 17c4 8 8 14 11 18c6 8 14 20 25 29c0 24 -12 39 -31 39c-32 0 -62 -61 -62 -105z" />
    <glyph glyph-name="quotesingle" unicode="'" horiz-adv-x="156" 
d="M151 620c0 -20 9 -35 28 -44l10 22c17 37 36 66 56 85l1 6c0 17 -16 33 -32 33c-31 0 -63 -59 -63 -102z" />
    <glyph glyph-name="semicolon" unicode=";" horiz-adv-x="250" 
d="M88 263c0 -23 13 -34 40 -34c29 0 59 27 59 50c0 21 -12 31 -35 31c-32 0 -64 -23 -64 -47zM-19 -193c7 0 14 2 20 6c110 77 152 147 164 256c2 19 -11 37 -31 40c-19 2 -36 -11 -40 -31c-27 -145 -72 -164 -134 -206c-16 -11 -20 -33 -9 -49c7 -10 18 -16 30 -16z" />
    <glyph glyph-name="slash" unicode="/" horiz-adv-x="355" 
d="M-6 -157c7 1 14 3 19 9c44 37 100 126 167 263c68 139 145 325 223 538c6 19 -3 39 -21 47c-19 6 -39 -4 -46 -22c-77 -211 -153 -395 -220 -532c-82 -167 -129 -223 -149 -241c-15 -13 -17 -35 -3 -50c8 -9 18 -13 30 -12z" />
    <glyph glyph-name="underscore" unicode="_" horiz-adv-x="887" 
d="M35 -70c4 0 7 1 11 2c76 23 217 20 352 17c129 -2 252 -5 325 15c19 5 30 25 25 44s-25 30 -44 25c-63 -17 -186 -15 -305 -13c-141 3 -287 6 -374 -21c-19 -5 -29 -25 -23 -44c4 -15 18 -25 33 -25z" />
    <glyph glyph-name="braceleft" unicode="{" horiz-adv-x="304" 
d="M149 -97c5 0 9 0 14 1c19 1 34 18 32 38c-1 19 -18 34 -38 32c-19 -1 -25 2 -26 4c0 0 -6 7 1 40c6 27 18 59 30 93c29 78 56 152 31 204c-1 2 -1 4 -2 6c12 13 22 31 29 54c11 35 15 78 18 119c5 60 10 128 38 148c4 3 17 12 52 4c19 -5 38 7 42 26c5 19 -7 38 -26 43
c-45 10 -81 5 -110 -16c-54 -39 -60 -120 -67 -199c-3 -39 -6 -77 -15 -104c-9 -31 -21 -34 -27 -35c-16 -3 -28 -16 -29 -32c-2 -16 8 -31 23 -36c7 -2 9 -5 10 -8c3 -5 6 -20 -2 -54c-7 -29 -19 -63 -31 -95c-13 -35 -26 -71 -33 -103c-6 -28 -12 -68 11 -98
c16 -21 41 -32 75 -32z" />
    <glyph glyph-name="braceright" unicode="}" horiz-adv-x="301" 
d="M66 -92c26 0 49 7 68 21c56 41 63 129 70 214c4 42 7 82 16 112c10 34 22 36 27 37c16 3 28 16 29 32c2 16 -8 31 -23 36c-8 3 -10 7 -11 8c-2 6 -5 19 3 50c7 27 19 58 30 88c29 73 55 142 22 187c-18 24 -48 35 -90 31c-19 -1 -34 -18 -32 -38c1 -19 18 -34 38 -32
c21 1 27 -3 27 -3s5 -7 -2 -35c-6 -25 -17 -54 -29 -85c-12 -32 -25 -65 -33 -96c-10 -41 -9 -71 2 -96l3 -7c-12 -14 -22 -33 -29 -57c-11 -37 -15 -82 -19 -127c-5 -65 -11 -140 -41 -162c-4 -2 -16 -11 -50 -4c-19 5 -38 -7 -42 -26c-5 -19 7 -38 26 -43
c14 -3 28 -5 40 -5z" />
    <glyph glyph-name="bracketleft" unicode="[" horiz-adv-x="438" 
d="M165 -90c22 0 46 1 73 3c62 6 114 16 116 16c19 4 32 22 28 41c-3 20 -22 32 -41 29c-1 0 -51 -10 -109 -15c-62 -5 -101 -3 -124 1c9 36 21 99 42 203c18 89 38 190 56 273c21 100 32 136 36 149c11 3 34 5 55 7c39 3 91 7 159 20c20 4 32 22 28 42c-3 19 -22 31 -41 28
c-64 -13 -115 -17 -151 -20c-49 -3 -78 -6 -100 -24c-9 -9 -15 -20 -27 -66c-7 -26 -15 -61 -26 -108c-18 -85 -40 -193 -59 -287c-19 -100 -42 -212 -47 -228c-7 -17 0 -37 17 -45c26 -13 64 -19 115 -19z" />
    <glyph glyph-name="bracketright" unicode="]" horiz-adv-x="457" 
d="M51 -80c4 0 9 1 14 3c48 22 169 20 212 18c17 -1 33 11 36 28l141 694c2 9 0 19 -5 27c-6 8 -15 13 -25 15c-7 1 -178 24 -302 -1c-20 -3 -32 -22 -28 -41c4 -20 22 -32 41 -28c80 16 186 9 242 4l-127 -626h-62c-69 -2 -121 -11 -152 -25c-18 -8 -26 -29 -18 -47
c6 -13 19 -21 33 -21z" />
    <glyph glyph-name="parenleft" unicode="(" horiz-adv-x="295" 
d="M183 -110c6 0 13 2 19 5c16 10 22 32 11 49c-138 228 -71 515 175 751c15 13 15 36 2 50c-14 14 -36 15 -51 1c-127 -121 -213 -260 -250 -401c-19 -74 -24 -149 -14 -221c10 -76 36 -149 78 -217c7 -11 18 -17 30 -17z" />
    <glyph glyph-name="parenright" unicode=")" horiz-adv-x="315" 
d="M162 751c-6 0 -13 -3 -19 -6c-16 -11 -21 -33 -9 -50c146 -222 91 -511 -147 -757c-14 -13 -13 -36 0 -50c15 -13 37 -14 51 1c122 126 203 269 235 410c16 75 18 150 5 222c-12 76 -41 148 -85 214c-8 11 -19 16 -31 16z" />
    <glyph glyph-name="emdash" unicode="&#x2014;" horiz-adv-x="917" 
d="M125 110c4 0 7 0 10 1c65 19 181 16 294 13c123 -3 250 -6 341 15c19 4 31 23 26 43c-4 19 -23 31 -43 26c-82 -19 -204 -16 -322 -13c-124 3 -240 6 -315 -15c-19 -6 -30 -25 -25 -44c5 -16 19 -26 34 -26z" />
    <glyph glyph-name="endash" unicode="&#x2013;" horiz-adv-x="755" 
d="M106 110c5 0 11 1 17 4c8 5 34 13 109 14c54 1 119 -3 177 -6c103 -5 162 -8 192 2c18 6 28 26 22 45c-6 18 -26 28 -45 22c-2 -1 -14 -3 -56 -3c-31 1 -69 3 -110 5c-58 3 -124 7 -181 6c-72 -1 -116 -8 -143 -22c-17 -10 -23 -31 -14 -49c7 -11 19 -18 32 -18z" />
    <glyph glyph-name="hyphen" unicode="-" horiz-adv-x="507" 
d="M87 130c3 0 5 0 7 1c41 7 103 5 153 2c68 -3 119 -6 174 13c20 7 30 28 24 47c-7 20 -28 30 -48 24c-42 -15 -85 -12 -146 -9c-55 2 -122 5 -170 -4c-21 -4 -34 -23 -30 -43c3 -18 19 -31 36 -31z" />
    <glyph glyph-name="uni00AD" unicode="&#xad;" horiz-adv-x="484" 
d="M82 130c3 0 5 0 7 1c37 7 85 5 131 2c62 -3 127 -5 178 12c18 7 27 26 22 43c-7 19 -26 28 -44 22c-39 -14 -97 -11 -153 -8c-50 2 -102 5 -146 -4c-20 -3 -31 -21 -28 -39c3 -17 18 -29 33 -29z" />
    <glyph glyph-name="guillemotleft" unicode="&#xab;" horiz-adv-x="479" 
d="M361 97c19 -1 35 -17 34 -37c-1 -19 -16 -34 -35 -34h-2c-48 2 -93 27 -115 43l-7 4c4 -6 5 -12 5 -19c-1 -19 -16 -34 -35 -34h-2c-33 1 -70 14 -107 37c-33 21 -65 50 -89 81c-8 9 -10 22 -6 34c4 11 14 20 26 22c53 11 118 88 147 121c12 14 35 16 50 3
c14 -12 16 -35 3 -50c-41 -48 -85 -94 -131 -122c35 -32 78 -54 110 -55c2 0 5 -1 8 -1c-24 20 -42 41 -52 62c-4 9 -4 20 0 30c4 9 12 16 22 19c30 10 84 51 148 112c14 14 37 13 50 -1c14 -14 13 -36 -1 -50c-52 -50 -96 -86 -133 -108c29 -28 76 -56 112 -57z" />
    <glyph glyph-name="guillemotright" unicode="&#xbb;" horiz-adv-x="491" 
d="M464 169c3 -12 -1 -25 -10 -33c-81 -77 -197 -113 -202 -114c-4 -2 -7 -2 -11 -2c-15 0 -29 10 -33 25c-4 12 -1 25 7 34c-44 -26 -83 -42 -121 -48c-2 -1 -4 -1 -7 -1c-16 0 -31 12 -34 29c-4 20 9 38 28 41c35 7 73 24 118 53c-9 5 -18 10 -28 17
c-45 30 -83 66 -114 109c-12 15 -8 38 8 49c15 12 38 8 49 -7c26 -36 59 -67 97 -92c28 -19 54 -31 70 -36c12 -4 21 -15 24 -28c2 -13 -3 -26 -14 -34c-21 -15 -40 -29 -59 -41c10 3 74 24 132 64c-41 23 -98 62 -148 123c-12 15 -10 38 5 50s38 10 50 -5
c75 -91 170 -127 171 -127c11 -4 20 -14 22 -26z" />
    <glyph glyph-name="guilsinglleft" unicode="&#x2039;" horiz-adv-x="324" 
d="M226 14c16 0 31 12 34 28c5 19 -7 38 -26 43c-21 4 -68 18 -120 55c9 6 20 14 32 24c35 28 74 64 100 89c14 14 14 36 0 50c-13 14 -36 15 -50 1c-34 -33 -66 -62 -93 -83c-42 -34 -57 -38 -58 -38c-14 -1 -26 -11 -30 -24c-5 -13 -1 -28 9 -37c81 -75 162 -99 194 -107
c3 0 5 -1 8 -1z" />
    <glyph glyph-name="guilsinglright" unicode="&#x203a;" horiz-adv-x="338" 
d="M303 155c3 -12 -1 -26 -11 -34c-82 -71 -160 -96 -182 -102c-4 -3 -10 -4 -15 -4c-20 0 -36 16 -36 36c0 19 14 34 32 36c11 3 56 17 111 54c-39 25 -88 64 -143 115c-14 13 -15 36 -2 50s36 15 50 2c88 -82 147 -119 172 -126c12 -4 22 -14 24 -27z" />
    <glyph glyph-name="quotedblbase" unicode="&#x201e;" horiz-adv-x="326" 
d="M5 -44c0 -19 9 -33 27 -44c3 4 20 40 22 45c2 4 15 27 20 35s15 22 26 34c0 17 -15 33 -32 33c-31 0 -63 -60 -63 -103zM115 -44c0 -19 9 -33 27 -44c3 4 20 40 22 45c2 4 15 27 20 35s15 22 26 34c0 17 -15 33 -32 33c-31 0 -63 -60 -63 -103z" />
    <glyph glyph-name="quotedblleft" unicode="&#x201c;" horiz-adv-x="307" 
d="M159 657c8 -13 19 -28 34 -46c14 -18 23 -31 28 -38c23 13 34 26 34 41c0 11 -11 30 -32 55c-22 25 -35 44 -38 55c-19 0 -38 -18 -38 -35c0 -9 4 -19 12 -32zM283 657c8 -13 19 -28 34 -46c14 -18 23 -31 28 -38c23 13 34 26 34 41c0 11 -11 30 -32 55
c-22 25 -35 44 -38 55c-19 0 -38 -18 -38 -35c0 -9 4 -19 12 -32z" />
    <glyph glyph-name="quotedblright" unicode="&#x201d;" horiz-adv-x="290" 
d="M144 614c0 -14 11 -28 34 -41c5 7 14 20 29 38c28 36 45 61 45 78s-19 35 -38 35c-3 -11 -16 -30 -37 -55c-22 -25 -33 -44 -33 -55zM268 614c0 -14 11 -28 34 -41c5 7 14 20 29 38c28 36 45 61 45 78s-19 35 -38 35c-3 -11 -16 -30 -37 -55c-22 -25 -33 -44 -33 -55z
" />
    <glyph glyph-name="quoteleft" unicode="&#x2018;" horiz-adv-x="183" 
d="M159 657c8 -13 19 -28 34 -46c14 -18 23 -31 28 -38c23 13 34 26 34 41c0 11 -11 30 -32 55c-22 25 -35 44 -38 55c-19 0 -38 -18 -38 -35c0 -9 4 -19 12 -32z" />
    <glyph glyph-name="quoteright" unicode="&#x2019;" horiz-adv-x="164" 
d="M143 612c0 -15 11 -28 34 -41c5 7 14 20 29 38c28 36 45 61 45 78s-19 35 -38 35c-3 -11 -16 -30 -37 -55c-22 -25 -33 -44 -33 -55z" />
    <glyph glyph-name="quotesinglbase" unicode="&#x201a;" horiz-adv-x="216" 
d="M5 -44c0 -19 9 -33 27 -44c3 4 20 40 22 45c2 4 15 27 20 35s15 22 26 34c0 17 -15 33 -32 33c-31 0 -63 -60 -63 -103z" />
    <glyph glyph-name="space" unicode=" " horiz-adv-x="259" 
 />
    <glyph glyph-name="uni000D" unicode="&#xd;" horiz-adv-x="332" 
 />
    <glyph glyph-name="Euro" unicode="&#x20ac;" horiz-adv-x="729" 
d="M688 190c16 -10 21 -32 10 -49c-4 -6 -103 -159 -227 -220c-35 -17 -80 -28 -125 -28c-48 0 -97 13 -137 45c-36 29 -59 71 -69 123c-5 28 -7 58 -5 91c-22 -1 -43 -3 -61 -8c-3 -1 -6 -1 -9 -1c-15 0 -30 10 -34 27c-5 18 7 38 26 43c27 7 56 10 88 11l6 28
c-28 -1 -54 -3 -77 -9c-3 -1 -6 -1 -9 -1c-15 0 -30 11 -34 27c-5 19 7 38 26 43c34 9 73 11 114 11c19 60 43 115 72 163c33 55 72 102 116 141c97 84 185 100 209 103c51 5 75 -19 84 -35c18 -27 17 -66 -1 -119c-16 -47 -46 -106 -91 -174c-10 -16 -32 -21 -49 -10
c-16 10 -21 32 -10 49c42 66 71 120 84 163c14 41 7 53 7 54c-1 1 -6 2 -16 1c-14 -1 -87 -13 -170 -85c-70 -62 -124 -146 -161 -252c55 0 110 1 160 14c19 5 38 -7 43 -26s-7 -38 -26 -43c-65 -17 -132 -16 -198 -15c0 -2 -1 -3 -1 -4l-6 -24h4c62 -1 127 -2 184 13
c19 5 38 -7 43 -26s-7 -38 -26 -43c-66 -17 -135 -16 -202 -15h-14c-2 -29 -1 -55 4 -78c6 -36 21 -64 44 -82c50 -41 131 -35 186 -8c106 52 198 193 199 195c10 16 32 21 49 10z" />
    <glyph glyph-name="cent" unicode="&#xa2;" horiz-adv-x="426" 
d="M398 231c15 -13 17 -35 4 -50c-3 -3 -66 -75 -151 -93l-3 -9c-25 -113 -53 -185 -86 -225c-7 -9 -17 -13 -27 -13c-8 0 -16 2 -23 8c-15 12 -17 35 -5 50c25 30 49 94 71 189c-29 6 -55 19 -77 38c-24 21 -54 62 -54 130c0 46 9 88 26 125c15 33 36 61 63 85
c41 36 87 54 118 63c13 72 25 130 41 162c8 18 29 26 47 17c18 -8 25 -29 17 -47c-11 -23 -21 -69 -32 -125c4 -1 8 -2 11 -2c22 -6 40 -17 53 -34c17 -22 31 -63 0 -131c-8 -17 -29 -25 -47 -17s-26 29 -17 47c12 27 15 49 7 58c-3 5 -10 8 -19 9c-4 -28 -8 -57 -13 -86
c-11 -68 -22 -142 -35 -213c46 21 80 60 81 60c13 15 35 17 50 4zM118 256c0 -71 45 -92 75 -98c14 76 27 158 39 233l9 58c-53 -23 -123 -75 -123 -193z" />
    <glyph glyph-name="currency" unicode="&#xa4;" horiz-adv-x="735" 
d="M760 602c2 -19 -11 -35 -29 -38c-5 -2 -25 -14 -85 -75c-21 -22 -40 -43 -52 -56c2 -18 2 -37 1 -58c-4 -49 -17 -90 -21 -101c-4 -12 -11 -31 -22 -51l38 -39c51 -52 104 -106 100 -164c-1 -18 -17 -33 -35 -33c-1 0 -2 1 -3 1c-20 1 -34 18 -33 38c1 5 -1 18 -20 42
c-15 21 -38 44 -60 66l-27 29c-38 -43 -85 -66 -136 -66h-8c-28 1 -52 11 -71 29c-28 -30 -68 -57 -99 -75c-30 -18 -74 -39 -97 -42l-4 -1c-18 0 -33 14 -36 32c-2 19 12 37 31 39c7 2 37 14 73 35c39 23 70 47 85 67c3 4 6 7 10 9c-17 58 -9 129 0 166c4 14 12 42 27 74
c-38 26 -67 63 -92 95c-16 21 -34 44 -45 50c-18 8 -25 30 -16 47c9 18 30 25 47 16c26 -13 47 -39 70 -70c22 -28 46 -59 74 -77c37 45 82 69 132 69c9 0 17 -1 26 -2c36 -6 64 -23 84 -50c10 11 22 24 34 36c79 81 104 89 121 90c20 2 37 -13 38 -32zM371 168h5
c81 0 121 99 131 129c11 33 22 85 17 126c-5 7 -6 15 -5 23c-2 6 -4 12 -7 17c-9 14 -21 21 -40 24c-5 1 -10 2 -15 2c-89 0 -126 -145 -128 -151c-11 -42 -14 -120 11 -154c8 -11 17 -15 31 -16z" />
    <glyph glyph-name="dollar" unicode="$" horiz-adv-x="565" 
d="M416 382c0 38 19 75 37 110c23 45 37 75 23 90c-11 11 -34 23 -63 29c-7 -36 -15 -78 -23 -123c-11 -60 -24 -129 -38 -197c36 -23 73 -48 108 -82c42 -40 62 -94 56 -149c-5 -54 -37 -102 -86 -132c-34 -21 -98 -36 -158 -37h-9c-7 0 -15 0 -22 1
c-17 -37 -34 -64 -52 -82c-7 -7 -16 -10 -25 -10s-19 4 -26 11c-13 14 -13 36 1 50c8 8 18 21 29 43c-32 9 -59 24 -80 44c-21 21 -38 46 -48 74c-11 29 -14 59 -10 88c7 56 42 103 96 132c17 9 39 3 48 -14c9 -18 3 -39 -15 -48c-34 -19 -54 -46 -59 -79
c-5 -36 9 -75 37 -101c14 -14 35 -24 59 -30c14 36 28 83 44 145c11 44 22 92 32 140c-22 14 -45 27 -69 43c-22 15 -41 33 -55 55c-16 22 -26 47 -30 74c-7 39 -3 102 50 171c21 28 49 50 84 65c29 14 63 21 98 23h6c4 18 8 33 12 46c6 19 25 29 44 24c19 -6 30 -26 24 -45
c-3 -8 -5 -19 -8 -31c41 -8 77 -26 100 -49c23 -25 30 -56 21 -93c-6 -26 -19 -53 -33 -78c-14 -28 -29 -57 -29 -78c0 -19 -16 -35 -36 -35c-19 0 -35 16 -35 35zM243 357c14 -10 29 -19 44 -28c12 60 23 119 33 172l21 113c-33 -3 -84 -16 -117 -59
c-30 -39 -42 -79 -36 -117c5 -32 25 -61 55 -81zM411 158c-24 23 -49 42 -74 58c-9 -40 -18 -81 -28 -119c-13 -52 -27 -97 -40 -135h1c54 1 103 14 123 27c31 18 49 46 53 79c3 33 -9 65 -35 90z" />
    <glyph glyph-name="florin" unicode="&#x192;" horiz-adv-x="537" 
d="M566 622c-5 -76 -92 -194 -222 -303c42 -3 84 -4 111 10c17 9 38 1 47 -16c9 -18 2 -39 -16 -48c-47 -23 -106 -20 -162 -16c-7 0 -14 0 -20 1c-31 -120 -62 -243 -84 -313c-15 -52 -35 -94 -58 -124c-36 -48 -75 -60 -103 -60l-7 1c-66 4 -100 31 -117 54
c-16 22 -33 61 -19 125c4 19 23 31 42 27s31 -23 27 -43s-7 -48 7 -67c14 -18 43 -24 65 -25c33 -3 70 48 96 132c19 66 48 178 77 291c-9 -2 -17 -5 -22 -9c-7 -5 -14 -7 -21 -7c-11 0 -22 5 -29 14c-12 16 -8 38 7 50c22 16 50 23 79 25c2 5 4 10 8 14
c24 94 44 175 56 218c11 38 31 72 58 99c24 25 54 44 84 51c37 10 72 2 96 -21c10 -10 22 -29 20 -60zM345 415c42 39 78 79 104 116c45 63 47 95 46 102c-3 2 -8 3 -14 3c-4 0 -8 0 -13 -1c-33 -9 -75 -44 -91 -102c-8 -26 -19 -68 -32 -118z" />
    <glyph glyph-name="sterling" unicode="&#xa3;" horiz-adv-x="691" 
d="M650 696c16 -24 23 -55 22 -90c0 -29 -7 -60 -18 -87c-17 -42 -51 -80 -95 -107c-47 -28 -103 -43 -162 -43h-13c-2 -5 -3 -10 -5 -15c-3 -7 -5 -14 -8 -21c45 1 86 4 110 11c18 7 38 -3 44 -22c7 -19 -3 -39 -22 -45c-38 -13 -96 -14 -159 -15c0 -2 -1 -4 -2 -6
c-3 -8 -6 -15 -8 -22c58 1 117 2 147 11c18 7 38 -3 44 -22c7 -19 -3 -39 -22 -45c-40 -13 -102 -14 -168 -15c-9 -1 -19 -1 -29 -1c-16 -40 -31 -75 -46 -105c13 -4 26 -8 40 -13l3 -1c188 -64 207 -69 264 -23c15 12 37 10 50 -6c12 -15 9 -37 -6 -49
c-34 -28 -67 -46 -115 -46c-5 0 -11 0 -17 1c-47 4 -104 24 -199 56l-3 1l-55 18c-11 -16 -24 -28 -37 -38c-22 -16 -47 -24 -76 -24c-72 0 -114 36 -130 69c-12 26 -9 54 7 73c25 31 73 29 106 25c27 -4 59 -11 99 -22c12 22 24 49 36 80c-21 -2 -40 -5 -54 -10
c-3 -1 -7 -2 -11 -2c-15 0 -29 10 -34 24c-6 19 4 39 22 45c28 10 66 14 107 16c3 10 7 19 11 29c-38 -2 -73 -5 -95 -13c-3 -1 -7 -2 -11 -2c-15 0 -29 10 -34 24c-6 19 4 39 22 45c37 13 90 16 145 18c6 15 11 31 17 46c1 2 2 4 2 6c-3 2 -6 3 -9 4c-27 14 -49 33 -63 57
c-14 22 -20 48 -20 75c1 27 9 54 24 81c9 17 31 24 48 14c17 -9 23 -30 14 -48c-17 -32 -19 -62 -5 -85c7 -14 20 -24 36 -31c24 63 48 121 73 169c28 53 73 124 141 124c54 0 82 -26 97 -48zM588 546c17 40 18 88 3 110c-5 7 -14 17 -38 17c-12 0 -39 -11 -78 -86
c-22 -41 -43 -92 -64 -147c41 2 79 14 111 33c31 19 55 45 66 73zM109 4c12 0 24 3 37 13c-19 4 -36 8 -50 10c-29 5 -44 4 -51 3c7 -12 31 -26 64 -26z" />
    <glyph glyph-name="yen" unicode="&#xa5;" horiz-adv-x="868" 
d="M827 677c-51 -112 -86 -246 -121 -376c-15 -59 -30 -116 -46 -169c31 1 61 5 90 12c19 5 38 -7 43 -26s-6 -38 -25 -43c-43 -11 -87 -14 -132 -15c-3 -10 -6 -19 -10 -28c43 0 85 3 124 13c19 5 38 -7 43 -26s-6 -38 -25 -43c-57 -14 -115 -16 -173 -15
c-24 -48 -49 -84 -79 -109c-36 -32 -77 -48 -123 -48c-43 0 -79 9 -105 27c-25 16 -41 39 -49 67c-6 23 -6 50 1 75c4 15 13 42 33 53c17 10 39 4 49 -13c8 -15 5 -34 -9 -45c-5 -8 -13 -38 -2 -61c14 -26 52 -32 82 -32c31 0 75 10 122 86c-36 0 -68 -2 -95 -9
c-3 -1 -6 -1 -9 -1c-16 0 -30 11 -34 27c-5 19 6 38 25 43c44 11 94 12 148 11c4 9 7 18 11 28c-53 1 -103 1 -141 -9c-3 -1 -6 -1 -9 -1c-16 0 -30 11 -34 27c-5 19 6 38 25 43c49 12 105 12 164 11h19c18 55 34 116 50 180c-8 -15 -17 -28 -26 -41
c-27 -40 -52 -70 -79 -92c-33 -27 -67 -41 -101 -41c-47 0 -83 16 -106 46c-25 35 -33 85 -23 155c8 53 24 110 39 159c3 10 5 19 8 27c16 57 14 104 -6 130c-11 16 -28 23 -50 23c-25 0 -54 -20 -72 -50c-14 -24 -32 -75 7 -143c9 -17 3 -39 -14 -48c-17 -10 -38 -4 -48 13
c-41 72 -43 150 -6 214c30 52 82 85 133 85c44 0 82 -18 107 -51c17 -22 27 -51 30 -84c3 -32 -2 -69 -13 -108c-2 -9 -5 -18 -8 -28c-14 -47 -30 -101 -37 -150c-8 -61 1 -89 10 -101c4 -4 14 -18 49 -18s76 34 122 101c44 66 85 153 122 230c35 74 65 138 94 174
c11 15 31 18 46 9c16 -9 22 -29 14 -45z" />
    <glyph glyph-name="asciitilde" unicode="~" horiz-adv-x="477" 
d="M82 130c3 0 5 0 7 1c37 7 85 5 131 2c62 -3 127 -5 178 12c18 7 27 26 22 43c-7 19 -26 28 -44 22c-39 -14 -97 -11 -153 -8c-50 2 -102 5 -146 -4c-20 -3 -31 -21 -28 -39c3 -17 18 -29 33 -29z" />
    <glyph glyph-name="divide" unicode="&#xf7;" horiz-adv-x="491" 
d="M256 217c8 0 17 2 26 6c10 4 25 15 33 37c6 16 0 34 -14 43c-5 19 -24 31 -43 26c-30 -7 -61 -30 -63 -61c-1 -19 10 -37 29 -44c5 -2 18 -7 32 -7zM36 88c5 0 11 1 16 4c40 21 146 24 223 26c57 1 102 3 129 9c19 5 31 25 26 44s-25 30 -44 25c-18 -5 -66 -6 -113 -7
c-93 -3 -199 -6 -254 -35c-17 -9 -24 -30 -15 -47c6 -13 19 -19 32 -19zM195 -20c9 0 17 3 25 8c19 12 23 28 24 37c5 13 2 28 -8 38c-11 11 -27 13 -40 7h-2c-23 -7 -37 -22 -40 -41c-3 -17 5 -34 19 -42c7 -5 14 -7 22 -7z" />
    <glyph glyph-name="equal" unicode="=" horiz-adv-x="517" 
d="M80 175c4 0 7 0 11 2c35 12 103 13 162 14c66 1 128 2 168 16c19 6 29 26 22 44c-6 19 -26 29 -45 23c-29 -10 -89 -11 -146 -12c-68 -1 -138 -3 -184 -18c-18 -7 -28 -27 -22 -45c5 -15 19 -24 34 -24zM80 76c4 0 7 0 11 2c35 12 103 13 162 14c66 1 128 2 168 16
c19 6 29 26 22 44c-6 19 -26 29 -45 23c-29 -10 -89 -11 -146 -12c-68 -1 -138 -3 -184 -18c-18 -7 -28 -27 -22 -45c5 -15 19 -24 34 -24z" />
    <glyph glyph-name="greater" unicode="&#x3e;" horiz-adv-x="337" 
d="M299 161c3 -13 -1 -26 -11 -35c-82 -71 -160 -96 -182 -102c-4 -2 -10 -3 -15 -3c-20 0 -36 16 -36 36c0 18 14 33 32 35c11 3 56 17 111 55c-39 25 -88 64 -143 114c-14 14 -15 36 -2 50c13 15 36 16 50 2c88 -81 147 -118 172 -126c12 -4 22 -14 24 -26z" />
    <glyph glyph-name="less" unicode="&#x3c;" horiz-adv-x="328" 
d="M229 20c16 0 31 11 34 28c5 19 -7 38 -26 42c-21 5 -68 19 -120 56c9 6 20 14 32 23c35 29 74 64 100 90c14 13 14 36 0 50c-13 14 -36 14 -50 0c-34 -33 -66 -62 -93 -83c-42 -34 -57 -37 -58 -38c-14 -1 -26 -10 -30 -24c-5 -13 -1 -27 9 -37c81 -74 162 -99 194 -106
c3 -1 5 -1 8 -1z" />
    <glyph glyph-name="logicalnot" unicode="&#xac;" horiz-adv-x="676" 
d="M647 234c5 -19 -7 -38 -26 -43c-12 -3 -30 -5 -54 -7v-22c0 -46 -1 -90 -26 -134c-6 -12 -18 -18 -30 -18c-6 0 -13 2 -18 5c-17 9 -23 31 -13 48c16 28 16 59 16 99v18c-20 -1 -42 -2 -66 -3c-127 -5 -286 -12 -357 -31c-4 -1 -7 -1 -10 -1c-15 0 -30 11 -34 27
c-5 18 7 38 26 43c79 21 241 28 372 33l74 3c1 9 3 18 5 27c4 19 23 31 42 27c20 -4 32 -23 27 -42c0 -3 -1 -5 -1 -7c14 1 24 3 30 4c19 5 39 -7 43 -26z" />
    <glyph glyph-name="multiply" unicode="&#xd7;" horiz-adv-x="405" 
d="M334 66c12 -16 8 -38 -8 -49c-6 -5 -13 -7 -21 -7c-11 0 -22 5 -29 15c-29 42 -63 75 -97 106c-34 -33 -65 -68 -83 -98c-7 -11 -18 -17 -31 -17c-6 0 -12 2 -18 5c-17 10 -22 32 -12 49c21 35 55 72 90 109c-27 25 -53 50 -76 79c-12 15 -9 38 7 50c15 12 38 9 50 -7
c19 -25 44 -49 70 -72c2 1 4 3 6 5c37 36 76 73 86 93c10 17 32 23 49 13c17 -9 23 -31 13 -48c-16 -29 -52 -64 -99 -109l-2 -2c36 -32 73 -69 105 -115z" />
    <glyph glyph-name="percent" unicode="%" horiz-adv-x="740" 
d="M118 -100c7 0 14 2 20 7c47 33 111 116 191 246c81 132 175 310 273 515c8 18 0 39 -17 48c-18 8 -39 0 -48 -17c-96 -203 -189 -379 -269 -509c-97 -159 -149 -210 -171 -226c-16 -11 -20 -33 -8 -49c7 -10 17 -15 29 -15zM206 332c26 0 55 13 81 37c19 16 44 46 60 91
s24 86 22 119c-1 24 -6 44 -16 61c-11 21 -29 36 -52 45c-10 4 -21 6 -31 6c-37 0 -73 -23 -104 -66c-26 -34 -43 -74 -51 -100c-19 -67 -17 -116 5 -150c24 -36 64 -41 77 -43h9zM179 414c-5 7 -13 30 5 92c5 18 18 50 39 77c17 23 34 37 47 37c2 0 4 -1 6 -2
c6 -2 21 -8 22 -41c1 -25 -5 -57 -18 -94c-20 -55 -61 -80 -74 -80zM548 -10c26 0 55 13 81 37c19 16 44 46 60 91s24 86 22 119c-1 24 -6 44 -16 61c-11 21 -29 36 -52 45c-10 4 -21 6 -31 6c-37 0 -73 -23 -104 -66c-26 -34 -43 -74 -51 -100c-19 -67 -17 -116 5 -150
c24 -36 64 -41 77 -43h9zM548 61c-15 2 -23 5 -27 11c-5 7 -13 30 5 92c5 18 18 50 39 77c17 23 34 37 47 37c2 0 4 -1 6 -2c6 -2 21 -8 22 -41c1 -25 -5 -57 -18 -94c-20 -55 -61 -80 -74 -80z" />
    <glyph glyph-name="perthousand" unicode="&#x2030;" horiz-adv-x="1029" 
d="M118 -100c7 0 14 2 20 7c47 33 111 116 191 246c81 132 175 310 273 515c8 18 0 39 -17 48c-18 8 -39 0 -48 -17c-96 -203 -189 -379 -269 -509c-97 -159 -149 -210 -171 -226c-16 -11 -20 -33 -8 -49c7 -10 17 -15 29 -15zM206 332c26 0 55 13 81 37c19 16 44 46 60 91
s24 86 22 119c-1 24 -6 44 -16 61c-11 21 -29 36 -52 45c-10 4 -21 6 -31 6c-37 0 -73 -23 -104 -66c-26 -34 -43 -74 -51 -100c-19 -67 -17 -116 5 -150c24 -36 64 -41 77 -43h9zM179 414c-5 7 -13 30 5 92c5 18 18 50 39 77c17 23 34 37 47 37c2 0 4 -1 6 -2
c6 -2 21 -8 22 -41c1 -25 -5 -57 -18 -94c-20 -55 -61 -80 -74 -80zM548 -10c26 0 55 13 81 37c19 16 44 46 60 91s24 86 22 119c-1 24 -6 44 -16 61c-11 21 -29 36 -52 45c-10 4 -21 6 -31 6c-37 0 -73 -23 -104 -66c-26 -34 -43 -74 -51 -100c-19 -67 -17 -116 5 -150
c24 -36 64 -41 77 -43h9zM838 -10c26 0 55 13 81 37c19 16 44 46 60 91s24 86 22 119c-1 24 -6 44 -16 61c-11 21 -29 36 -52 45c-10 4 -21 6 -31 6c-37 0 -73 -23 -104 -66c-26 -34 -43 -74 -51 -100c-19 -67 -17 -116 5 -150c24 -36 64 -41 77 -43h9zM521 72
c-5 7 -13 30 5 92c5 18 18 50 39 77c17 23 34 37 47 37c2 0 4 -1 6 -2c6 -2 21 -8 22 -41c1 -25 -5 -57 -18 -94c-20 -55 -61 -80 -74 -80zM838 61c-15 2 -23 5 -27 11c-5 7 -13 30 5 92c5 18 18 50 39 77c17 23 34 37 47 37c2 0 4 -1 6 -2c6 -2 21 -8 22 -41
c1 -25 -5 -57 -18 -94c-20 -55 -61 -80 -74 -80z" />
    <glyph glyph-name="plus" unicode="+" horiz-adv-x="441" 
d="M405 192c6 -19 -4 -40 -24 -47c-41 -14 -90 -16 -141 -15c1 -46 0 -92 -7 -132c-3 -16 -17 -28 -34 -28c-2 0 -4 0 -6 1c-18 3 -31 21 -27 39c6 36 6 79 6 123c-46 2 -92 3 -128 -3c-2 -1 -4 -1 -7 -1c-17 0 -33 13 -36 31c-4 20 9 39 30 43c42 8 91 7 139 5
c-1 51 1 99 11 136c6 18 25 28 43 23c18 -6 29 -25 23 -43c-8 -28 -9 -72 -8 -119c45 -1 87 0 118 11c20 6 41 -4 48 -24z" />
    <glyph glyph-name="plusminus" unicode="&#xb1;" horiz-adv-x="485" 
d="M422 327c4 -19 -8 -38 -27 -42c-36 -8 -79 -8 -122 -7c0 -40 -3 -78 -19 -108c-7 -11 -19 -18 -32 -18c-5 0 -11 1 -17 4c-17 10 -23 31 -14 49c9 16 11 44 11 74c-42 1 -82 -2 -110 -13c-4 -2 -9 -3 -13 -3c-14 0 -28 8 -33 22c-8 18 1 39 19 46c39 16 86 19 135 19
c0 40 1 77 14 107c8 18 28 26 47 18c18 -8 26 -28 18 -46c-7 -18 -8 -48 -8 -80c41 -1 80 -1 109 5c20 4 38 -8 42 -27zM75 50h6c32 5 77 8 126 10c62 4 132 7 193 18c19 3 32 21 29 41c-4 19 -22 32 -41 28c-57 -9 -125 -13 -185 -16c-50 -2 -98 -5 -133 -10
c-19 -4 -33 -22 -30 -41c3 -18 18 -30 35 -30z" />
    <glyph glyph-name="uni00B5" unicode="&#xb5;" horiz-adv-x="615" 
d="M5 -270c14 0 27 8 33 21c26 58 52 148 76 241l3 -4c11 -15 27 -23 45 -24c43 -2 90 38 122 72c7 7 14 15 21 24c0 -13 1 -24 3 -34c5 -29 17 -50 37 -61c11 -6 30 -12 55 -4c17 5 34 15 53 30c37 29 82 79 135 149c12 16 9 38 -7 50s-38 9 -50 -7
c-42 -56 -79 -98 -109 -125c-23 -21 -37 -27 -42 -29c-3 9 -7 31 -1 74c7 43 21 95 39 141c8 18 -1 38 -18 46c-18 8 -38 0 -47 -17c-46 -97 -90 -155 -119 -186c-31 -34 -53 -47 -63 -51c-7 16 -22 80 17 290c2 14 4 23 4 25c4 19 -9 38 -28 41c-19 4 -38 -9 -41 -28
c-2 -7 -3 -14 -4 -21c-17 -88 -85 -427 -146 -563c-8 -18 0 -39 18 -47c5 -2 10 -3 14 -3z" />
    <glyph glyph-name="bar" unicode="|" horiz-adv-x="294" 
d="M112 -135c10 0 19 4 26 11c40 44 64 126 76 256c10 105 10 225 10 322c0 82 0 160 6 186c5 19 -7 38 -26 43c-19 4 -38 -7 -43 -26c-8 -35 -8 -105 -8 -203c0 -95 0 -213 -10 -315c-12 -139 -38 -194 -57 -215c-14 -14 -12 -37 2 -50c7 -6 15 -9 24 -9z" />
    <glyph glyph-name="brokenbar" unicode="&#xa6;" horiz-adv-x="295" 
d="M165 300c15 0 30 10 34 25c10 36 20 101 25 172c4 46 8 133 -3 193c-4 19 -22 32 -41 28c-20 -3 -33 -21 -29 -41c16 -88 -3 -274 -20 -332c-6 -19 5 -38 24 -44c3 -1 7 -1 10 -1zM121 -134c12 0 23 5 30 15c32 48 38 118 44 193c3 41 7 83 15 120c4 19 -8 38 -27 42
c-19 5 -38 -8 -42 -27c-9 -41 -13 -86 -17 -129c-5 -62 -10 -126 -32 -159c-11 -16 -7 -38 9 -49c6 -4 13 -6 20 -6z" />
    <glyph glyph-name="at" unicode="@" horiz-adv-x="613" 
d="M231 -150c138 0 249 69 253 71c17 11 22 33 11 49c-10 17 -32 22 -49 12c-1 -1 -97 -61 -215 -61c-47 0 -87 17 -116 48c-32 34 -48 84 -43 136c11 135 131 237 279 237c130 0 157 -87 157 -159c0 -57 -42 -111 -97 -125c-5 -2 -9 -2 -12 -2c0 9 2 36 30 97
c7 16 2 34 -13 44c14 4 23 16 25 31c2 32 -14 64 -42 81c-20 12 -63 27 -126 -12c-34 -21 -74 -61 -106 -105c-20 -30 -55 -86 -56 -136c0 -31 12 -56 35 -71c15 -10 40 -20 74 -11c20 5 41 16 64 33c15 11 30 25 45 39c2 -16 7 -29 16 -39c12 -15 37 -30 84 -18
c87 23 150 104 150 194c0 39 -7 97 -42 146c-18 26 -43 46 -72 61c-32 15 -70 23 -114 23c-91 0 -177 -31 -241 -89c-64 -56 -102 -132 -109 -214c-6 -71 16 -140 61 -189c21 -22 46 -40 74 -52c29 -13 61 -19 95 -19zM351 251c4 0 8 -1 11 -2c6 -4 8 -11 8 -16
c-1 -13 5 -25 15 -32c-5 -2 -10 -5 -14 -9l-29 -30c-31 -34 -67 -73 -100 -98c-16 -11 -44 -29 -57 -20c-1 1 -3 2 -3 11c1 22 17 58 43 96c27 36 59 69 85 85c16 10 30 15 41 15z" />
    <glyph glyph-name="ampersand" unicode="&#x26;" horiz-adv-x="675" 
d="M701 286c1 -19 -13 -36 -33 -38c-18 -1 -40 -1 -66 0c-3 0 -7 1 -11 1c-4 -17 -24 -93 -69 -170c-70 -117 -165 -179 -277 -179c-51 0 -97 15 -133 44c-34 28 -58 67 -67 112c-13 60 0 125 36 184c34 56 88 104 156 140c-22 48 -35 94 -38 135c-4 47 5 89 26 125
c21 34 53 62 93 80c32 15 69 23 103 23c63 0 90 -33 101 -52c15 -28 17 -63 6 -105c-10 -36 -29 -76 -57 -118c-11 -17 -33 -21 -49 -10c-17 11 -21 33 -10 49c49 74 59 128 47 150c-5 10 -18 15 -38 15c-47 0 -106 -21 -135 -69c-31 -51 -20 -128 31 -223c4 -8 5 -19 2 -28
s-10 -17 -19 -21c-152 -68 -203 -179 -186 -260c13 -62 63 -100 131 -100c86 0 158 48 215 143c32 53 50 108 58 135c-30 -1 -62 -4 -92 -12c-3 -1 -6 -1 -9 -1c-16 0 -30 11 -34 27c-5 19 7 38 26 43c70 18 143 15 196 13c23 -1 43 -1 58 0c19 1 36 -13 38 -33z" />
    <glyph glyph-name="paragraph" unicode="&#xb6;" horiz-adv-x="686" 
d="M628 563c19 -4 31 -23 27 -42s-23 -31 -42 -27l-31 6c3 -56 5 -115 6 -172c1 -124 -3 -288 -30 -363c-5 -15 -19 -24 -33 -24c-4 0 -8 1 -12 2c-19 7 -28 27 -22 45c11 32 19 90 23 169c-12 -2 -25 -5 -38 -7c-2 -24 -3 -46 -5 -67c-4 -35 -9 -65 -14 -88
c-8 -30 -17 -50 -29 -63c-7 -8 -17 -12 -26 -12s-18 3 -24 9c-15 14 -16 36 -3 50c1 1 16 18 25 111c2 17 3 35 4 54c-12 -1 -24 -1 -36 -1h-35c-62 4 -149 17 -208 62c-43 32 -65 77 -65 129c0 68 29 128 85 173c49 39 119 65 202 75c14 2 29 3 43 4c-5 40 -10 69 -15 82
c-8 19 1 39 19 47c19 7 39 -2 46 -20c9 -21 16 -60 22 -109c14 0 29 -1 44 -3c-3 44 -7 81 -11 106c-2 19 11 37 31 40c19 2 37 -11 40 -30c4 -33 9 -76 12 -126c17 -3 33 -6 50 -10zM337 214c23 -1 46 -1 70 1c1 30 1 63 0 96c-1 76 -4 146 -9 204
c-88 -4 -160 -25 -209 -64c-38 -31 -58 -70 -58 -117c0 -30 12 -54 37 -73c35 -26 95 -43 169 -47zM517 327c-1 66 -3 128 -6 184c-14 2 -28 3 -42 4c5 -65 8 -137 9 -203c1 -31 1 -61 0 -89c14 2 26 5 38 8c1 30 1 62 1 96z" />
    <glyph glyph-name="copyright" unicode="&#xa9;" horiz-adv-x="620" 
d="M350 86c79 0 153 30 208 84c51 51 81 118 81 184c0 32 -7 66 -19 99c-13 32 -32 63 -54 89c-52 60 -124 92 -201 92c-70 0 -141 -27 -194 -76c-27 -24 -48 -52 -63 -83c-16 -33 -25 -67 -25 -103c0 -35 6 -70 17 -103c12 -34 29 -65 50 -91c24 -29 52 -51 85 -67
c34 -17 73 -25 115 -25zM365 563c119 0 203 -110 203 -209c0 -46 -23 -96 -60 -133c-42 -42 -98 -64 -158 -64c-129 0 -196 108 -196 215c0 100 101 191 211 191zM362 188c14 0 40 2 64 18c25 17 40 45 40 79c0 20 -16 36 -36 36c-19 0 -35 -16 -35 -36c0 -8 0 -26 -33 -26
c-12 0 -39 2 -39 21v158c0 13 0 31 36 31c3 0 34 -1 38 -30c2 -19 20 -33 40 -30c19 3 33 20 30 40c-4 29 -19 54 -42 70c-19 13 -43 21 -66 21c-18 0 -45 -3 -67 -19c-18 -12 -40 -36 -40 -83v-158c0 -34 16 -62 46 -77c24 -13 50 -15 64 -15z" />
    <glyph glyph-name="registered" unicode="&#xae;" horiz-adv-x="619" 
d="M338 86c80 0 154 30 209 84c51 51 81 118 81 184c0 32 -7 66 -19 99c-13 32 -32 63 -54 89c-53 60 -124 92 -201 92c-70 0 -141 -27 -194 -76c-27 -24 -48 -52 -63 -83c-17 -33 -25 -67 -25 -103c0 -35 6 -70 17 -103c12 -34 28 -65 50 -91c24 -29 52 -51 84 -67
c35 -17 74 -25 115 -25zM354 563c119 0 203 -110 203 -209c0 -46 -23 -96 -60 -133c-42 -42 -98 -64 -159 -64c-128 0 -195 108 -195 215c0 100 101 191 211 191zM290 193c20 0 35 15 35 35v104h1c2 0 4 -1 7 -1h7l62 -112c9 -17 30 -24 48 -14c17 9 23 30 14 48l-50 92
c7 3 14 8 20 14c12 12 25 32 25 65c0 30 -5 72 -46 95c-29 15 -68 19 -123 19c-20 0 -36 -16 -36 -36v-274c0 -20 16 -35 36 -35zM325 403v63c22 -1 43 -4 53 -10c4 -2 10 -5 10 -32c0 -7 -1 -12 -3 -14c-6 -5 -18 -7 -29 -7h-31z" />
    <glyph glyph-name="section" unicode="&#xa7;" horiz-adv-x="443" 
d="M328 544c15 41 28 74 35 98c5 16 7 25 7 30c-10 1 -30 1 -52 -6c-18 -4 -50 -17 -67 -42c-18 -28 -36 -60 -31 -84c4 -16 20 -32 47 -48c52 -30 85 -56 106 -85c23 -29 33 -62 33 -102c0 -36 -9 -68 -27 -96c-16 -25 -39 -45 -66 -59l-21 -9c8 -7 16 -14 23 -22
c28 -31 41 -62 41 -96c0 -30 -11 -59 -32 -82c-18 -20 -43 -35 -72 -46c-27 -10 -56 -15 -84 -15c-9 0 -17 0 -25 1c-42 5 -75 20 -96 45c-37 44 -40 89 -36 118c6 42 29 81 61 103c16 11 38 7 49 -9s7 -38 -9 -49c-13 -9 -27 -29 -30 -54c-3 -23 3 -44 20 -63
c17 -21 73 -30 126 -10c17 6 57 25 57 61s-46 71 -90 105c-27 21 -55 42 -77 66c-28 31 -42 62 -42 96c0 41 9 77 27 107c16 26 39 48 66 62c5 3 10 5 15 7c-17 18 -28 37 -33 57c-12 50 14 99 41 140c37 56 105 73 132 77c19 4 67 9 93 -12c34 -26 24 -69 20 -85
c-7 -29 -21 -67 -43 -124c-7 -19 -27 -28 -46 -21c-18 7 -27 27 -20 46zM281 214c16 8 54 34 54 91c0 34 -9 61 -56 95l-7 3c-9 7 -40 9 -70 -6c-25 -14 -55 -43 -55 -107c0 -26 25 -52 55 -77c1 -1 2 -1 2 -2c18 -12 50 -11 77 3z" />
    <glyph glyph-name="trademark" unicode="&#x2122;" horiz-adv-x="581" 
d="M634 675c-15 -59 -29 -119 -34 -166c-7 -55 1 -74 6 -81c12 -16 9 -38 -7 -50c-6 -5 -14 -7 -21 -7c-11 0 -22 5 -29 14c-16 23 -24 54 -22 98c-9 -19 -18 -37 -24 -52c-7 -16 -24 -25 -41 -21s-28 20 -27 37c0 1 3 50 2 104v1c-23 -59 -52 -125 -83 -164
c-7 -9 -18 -14 -28 -14c-8 0 -16 3 -22 8c-16 12 -18 34 -6 50c40 50 83 167 105 235c-21 0 -50 0 -88 -2c-9 -20 -27 -61 -42 -105c-37 -110 -23 -135 -22 -136c11 -17 6 -38 -11 -49c-6 -4 -12 -5 -19 -5c-12 0 -23 5 -30 16c-14 22 -18 53 -11 96c4 28 13 63 26 102
c10 27 20 52 28 73c-25 -3 -46 -7 -57 -11c-19 -6 -39 5 -45 23c-6 19 4 39 23 45c43 14 132 20 158 22c43 2 118 5 147 -5s37 -43 42 -73c2 -15 4 -33 5 -55c28 53 50 87 67 105c11 11 29 14 43 6c14 -7 21 -24 17 -39z" />
    <glyph glyph-name="degree" unicode="&#xb0;" horiz-adv-x="293" 
d="M246 386c21 10 37 23 47 38l2 3c17 26 44 65 36 105c-3 18 -14 33 -30 43c-13 9 -29 14 -47 14c-44 0 -91 -28 -96 -31l-3 -2c-33 -25 -52 -57 -55 -91c-2 -28 8 -54 27 -73c15 -15 34 -22 57 -22zM177 442c-4 5 -6 11 -6 18c1 13 10 26 25 38c12 7 39 20 58 20
c4 0 6 -1 7 -2c0 -2 -1 -7 -5 -17c-6 -11 -14 -23 -20 -33l-2 -3c-5 -7 -30 -22 -50 -22c-4 0 -6 1 -7 1z" />
    <glyph glyph-name="asciicircum" unicode="^" horiz-adv-x="210" 
d="M1 464c0 -11 4 -19 13 -24c30 20 63 36 100 48c32 -29 56 -56 71 -82c17 8 25 21 25 38c0 40 -62 106 -95 106s-114 -50 -114 -86z" />
    <glyph glyph-name="dagger" unicode="&#x2020;" horiz-adv-x="405" 
d="M411 340c1 -20 -14 -37 -33 -38c-23 -1 -49 0 -77 2c-14 0 -29 1 -43 2c-65 -154 -129 -311 -130 -314c-5 -14 -18 -22 -33 -22c-4 0 -8 1 -13 3c-18 7 -27 28 -19 46c1 2 56 140 117 285c-22 -3 -44 -7 -63 -15c-4 -2 -9 -3 -13 -3c-14 0 -28 8 -33 22c-8 18 1 39 19 46
c38 16 80 22 121 23c29 69 58 136 80 183c9 18 30 26 47 18c18 -9 26 -30 18 -47c-19 -42 -43 -96 -69 -156h18c25 -2 50 -3 68 -2c20 1 37 -14 38 -33z" />
    <glyph glyph-name="daggerdbl" unicode="&#x2021;" horiz-adv-x="449" 
d="M307 341h-12c-5 -12 -11 -25 -16 -38c45 -1 89 0 126 7c19 4 38 -9 41 -28c4 -20 -9 -38 -28 -42c-52 -9 -110 -9 -167 -8c-4 -8 -7 -17 -11 -26l-87 -215c-6 -13 -19 -21 -33 -21c-5 0 -10 1 -14 3c-18 8 -26 29 -18 47c16 37 50 122 86 212c-34 -1 -64 -5 -83 -14
c-5 -3 -10 -4 -15 -4c-14 0 -26 8 -32 20c-9 18 -2 39 16 48c37 18 87 21 143 21l15 37c-44 -1 -84 -6 -107 -18c-5 -3 -11 -4 -16 -4c-13 0 -25 7 -32 19c-9 17 -2 39 15 48c42 22 104 26 169 27c30 73 57 137 73 172c9 18 30 25 48 17c17 -9 25 -30 16 -48
c-14 -29 -35 -80 -60 -141c41 0 79 0 103 5c20 4 38 -9 42 -28s-9 -38 -28 -42c-34 -6 -83 -6 -134 -6z" />
    <glyph glyph-name="acute" unicode="&#xb4;" horiz-adv-x="141" 
d="M95 370c14 0 27 8 33 21c0 1 30 65 112 135c15 13 17 35 5 50c-13 15 -35 17 -50 5c-96 -81 -130 -158 -132 -161c-8 -18 0 -39 18 -47c5 -2 10 -3 14 -3z" />
    <glyph glyph-name="caron" unicode="&#x2c7;" horiz-adv-x="210" 
d="M-13 518c0 -44 68 -116 104 -116s123 55 123 94c0 11 -7 19 -21 24c-24 -21 -58 -39 -102 -54c-35 31 -61 61 -77 92c-18 -9 -27 -22 -27 -40z" />
    <glyph glyph-name="cedilla" unicode="&#xb8;" horiz-adv-x="232" 
d="M52 -220c33 0 72 19 106 37c33 18 56 38 70 57c18 24 21 51 8 73c-13 24 -42 39 -80 41h-4c8 8 17 16 27 25c15 13 17 35 5 50c-13 15 -35 17 -50 4c-82 -68 -95 -119 -96 -128c-3 -14 3 -28 14 -36s25 -9 37 -2c19 10 39 15 58 16c11 0 18 -1 23 -3
c-5 -7 -18 -19 -47 -35c-41 -23 -61 -27 -68 -28l-60 21c-8 -23 -9 -58 16 -78c11 -10 26 -14 41 -14z" />
    <glyph glyph-name="circumflex" unicode="&#x2c6;" horiz-adv-x="210" 
d="M-1 464c0 -13 4 -23 13 -28c38 25 72 42 102 52c33 -29 57 -57 72 -83c17 9 25 22 25 39c0 40 -63 106 -96 106c-35 0 -116 -50 -116 -86z" />
    <glyph glyph-name="dieresis" unicode="&#xa8;" horiz-adv-x="230" 
d="M-4 469c0 -23 19 -34 43 -34c29 0 60 26 60 50c0 21 -12 32 -36 32c-31 0 -67 -24 -67 -48zM141 449c0 -21 19 -34 42 -34c31 0 62 25 62 49c0 22 -12 33 -37 33c-32 0 -67 -23 -67 -48z" />
    <glyph glyph-name="grave" unicode="`" horiz-adv-x="138" 
d="M-4 519c45 -35 84 -71 117 -110c15 7 25 24 25 36c0 28 -73 113 -110 113c-16 0 -31 -14 -32 -39z" />
    <glyph glyph-name="ring" unicode="&#x2da;" horiz-adv-x="445" 
d="M265 385c21 10 37 23 47 38l2 3c17 26 44 65 36 105c-3 18 -14 33 -30 43c-13 9 -29 14 -47 14c-44 0 -91 -28 -96 -31l-3 -2c-33 -25 -52 -57 -55 -91c-2 -28 8 -54 27 -73c15 -15 34 -22 57 -22zM196 441c-4 5 -6 11 -6 18c1 13 10 26 25 38c12 7 39 20 58 20
c4 0 6 -1 7 -2c0 -2 -1 -7 -5 -17c-6 -11 -14 -23 -20 -33l-2 -3c-5 -7 -30 -22 -50 -22c-4 0 -6 1 -7 1z" />
    <glyph glyph-name="tilde" unicode="&#x2dc;" horiz-adv-x="284" 
d="M211 370c25 0 53 4 86 17c19 6 28 27 21 45c-6 19 -27 28 -45 21c-61 -22 -93 -10 -129 4c-39 14 -83 30 -150 8c-18 -7 -28 -27 -22 -45c6 -19 26 -29 45 -23c43 15 68 6 102 -7c25 -9 54 -20 92 -20z" />
    <glyph glyph-name="NULL" horiz-adv-x="0" 
 />
    <glyph glyph-name="uniE000" unicode="&#xe000;" horiz-adv-x="330" 
d="M335 272c10 -13 14 -27 14 -42v-111c0 -15 -4 -29 -14 -42c-9 -13 -21 -23 -35 -27l-90 -32c-12 -4 -27 -7 -42 -7c-16 0 -31 3 -42 7l-91 32c-13 4 -26 14 -35 27s-14 27 -14 42v111c0 15 5 29 14 42c10 13 22 23 35 27l91 30c11 3 26 6 42 6c15 0 30 -3 42 -6l90 -30
c13 -4 26 -14 35 -27zM328 119v111c0 20 -16 42 -35 48l-91 31c-9 3 -21 5 -34 5s-26 -2 -35 -5l-91 -31c-19 -6 -35 -28 -35 -48v-111c0 -20 16 -43 35 -49l91 -32c9 -4 22 -5 35 -5c12 0 25 1 34 5l91 32c19 6 35 29 35 49zM75 90v114c0 31 25 57 56 57h30v-26h-30
c-17 0 -31 -14 -31 -31v-19h32v-25h-32v-70h-25zM176 261h39c32 0 57 -26 57 -57v-57c0 -32 -25 -56 -57 -56h-39v57h26v-33h13c17 0 32 15 32 32v57c0 17 -15 31 -32 31h-13v-32h-26v58z" />
    </font>
</defs>
</svg>
